<?xml version="1.0" encoding="utf-8"?>
<!-- Generator: Adobe Illustrator 18.0.0, SVG Export Plug-In . SVG Version: 6.00 Build 0)  -->
<!DOCTYPE svg PUBLIC "-//W3C//DTD SVG 1.1//EN" "http://www.w3.org/Graphics/SVG/1.1/DTD/svg11.dtd">
<svg version="1.1" id="Layer_1" xmlns="http://www.w3.org/2000/svg" xmlns:xlink="http://www.w3.org/1999/xlink" x="0px" y="0px"
	 viewBox="0 0 75 100" enable-background="new 0 0 75 100" xml:space="preserve">
<g>
	<g>
		
			<radialGradient id="SVGID_1_" cx="40.1098" cy="33.5988" r="17.7964" gradientTransform="matrix(0.9941 0 0 1.0817 0.994 11.1496)" gradientUnits="userSpaceOnUse">
			<stop  offset="0" style="stop-color:#0E0F10"/>
			<stop  offset="1" style="stop-color:#131517"/>
		</radialGradient>
		<path opacity="0.3" fill="url(#SVGID_1_)" d="M57.4,21.1c-0.5-4.3-2-7.1-5.3-9.7c-5.2-4.2-17.1-4.2-22.4,0
			c-3.3,2.6-4.9,5.4-5.3,9.7c-0.9,8.9,0.4,18.1,0.3,27c-0.1,10.5-2.9,24.9,0.4,34.2c1.6,4.6,11.4,4.4,15.7,4.4
			c4.3,0,14.1,0.2,15.7-4.4c3.3-9.3,0.5-23.7,0.4-34.2C57,39.2,58.3,30,57.4,21.1z"/>
		<path fill="#010101" d="M54.1,52.6c-0.1-9.2,1.5-18.7,0.3-28c-0.4-3.6-1.1-5.4-2.3-6.9c-0.8-1.1-1.9-1.9-3.4-3.1
			C48,13.9,47,13.4,45.9,13c-0.2-0.1-0.4-0.1-0.6-0.2c-5.3-1.6-11.5-1.6-16.8,0c-0.2,0.1-0.4,0.1-0.6,0.2c-1.2,0.4-2.2,0.9-2.9,1.6
			c-1.5,1.2-2.5,2.1-3.4,3.1c-1.2,1.5-1.8,3.3-2.3,6.9c-1.1,9.3,0.4,18.8,0.3,28c-0.1,10.9-2.6,25,0.5,35.6c0.2,0.8,0.9,1.4,1.7,2
			C22,90,22.3,90,22.5,90c1.5,0,2.3,1,4,0.7c1.1-0.2,1.5,0.7,1.6,1.4c1,0.2,2,0.3,3,0.4c0.2-0.2,0.4-0.4,0.7-0.4c3.3,0,6.7,0,10,0
			c0.3,0,0.6,0.1,0.7,0.4c0.7-0.1,1.5-0.2,2.2-0.3c0.1-0.6,0.5-1.7,1.7-1.5c1.7,0.3,2.5-0.7,4-0.7c0.5,0,0.8,0.1,1,0.4
			c1.1-0.6,1.9-1.3,2.1-2.2C56.7,77.5,54.2,63.4,54.1,52.6z"/>
		
			<radialGradient id="SVGID_2_" cx="36.0992" cy="37.3767" r="17.7964" gradientTransform="matrix(0.9941 0 0 1.0817 0.994 11.1496)" gradientUnits="userSpaceOnUse">
			<stop  offset="0" style="stop-color:#0E0F10"/>
			<stop  offset="1" style="stop-color:#131517"/>
		</radialGradient>
		<path fill="url(#SVGID_2_)" d="M53.4,25.2c-0.5-4.3-2-7.1-5.3-9.7c-5.2-4.2-17.1-4.2-22.4,0c-3.3,2.6-4.9,5.4-5.3,9.7
			c-0.9,8.9,0.4,18.1,0.3,27c-0.1,10.5-2.9,24.9,0.4,34.2c1.6,4.6,11.4,4.4,15.7,4.4c4.3,0,14.1,0.2,15.7-4.4
			c3.3-9.3,0.5-23.7,0.4-34.2C53,43.3,54.3,34.1,53.4,25.2z"/>
		<linearGradient id="SVGID_3_" gradientUnits="userSpaceOnUse" x1="24.2908" y1="46.0931" x2="49.4681" y2="46.0931">
			<stop  offset="0" style="stop-color:#010101"/>
			<stop  offset="1" style="stop-color:#010101"/>
		</linearGradient>
		<path fill="url(#SVGID_3_)" d="M30,44.9c-2.9,0.4-5,1.2-5.8,1.5c0.1,0.5,0.1,0.8,0.2,1.3c0,0,2.3-1.2,5.8-1.7
			c4.2-0.6,8.8-0.6,13.1,0c3.5,0.5,5.8,1.7,5.8,1.7c0.1-0.5,0.1-0.8,0.2-1.3c-0.8-0.3-2.9-1.1-5.8-1.5C39.3,44.3,34.5,44.3,30,44.9z
			"/>
		<path fill="#010101" d="M23.5,35.1c1.1-0.5,3.1-1.3,6.1-1.9c4.7-1,9.8-1,14.5,0c3,0.6,5,1.5,6.1,1.9c0.5,0.2,0.8,0.4,1,0.6
			c0,0,0,0,0,0c0,0,0.2-0.9,0.1-1.2c-0.1-0.2-0.5-0.4-1-0.7c-1.1-0.5-3.1-1.3-6.1-1.9c-4.7-1-9.8-1-14.5,0c-3,0.6-5,1.5-6.1,1.9
			c-0.6,0.3-0.9,0.5-1,0.7c-0.1,0.3,0.1,1.2,0.1,1.2c0,0,0,0,0,0C22.7,35.5,23,35.3,23.5,35.1z"/>
		<path fill="#414141" d="M30,44.9c4.4-0.6,9.2-0.6,13.7,0c2.9,0.4,5,1.2,5.8,1.5c0.6-3.6,1.2-7.2,1.7-10.8c-0.2-0.2-0.5-0.4-1-0.6
			c-1.1-0.5-3.1-1.3-6.1-1.9c-4.7-1-9.8-1-14.5,0c-3,0.6-5,1.5-6.1,1.9c-0.5,0.2-0.8,0.4-1,0.6c0.6,3.6,1.2,7.2,1.7,10.8
			C25.1,46.1,27.2,45.3,30,44.9z"/>
		<path fill="#010101" d="M48.8,75.9c-0.1-0.5-0.2-0.9-0.4-1.4c0,0-0.2,0.1-0.5,0.2c-3.5,1.4-7.4,1.7-11.1,1.7
			c-3.6,0-7.5-0.4-11.1-1.7c-0.3-0.1-0.5-0.2-0.5-0.2c-0.1,0.4-0.3,0.9-0.3,1.4c-0.5,2.8-0.8,5.7-0.6,8.6c0,0,2.6,1.2,6.2,1.8
			c4,0.7,8.6,0.7,12.6,0c3.6-0.6,6.2-1.8,6.2-1.8C49.6,81.6,49.3,78.7,48.8,75.9z M48.5,83.4c0,0-2.4,1.2-5.7,1.8
			c-3.7,0.7-8,0.7-11.7,0c-3.3-0.6-5.7-1.8-5.7-1.8S25,80,25.6,76.1c3.7,1,7.6,1.4,11.3,1.4c3.7,0,7.6-0.3,11.3-1.3
			C48.8,80,48.5,83.4,48.5,83.4z"/>
		<path fill="#414141" d="M25.6,76.1c-0.6,3.9-0.3,7.4-0.3,7.4s2.4,1.2,5.7,1.8c3.7,0.7,8,0.7,11.7,0c3.3-0.6,5.7-1.8,5.7-1.8
			s0.3-3.4-0.3-7.3c-3.7,1-7.6,1.3-11.3,1.3C33.2,77.5,29.3,77.1,25.6,76.1z"/>
		<g>
			<path fill="#414141" d="M21.6,58.7c1,0.3,1.5,0.5,2.5,0.9c-0.1-3.7-0.2-7.4-0.3-11.1c-0.7-4.4-1.5-8.8-2.2-13.2
				c-0.2,2.7-0.2,5.5-0.1,8.2c0.1,3.3,0.4,6.7,0.4,10C21.8,56,21.7,57.8,21.6,58.7z"/>
			<path fill="#414141" d="M52.2,58.7c-1,0.3-1.5,0.5-2.5,0.9c0.1-3.7,0.2-7.4,0.3-11.1c0.7-4.4,1.5-8.8,2.2-13.2
				c0.2,2.7,0.2,5.5,0.1,8.2c-0.1,3.3-0.4,6.7-0.4,10C52,56,52.1,57.8,52.2,58.7z"/>
		</g>
		<g>
			<path fill="#414141" d="M21.5,59.7c1,0.4,1.5,0.7,2.6,1.1c0.1,3.1,0.1,6.2,0.2,9.3c0,0-0.2,1.2-1.2,3c-1.1,2.2-1.7,2.8-1.7,2.8
				C21.3,70.6,21.1,65.1,21.5,59.7z"/>
			<path fill="#414141" d="M52.3,59.7c-1,0.4-1.5,0.7-2.6,1.1c-0.1,3.1-0.1,6.2-0.2,9.3c0,0,0.2,1.2,1.2,3c1.1,2.2,1.7,2.8,1.7,2.8
				C52.5,70.6,52.6,65.1,52.3,59.7z"/>
		</g>
		<path fill="#BE202E" d="M26.5,90.7c-1.7,0.3-2.5-0.7-4-0.7c-0.3,0-0.5,0-0.7,0.1c1.6,1,3.9,1.6,6.3,2C28,91.5,27.7,90.6,26.5,90.7
			z"/>
		<path fill="#BE202E" d="M46.5,90.7c-1.2-0.2-1.5,0.8-1.7,1.5c2.5-0.3,5-0.9,6.7-1.9c-0.2-0.2-0.6-0.4-1-0.4
			C48.9,90,48.2,91,46.5,90.7z"/>
		<linearGradient id="SVGID_4_" gradientUnits="userSpaceOnUse" x1="25.8577" y1="29.2396" x2="29.9507" y2="16.4029">
			<stop  offset="0" style="stop-color:#0B0D0D"/>
			<stop  offset="1" style="stop-color:#090B0C"/>
		</linearGradient>
		<path fill="url(#SVGID_4_)" d="M25.4,31c0,0,2.6-4.7,3.2-7.2c0.3-1.4-0.1-6.1-0.1-6.1s-0.3,4.4-0.6,5.8C27.2,26.1,25.4,31,25.4,31
			z"/>
		<linearGradient id="SVGID_5_" gradientUnits="userSpaceOnUse" x1="47.5698" y1="30.0007" x2="44.3122" y2="17.0628">
			<stop  offset="0" style="stop-color:#0B0D0D"/>
			<stop  offset="1" style="stop-color:#090B0C"/>
		</linearGradient>
		<path fill="url(#SVGID_5_)" d="M48.4,31c0,0-2.6-4.7-3.2-7.2c-0.3-1.4,0.1-6.1,0.1-6.1s0.3,4.4,0.6,5.8C46.5,26.1,48.4,31,48.4,31
			z"/>
		<linearGradient id="SVGID_6_" gradientUnits="userSpaceOnUse" x1="36.7805" y1="36.5287" x2="44.9051" y2="42.3059">
			<stop  offset="0" style="stop-color:#373C3A"/>
			<stop  offset="1" style="stop-color:#010101"/>
		</linearGradient>
		<path fill="url(#SVGID_6_)" d="M50.3,35.1c-1.1-0.5-3.1-1.3-6.1-1.9c-1.1-0.2-2.2-0.4-3.4-0.5c-3.2,3.6-5.8,7.9-8.2,12.1
			c3.7-0.2,7.5-0.3,11.2,0.2c2.9,0.4,5,1.2,5.8,1.5c0.6-3.6,1.2-7.2,1.7-10.8C51.1,35.5,50.7,35.3,50.3,35.1z"/>
		<path fill="#1D1D1D" d="M36.9,46.9c-3.8,0-7.8-0.1-11.4,1.4c0,7.9-1.7,18.9,0.6,24.2c0.9,2.1,6.8,2.3,9.4,2.5c1.2,0,1.7,0,2.9,0
			c2.6-0.2,8.5-0.3,9.4-2.5c2.3-5.4,0.6-16.3,0.6-24.2C44.7,46.8,40.7,46.9,36.9,46.9z"/>
		<path fill="#414141" d="M37,46.9c-3.8,0-8-0.1-11.6,1.4c0,7.9-1.7,18.9,0.6,24.2c0.9,2.1,6.9,2.3,9.6,2.5c1.2,0,1.8,0,2.9,0
			c2.7-0.2,8.7-0.3,9.6-2.5c2.3-5.4,0.6-16.3,0.6-24.2C45,46.8,40.9,46.9,37,46.9z"/>
		<path fill="#191918" d="M38.5,90c4.3-0.2,9-0.7,13-2.9c-0.7-0.8-1.1-1.2-1.8-2.1c-3.9,2.1-8.4,2.8-12.8,2.5l0,0
			c-4.3,0.3-8.9-0.4-12.8-2.5c-0.7,0.8-1.1,1.3-1.8,2.1c3.9,2.2,8.6,2.6,13,2.9c0.5,0,1.6,0,1.6,0l0,0C37.5,90.1,38,90.1,38.5,90z"
			/>
		<g>
			<path fill="#080808" d="M27.1,15c0,0-5.5,5.1-5.9,8.8c-0.3,3.1-0.6,9.4-0.6,9.4C20.6,33.3,27.1,15,27.1,15z"/>
		</g>
		<g>
			<path fill="#080808" d="M46.7,15c0,0,5.5,5.1,5.9,8.8c0.3,3.1,0.6,9.4,0.6,9.4C53.2,33.3,46.7,15,46.7,15z"/>
		</g>
		<g>
			<linearGradient id="SVGID_7_" gradientUnits="userSpaceOnUse" x1="51.8239" y1="36.5605" x2="54.9815" y2="42.6743">
				<stop  offset="0" style="stop-color:#030404"/>
				<stop  offset="1" style="stop-color:#020303"/>
			</linearGradient>
			<path fill="url(#SVGID_7_)" d="M52.1,36.1c0,0,1.4,0.3,1.4,1.5c0,1.2-1.4,3.7-1.4,2.1C52.1,38.1,52,36.5,52.1,36.1z"/>
			<linearGradient id="SVGID_8_" gradientUnits="userSpaceOnUse" x1="53.0542" y1="38.3548" x2="57.1559" y2="38.3548">
				<stop  offset="0" style="stop-color:#0E0F10"/>
				<stop  offset="1" style="stop-color:#0B0D0D"/>
			</linearGradient>
			<path fill="url(#SVGID_8_)" d="M57,38.7c-0.3-0.4-3.1-1.3-3.1-1.3c-0.6-0.2-0.7,0.3-0.8,0.7c1.6,0.5,2.4,0.7,4,1.2
				C57.2,39.1,57.2,38.9,57,38.7z"/>
			<linearGradient id="SVGID_9_" gradientUnits="userSpaceOnUse" x1="53.0592" y1="38.886" x2="57.159" y2="38.886">
				<stop  offset="0" style="stop-color:#030404"/>
				<stop  offset="1" style="stop-color:#020303"/>
			</linearGradient>
			<path fill="url(#SVGID_9_)" d="M53.1,38.2c0,0.3,0,0.5,0,0.5c1.6,0.4,2.4,0.6,4,0.9c0,0,0.1-0.1,0.1-0.3
				C55.5,38.9,54.7,38.6,53.1,38.2z"/>
		</g>
		<g>
			<linearGradient id="SVGID_10_" gradientUnits="userSpaceOnUse" x1="20.8616" y1="37.1021" x2="23.5925" y2="43.0967">
				<stop  offset="0" style="stop-color:#030404"/>
				<stop  offset="1" style="stop-color:#020303"/>
			</linearGradient>
			<path fill="url(#SVGID_10_)" d="M21.6,36c0,0-1.5,0.3-1.5,1.5c0,1.2,1.4,3.7,1.5,2.1C21.6,38,21.7,36.5,21.6,36z"/>
			<linearGradient id="SVGID_11_" gradientUnits="userSpaceOnUse" x1="16.5926" y1="38.2992" x2="20.6936" y2="38.2992">
				<stop  offset="0" style="stop-color:#0B0D0D"/>
				<stop  offset="1" style="stop-color:#0E0F10"/>
			</linearGradient>
			<path fill="url(#SVGID_11_)" d="M19.9,37.3c0,0-2.8,0.8-3.1,1.3c-0.2,0.2-0.2,0.5-0.1,0.7c1.6-0.5,2.4-0.7,4-1.2
				C20.6,37.7,20.4,37.1,19.9,37.3z"/>
			<linearGradient id="SVGID_12_" gradientUnits="userSpaceOnUse" x1="16.588" y1="38.8262" x2="20.6879" y2="38.8262">
				<stop  offset="0" style="stop-color:#030404"/>
				<stop  offset="1" style="stop-color:#020303"/>
			</linearGradient>
			<path fill="url(#SVGID_12_)" d="M16.6,39.3c0,0.1,0.1,0.2,0.1,0.2c1.6-0.4,2.4-0.6,4-0.9c0,0,0-0.2,0-0.5
				C19.1,38.6,18.3,38.8,16.6,39.3z"/>
		</g>
		<path fill="#040505" d="M19.7,52c-0.2,0-0.4,0.2-0.4,0.4c0,1.3,0,1.9,0,3.1c0,0.2,0.2,0.4,0.4,0.4C19.7,54.3,19.7,53.6,19.7,52z"
			/>
		<path fill="#040505" d="M18.8,67.7c-0.2,0-0.4,0.2-0.4,0.4c0,1.2,0,1.9,0,3.1c0,0.2,0.2,0.4,0.4,0.4C18.8,70,18.8,69.2,18.8,67.7z
			"/>
		<path fill="#040505" d="M54,52c0.2,0,0.4,0.2,0.4,0.4c0,1.3,0,1.9,0,3.1c0,0.2-0.2,0.4-0.4,0.4C54.1,54.3,54.1,53.6,54,52z"/>
		<path fill="#040505" d="M54.9,67.7c0.2,0,0.4,0.2,0.4,0.4c0,1.2,0,1.9,0,3.1c0,0.2-0.2,0.4-0.4,0.4C55,70,55,69.2,54.9,67.7z"/>
		<g>
			<g>
				<path fill="#080909" d="M28.9,29.9c0.6,0,0.9-0.4,1.5-0.4c0,0,0.1,0,0.1-0.1c0-0.1,0-0.1-0.1-0.1c-0.6,0-0.9,0.4-1.5,0.4
					C28.8,29.7,28.8,29.8,28.9,29.9C28.8,29.9,28.8,29.9,28.9,29.9z"/>
				<path fill="#080909" d="M30.3,29.7c-0.6,0-0.9,0.4-1.5,0.4c0,0-0.1,0-0.1,0.1c0,0.1,0,0.1,0.1,0.1c0.6,0,0.9-0.4,1.5-0.4
					C30.4,29.8,30.4,29.8,30.3,29.7C30.4,29.7,30.4,29.7,30.3,29.7z"/>
				<path fill="#080909" d="M30.3,30c-0.6,0-0.9,0.4-1.5,0.4c0,0-0.1,0-0.1,0.1s0,0.1,0.1,0.1c0.6,0,0.9-0.4,1.5-0.4
					C30.4,30.2,30.4,30.2,30.3,30C30.4,30.1,30.4,30,30.3,30z"/>
			</g>
			<g>
				<path fill="#080909" d="M44.9,29.9c-0.6,0-0.9-0.4-1.5-0.4c0,0-0.1,0-0.1-0.1c0-0.1,0-0.1,0.1-0.1c0.6,0,0.9,0.4,1.5,0.4
					C44.9,29.7,45,29.8,44.9,29.9C45,29.9,44.9,29.9,44.9,29.9z"/>
				<path fill="#080909" d="M43.4,29.7c0.6,0,0.9,0.4,1.5,0.4c0,0,0.1,0,0.1,0.1c0,0.1,0,0.1-0.1,0.1c-0.6,0-0.9-0.4-1.5-0.4
					C43.4,29.8,43.3,29.8,43.4,29.7C43.3,29.7,43.4,29.7,43.4,29.7z"/>
				<path fill="#080909" d="M43.4,30c0.6,0,0.9,0.4,1.5,0.4c0,0,0.1,0,0.1,0.1s0,0.1-0.1,0.1c-0.6,0-0.9-0.4-1.5-0.4
					C43.4,30.2,43.3,30.2,43.4,30C43.3,30.1,43.4,30,43.4,30z"/>
			</g>
		</g>
		<path fill="#010101" d="M41.9,92.1c-3.3,0-6.7,0-10,0c-0.3,0-0.5,0.1-0.7,0.4c3.1,0.3,5.7,0.2,5.7,0.2c0,0,2.6,0,5.7-0.2
			C42.4,92.3,42.2,92.1,41.9,92.1z"/>
		<linearGradient id="SVGID_13_" gradientUnits="userSpaceOnUse" x1="31.253" y1="69.8502" x2="37.3499" y2="79.1994">
			<stop  offset="0" style="stop-color:#373C3A"/>
			<stop  offset="1" style="stop-color:#010101"/>
		</linearGradient>
		<path fill="url(#SVGID_13_)" d="M48.2,76.1c-3.7,1-7.5,1.3-11.3,1.3c-1.1,0-2.2,0-3.3-0.1c-2.8,1.4-4.5,4.3-5.7,7.1
			c0.9,0.3,1.9,0.6,3.1,0.8c3.7,0.7,8,0.7,11.7,0c3.3-0.6,5.7-1.8,5.7-1.8S48.8,80,48.2,76.1z"/>
		<g>
			<linearGradient id="SVGID_14_" gradientUnits="userSpaceOnUse" x1="26.1475" y1="53.9493" x2="32.4296" y2="53.9493">
				<stop  offset="0" style="stop-color:#040404"/>
				<stop  offset="1" style="stop-color:#010101"/>
			</linearGradient>
			<ellipse fill="url(#SVGID_14_)" cx="29.3" cy="53.9" rx="3.1" ry="2.8"/>
			<linearGradient id="SVGID_15_" gradientUnits="userSpaceOnUse" x1="26.399" y1="53.9493" x2="32.1794" y2="53.9493">
				<stop  offset="0" style="stop-color:#010101"/>
				<stop  offset="1" style="stop-color:#040404"/>
			</linearGradient>
			<ellipse fill="url(#SVGID_15_)" cx="29.3" cy="53.9" rx="2.9" ry="2.6"/>
			
				<radialGradient id="SVGID_16_" cx="40.3213" cy="44.6339" r="2.4732" gradientTransform="matrix(1.075 0 0 0.9637 -14.0562 10.9353)" gradientUnits="userSpaceOnUse">
				<stop  offset="0" style="stop-color:#32ABE2"/>
				<stop  offset="0.3491" style="stop-color:#348DCC"/>
				<stop  offset="1" style="stop-color:#354DA1"/>
			</radialGradient>
			<ellipse fill="url(#SVGID_16_)" cx="29.3" cy="53.9" rx="2.7" ry="2.4"/>
			
				<radialGradient id="SVGID_17_" cx="40.3213" cy="44.6339" r="1.5659" gradientTransform="matrix(1.075 0 0 0.9637 -14.0562 10.9353)" gradientUnits="userSpaceOnUse">
				<stop  offset="0" style="stop-color:#32ABE2"/>
				<stop  offset="0.3491" style="stop-color:#348DCC"/>
				<stop  offset="1" style="stop-color:#354DA1"/>
			</radialGradient>
			<ellipse fill="url(#SVGID_17_)" cx="29.3" cy="53.9" rx="1.7" ry="1.5"/>
			
				<radialGradient id="SVGID_18_" cx="39.5497" cy="40.4255" r="2.9458" gradientTransform="matrix(1.0702 0 0 0.9455 -14.612 14.4123)" gradientUnits="userSpaceOnUse">
				<stop  offset="0" style="stop-color:#46C7F0"/>
				<stop  offset="9.344704e-003" style="stop-color:#49BCE1"/>
				<stop  offset="9.414089e-002" style="stop-color:#468597"/>
				<stop  offset="0.1789" style="stop-color:#385B63"/>
				<stop  offset="0.2617" style="stop-color:#2A3D41"/>
				<stop  offset="0.3422" style="stop-color:#1D2729"/>
				<stop  offset="0.4197" style="stop-color:#101616"/>
				<stop  offset="0.493" style="stop-color:#050707"/>
				<stop  offset="0.5576" style="stop-color:#010101"/>
			</radialGradient>
			<ellipse fill="url(#SVGID_18_)" cx="27.7" cy="52.6" rx="2.4" ry="2.1"/>
			
				<radialGradient id="SVGID_19_" cx="42.7895" cy="43.0639" r="2.9456" gradientTransform="matrix(1.0702 0 0 0.9455 -14.612 14.4123)" gradientUnits="userSpaceOnUse">
				<stop  offset="0" style="stop-color:#46C7F0"/>
				<stop  offset="9.344704e-003" style="stop-color:#49BCE1"/>
				<stop  offset="9.414089e-002" style="stop-color:#468597"/>
				<stop  offset="0.1789" style="stop-color:#385B63"/>
				<stop  offset="0.2617" style="stop-color:#2A3D41"/>
				<stop  offset="0.3422" style="stop-color:#1D2729"/>
				<stop  offset="0.4197" style="stop-color:#101616"/>
				<stop  offset="0.493" style="stop-color:#050707"/>
				<stop  offset="0.5576" style="stop-color:#010101"/>
			</radialGradient>
			<ellipse fill="url(#SVGID_19_)" cx="31.2" cy="55.1" rx="2.4" ry="2.1"/>
		</g>
	</g>
	<g>
		
			<radialGradient id="SVGID_20_" cx="226.4506" cy="-19.5374" r="1.6012" gradientTransform="matrix(0.7806 -0.6626 0.7391 0.6998 -137.9649 180.9675)" gradientUnits="userSpaceOnUse">
			<stop  offset="0" style="stop-color:#FFFFFF"/>
			<stop  offset="1" style="stop-color:#D3D6D5"/>
		</radialGradient>
		<path fill="url(#SVGID_20_)" d="M26,15.9c-0.3-0.3-1.3,0-2.3,0.8c-0.9,0.8-1.4,1.7-1,2c0.3,0.3,1.4,0,2.3-0.8
			C25.9,17.1,26.3,16.2,26,15.9z"/>
		
			<radialGradient id="SVGID_21_" cx="227.7831" cy="-21.9886" r="1.0314" gradientTransform="matrix(0.6404 -0.4904 0.6982 0.7327 -103.3994 142.8396)" gradientUnits="userSpaceOnUse">
			<stop  offset="0" style="stop-color:#FFFFFF"/>
			<stop  offset="1" style="stop-color:#D3D6D5"/>
		</radialGradient>
		<path fill="url(#SVGID_21_)" d="M28,14.4c-0.2-0.2-0.8-0.1-1.2,0.3c-0.5,0.4-0.7,0.8-0.5,1.1c0.2,0.2,0.8,0.1,1.2-0.3
			C28,15,28.2,14.6,28,14.4z"/>
	</g>
	<g>
		
			<radialGradient id="SVGID_22_" cx="461.5291" cy="203.0446" r="1.6012" gradientTransform="matrix(-0.7806 -0.6626 -0.7391 0.6998 559.9136 180.9675)" gradientUnits="userSpaceOnUse">
			<stop  offset="0" style="stop-color:#FFFFFF"/>
			<stop  offset="1" style="stop-color:#D3D6D5"/>
		</radialGradient>
		<path fill="url(#SVGID_22_)" d="M47.9,15.9c0.3-0.3,1.3,0,2.3,0.8c0.9,0.8,1.4,1.7,1,2c-0.3,0.3-1.4,0-2.3-0.8
			C48.1,17.1,47.6,16.2,47.9,15.9z"/>
		
			<radialGradient id="SVGID_23_" cx="541.9537" cy="188.2877" r="1.0316" gradientTransform="matrix(-0.6404 -0.4904 -0.6982 0.7327 525.345 142.8396)" gradientUnits="userSpaceOnUse">
			<stop  offset="0" style="stop-color:#FFFFFF"/>
			<stop  offset="1" style="stop-color:#D3D6D5"/>
		</radialGradient>
		<path fill="url(#SVGID_23_)" d="M45.9,14.4c0.2-0.2,0.8-0.1,1.2,0.3c0.5,0.4,0.7,0.8,0.5,1.1c-0.2,0.2-0.8,0.1-1.2-0.3
			C46,15,45.7,14.6,45.9,14.4z"/>
	</g>
</g>
</svg>
