<?xml version="1.0" encoding="utf-8"?>
<!-- Generator: Adobe Illustrator 18.0.0, SVG Export Plug-In . SVG Version: 6.00 Build 0)  -->
<!DOCTYPE svg PUBLIC "-//W3C//DTD SVG 1.1//EN" "http://www.w3.org/Graphics/SVG/1.1/DTD/svg11.dtd">
<svg version="1.1" id="Layer_1" xmlns="http://www.w3.org/2000/svg" xmlns:xlink="http://www.w3.org/1999/xlink" x="0px" y="0px"
	 viewBox="0 0 75 100" enable-background="new 0 0 75 100" xml:space="preserve">
<g>
	<path opacity="0.3" fill="#010101" d="M59.7,19.9c-0.7-6.1-2.1-7.1-5.5-10C49.5,6,35,6,30.4,9.9c-3.4,2.9-4.8,3.9-5.5,10
		c-1.1,9.4,0.7,24.1,0.7,27.7c-0.2,19.3-0.4,31.1,0.9,35.2c1.4,4.7,15.9,4.4,15.9,4.4c0,0,14.4,0.3,15.9-4.4
		c1.3-4.1,1.1-15.8,0.9-35.2C59,44,60.8,29.3,59.7,19.9z"/>
	
		<radialGradient id="SVGID_1_" cx="36.5338" cy="-4021.7188" r="23.3665" gradientTransform="matrix(1 0 0 2.0828 0 8428.5254)" gradientUnits="userSpaceOnUse">
		<stop  offset="0" style="stop-color:#F7F8F8"/>
		<stop  offset="1" style="stop-color:#A9ACAB"/>
	</radialGradient>
	<path fill="url(#SVGID_1_)" d="M55.1,23.2c-0.4-3.7-1.1-5.6-2.3-7.1c-0.5,0.1-1,0-1.5-0.3l-4.4-3.2c-0.5-0.3-0.7-0.8-0.8-1.4
		c-0.2-0.1-0.4-0.1-0.6-0.2v4H27.6v-4c-0.2,0.1-0.4,0.1-0.6,0.2c-0.1,0.5-0.3,1-0.8,1.4l-4.4,3.2c-0.5,0.3-1,0.4-1.5,0.3
		c-1.2,1.5-1.9,3.4-2.3,7.1c-1.1,9.7,0.8,25,0.7,28.8c-0.2,20.1-0.4,32.3,0.9,36.6c0.3,0.8,0.9,1.5,1.8,2c0.2-0.1,0.4-0.1,0.7-0.1
		c1.6,0,2.3,1,4,0.7c1.1-0.2,1.5,0.7,1.7,1.4c1,0.2,2,0.3,3,0.4c0.2-0.2,0.4-0.4,0.7-0.4h10.1c0.3,0,0.6,0.1,0.7,0.4
		c0.7-0.1,1.5-0.1,2.2-0.3c0.1-0.7,0.5-1.7,1.7-1.5c1.7,0.3,2.5-0.7,4-0.7c0.5,0,0.8,0.2,1,0.4c1.1-0.6,1.9-1.3,2.2-2.3
		c1.3-4.2,1.2-16.5,0.9-36.6C54.3,48.2,56.2,32.9,55.1,23.2z"/>
	<linearGradient id="SVGID_2_" gradientUnits="userSpaceOnUse" x1="27.5891" y1="12.3961" x2="45.4781" y2="12.3961">
		<stop  offset="0" style="stop-color:#535A57"/>
		<stop  offset="1" style="stop-color:#2D2E2E"/>
	</linearGradient>
	<path fill="url(#SVGID_2_)" d="M45.5,15v-4c-5.1-1.6-12.8-1.6-17.9,0v4H45.5z"/>
	
		<radialGradient id="SVGID_3_" cx="36.5338" cy="-5906.3018" r="18.6843" gradientTransform="matrix(1 0 0 3.8388 0 22724.2852)" gradientUnits="userSpaceOnUse">
		<stop  offset="0" style="stop-color:#FFFFFF"/>
		<stop  offset="1" style="stop-color:#D3D6D5"/>
	</radialGradient>
	<path fill="url(#SVGID_3_)" d="M54,23.8c-0.7-6.1-2.1-7.1-5.5-10c-4.7-3.9-19.2-3.9-23.8,0c-3.4,2.9-4.8,3.9-5.5,10
		c-1.1,9.4,0.7,24.1,0.7,27.7c-0.2,19.3-0.4,31.1,0.9,35.2c1.4,4.7,15.9,4.4,15.9,4.4c0,0,14.4,0.3,15.9-4.4
		c1.3-4.1,1.1-15.8,0.9-35.2C53.2,47.9,55,33.1,54,23.8z"/>
	<linearGradient id="SVGID_4_" gradientUnits="userSpaceOnUse" x1="23.436" y1="45.2675" x2="49.6312" y2="45.2675">
		<stop  offset="0" style="stop-color:#010101"/>
		<stop  offset="1" style="stop-color:#1B1C1C"/>
	</linearGradient>
	<path fill="url(#SVGID_4_)" d="M29.4,44c-3,0.4-5.2,1.3-6,1.6l0.2,1.3c0,0,2.4-1.2,6.1-1.8c3.2-0.5,10.4-0.5,13.6,0
		c3.7,0.5,6.1,1.8,6.1,1.8l0.2-1.3c-0.8-0.3-3-1.2-6-1.6C40.3,43.5,32.7,43.5,29.4,44z"/>
	<linearGradient id="SVGID_5_" gradientUnits="userSpaceOnUse" x1="21.3673" y1="32.1325" x2="51.7" y2="32.1325">
		<stop  offset="0" style="stop-color:#010101"/>
		<stop  offset="1" style="stop-color:#1B1C1C"/>
	</linearGradient>
	<path fill="url(#SVGID_5_)" d="M22.5,33.9c1.2-0.5,3.2-1.4,6.4-2c4.6-1,10.7-1,15.2,0c3.2,0.7,5.2,1.5,6.4,2c0.5,0.2,0.8,0.4,1,0.6
		l0,0c0,0,0.2-1,0.1-1.2c-0.1-0.2-0.5-0.4-1.1-0.7c-1.2-0.5-3.2-1.4-6.4-2c-4.6-1-10.7-1-15.2,0c-3.2,0.7-5.2,1.5-6.4,2
		c-0.6,0.3-1,0.5-1.1,0.7c-0.1,0.3,0.1,1.2,0.1,1.2l0,0C21.7,34.3,22,34.1,22.5,33.9z"/>
	<linearGradient id="SVGID_6_" gradientUnits="userSpaceOnUse" x1="21.4989" y1="38.3521" x2="51.5686" y2="38.3521">
		<stop  offset="0" style="stop-color:#373C3A"/>
		<stop  offset="1" style="stop-color:#1B1C1C"/>
	</linearGradient>
	<path fill="url(#SVGID_6_)" d="M29.4,44c3.3-0.5,10.9-0.5,14.2,0c3,0.4,5.2,1.3,6,1.6l1.9-11.1c-0.2-0.2-0.5-0.4-1-0.6
		c-1.2-0.5-3.2-1.4-6.4-2c-4.6-1-10.7-1-15.2,0c-3.2,0.7-5.2,1.5-6.4,2c-0.5,0.2-0.8,0.4-1,0.6l1.9,11.1
		C24.2,45.2,26.4,44.4,29.4,44z"/>
	<linearGradient id="SVGID_7_" gradientUnits="userSpaceOnUse" x1="23.8101" y1="80.7351" x2="49.2574" y2="80.7351">
		<stop  offset="0" style="stop-color:#010101"/>
		<stop  offset="1" style="stop-color:#1B1C1C"/>
	</linearGradient>
	<path fill="url(#SVGID_7_)" d="M48.7,75.9c-0.1-0.5-0.2-1-0.3-1.4c0,0-0.2,0.1-0.5,0.2c-1.3,0.5-4.9,1.7-11.3,1.7
		c-5.8,0-9.9-1.2-11.3-1.7c-0.3-0.1-0.5-0.2-0.5-0.2c-0.1,0.5-0.2,0.9-0.3,1.4c-0.9,4.5-0.5,8.9-0.5,8.9s2.6,1.2,6.2,1.8
		c2.8,0.5,9.9,0.5,12.7,0c3.7-0.7,6.2-1.8,6.2-1.8S49.6,80.5,48.7,75.9z M48.3,83.6c0,0-2.4,1.2-5.8,1.8c-2.6,0.5-9.2,0.5-11.9,0
		c-3.4-0.7-5.8-1.8-5.8-1.8s-0.3-3.5,0.2-7.6c2.2,0.6,6.2,1.4,11.5,1.4c5.7,0,9.5-0.8,11.5-1.3C48.6,80.1,48.3,83.6,48.3,83.6z"/>
	<linearGradient id="SVGID_8_" gradientUnits="userSpaceOnUse" x1="24.7003" y1="80.9382" x2="48.3677" y2="80.9382">
		<stop  offset="0" style="stop-color:#373C3A"/>
		<stop  offset="1" style="stop-color:#1B1C1C"/>
	</linearGradient>
	<path fill="url(#SVGID_8_)" d="M25,76.1c-0.6,4-0.2,7.6-0.2,7.6s2.4,1.2,5.8,1.8c2.6,0.5,9.2,0.5,11.9,0c3.4-0.7,5.8-1.8,5.8-1.8
		s0.3-3.5-0.2-7.5c-2,0.6-5.8,1.3-11.5,1.3C31.2,77.4,27.2,76.6,25,76.1z"/>
	<g>
		<linearGradient id="SVGID_9_" gradientUnits="userSpaceOnUse" x1="20.3379" y1="46.6238" x2="23.3019" y2="46.6238">
			<stop  offset="0" style="stop-color:#373C3A"/>
			<stop  offset="1" style="stop-color:#1B1C1C"/>
		</linearGradient>
		<path fill="url(#SVGID_9_)" d="M20.8,58.2l2.5,0.9l-0.4-11.4l-2.4-13.5c0,0-0.2,3.5,0,8.5c0.1,3.1,0.5,7.5,0.5,10.3
			C20.9,55.5,20.8,57.3,20.8,58.2z"/>
		<linearGradient id="SVGID_10_" gradientUnits="userSpaceOnUse" x1="49.7653" y1="46.6238" x2="52.7296" y2="46.6238">
			<stop  offset="0" style="stop-color:#373C3A"/>
			<stop  offset="1" style="stop-color:#1B1C1C"/>
		</linearGradient>
		<path fill="url(#SVGID_10_)" d="M52.3,58.2l-2.5,0.9l0.4-11.4l2.4-13.5c0,0,0.2,3.5,0,8.5c-0.1,3.1-0.5,7.5-0.5,10.3
			C52.1,55.5,52.2,57.3,52.3,58.2z"/>
	</g>
	<g>
		<linearGradient id="SVGID_11_" gradientUnits="userSpaceOnUse" x1="20.5489" y1="67.6419" x2="23.6136" y2="67.6419">
			<stop  offset="0" style="stop-color:#373C3A"/>
			<stop  offset="1" style="stop-color:#1B1C1C"/>
		</linearGradient>
		<path fill="url(#SVGID_11_)" d="M20.7,59.3l2.6,1.1l0.3,9.6c0,0-0.2,1.2-1.2,3.1c-1.1,2.2-1.7,2.9-1.7,2.9S20.4,62.9,20.7,59.3z"
			/>
		<linearGradient id="SVGID_12_" gradientUnits="userSpaceOnUse" x1="49.4543" y1="67.6419" x2="52.5185" y2="67.6419">
			<stop  offset="0" style="stop-color:#373C3A"/>
			<stop  offset="1" style="stop-color:#1B1C1C"/>
		</linearGradient>
		<path fill="url(#SVGID_12_)" d="M52.4,59.3l-2.6,1.1L49.5,70c0,0,0.2,1.2,1.2,3.1c1.1,2.2,1.7,2.9,1.7,2.9S52.7,62.9,52.4,59.3z"
			/>
	</g>
	<g>
		
			<radialGradient id="SVGID_13_" cx="23.6246" cy="14.5208" r="2.8845" gradientTransform="matrix(1 0 0 1.0473 0 -1.5614)" gradientUnits="userSpaceOnUse">
			<stop  offset="0" style="stop-color:#FFFFFF"/>
			<stop  offset="1" style="stop-color:#D3D6D5"/>
		</radialGradient>
		<path fill="url(#SVGID_13_)" d="M21.8,15.8l4.4-3.2c0.5-0.3,0.7-0.8,0.8-1.4c-1.2,0.4-2.3,1-3.1,1.6c-1.5,1.2-2.7,2.2-3.6,3.3
			C20.8,16.2,21.3,16.1,21.8,15.8z"/>
		
			<radialGradient id="SVGID_14_" cx="49.4428" cy="14.5208" r="2.8844" gradientTransform="matrix(1 0 0 1.0473 0 -1.5614)" gradientUnits="userSpaceOnUse">
			<stop  offset="0" style="stop-color:#FFFFFF"/>
			<stop  offset="1" style="stop-color:#D3D6D5"/>
		</radialGradient>
		<path fill="url(#SVGID_14_)" d="M46.9,12.6l4.4,3.2c0.5,0.3,1,0.4,1.5,0.3c-0.9-1.1-2-2-3.6-3.3c-0.8-0.6-1.9-1.2-3.1-1.6
			C46.2,11.7,46.5,12.2,46.9,12.6z"/>
	</g>
	<path fill="#941B1E" d="M26.1,91.1c-1.7,0.3-2.5-0.7-4-0.7c-0.3,0-0.5,0.1-0.7,0.1c1.6,1,4,1.6,6.4,2
		C27.6,91.9,27.2,90.9,26.1,91.1z"/>
	<path fill="#941B1E" d="M46.2,91.1c-1.2-0.2-1.6,0.9-1.7,1.5c2.5-0.3,5-0.9,6.7-1.9c-0.2-0.2-0.6-0.4-1-0.4
		C48.7,90.4,47.9,91.4,46.2,91.1z"/>
	<linearGradient id="SVGID_15_" gradientUnits="userSpaceOnUse" x1="24.9263" y1="27.9114" x2="29.1402" y2="14.6955">
		<stop  offset="0" style="stop-color:#D2DBDA"/>
		<stop  offset="1" style="stop-color:#B5B6B6"/>
	</linearGradient>
	<path fill="url(#SVGID_15_)" d="M24.4,29.7c0,0,3-5.4,3.4-7.4c0.3-1.5-0.2-6.2-0.2-6.2s-0.3,4.5-0.6,6
		C26.5,24.1,24.4,29.7,24.4,29.7z"/>
	<linearGradient id="SVGID_16_" gradientUnits="userSpaceOnUse" x1="47.8015" y1="28.6945" x2="44.4475" y2="15.374">
		<stop  offset="0" style="stop-color:#D2DBDA"/>
		<stop  offset="1" style="stop-color:#B5B6B6"/>
	</linearGradient>
	<path fill="url(#SVGID_16_)" d="M48.7,29.7c0,0-3-5.4-3.4-7.4c-0.3-1.5,0.2-6.2,0.2-6.2s0.3,4.5,0.6,6
		C46.6,24.1,48.7,29.7,48.7,29.7z"/>
	<linearGradient id="SVGID_17_" gradientUnits="userSpaceOnUse" x1="36.4748" y1="35.3425" x2="44.895" y2="41.3298">
		<stop  offset="0" style="stop-color:#373C3A"/>
		<stop  offset="1" style="stop-color:#010101"/>
	</linearGradient>
	<path fill="url(#SVGID_17_)" d="M50.6,33.9c-1.2-0.5-3.2-1.4-6.4-2c-1.1-0.2-2.3-0.4-3.6-0.6c-3.2,3.5-7,9.8-8.6,12.4
		c3.7-0.2,9-0.1,11.7,0.2c3,0.4,5.2,1.3,6,1.6l1.9-11.1C51.4,34.3,51.1,34.1,50.6,33.9z"/>
	<linearGradient id="SVGID_18_" gradientUnits="userSpaceOnUse" x1="28.1082" y1="45.4736" x2="60.7997" y2="99.1329">
		<stop  offset="0" style="stop-color:#F7F8F8"/>
		<stop  offset="1" style="stop-color:#DCDBDB"/>
	</linearGradient>
	<path fill="url(#SVGID_18_)" d="M36.5,46c-9.3-0.2-12.5,1.5-12.5,1.5s0.1,22.6,0.8,24.9c0.5,1.5,6.4,2.2,10.1,2.5h3.1
		c3.7-0.3,9.6-1,10.1-2.5c0.7-2.2,0.8-24.9,0.8-24.9S45.9,45.8,36.5,46z"/>
	<linearGradient id="SVGID_19_" gradientUnits="userSpaceOnUse" x1="32.165" y1="80.3359" x2="47.7407" y2="105.9013">
		<stop  offset="0" style="stop-color:#F7F8F8"/>
		<stop  offset="1" style="stop-color:#DCDBDB"/>
	</linearGradient>
	<path fill="url(#SVGID_19_)" d="M38.2,90.4c9.1-0.3,13.1-2.9,13.1-2.9l-1.8-2.2c-5.7,3.2-12.9,2.5-12.9,2.5l0,0
		c0,0-7.3,0.6-12.9-2.5l-1.8,2.2c0,0,4,2.6,13.1,2.9c0.5,0,1.6,0,1.6,0h0C37.1,90.4,37.7,90.4,38.2,90.4z"/>
	<linearGradient id="SVGID_20_" gradientUnits="userSpaceOnUse" x1="16.846" y1="5.6575" x2="24.8745" y2="28.776">
		<stop  offset="0" style="stop-color:#F7F8F8"/>
		<stop  offset="1" style="stop-color:#DCDBDB"/>
	</linearGradient>
	<path fill="url(#SVGID_20_)" d="M26.1,13.3c0,0-5.6,2.8-6.2,9.2c-0.6,6.4-0.5,9.7-0.5,9.7S21.3,16.7,26.1,13.3z"/>
	
		<linearGradient id="SVGID_21_" gradientUnits="userSpaceOnUse" x1="48.4499" y1="5.6576" x2="56.4783" y2="28.776" gradientTransform="matrix(-1 0 0 1 104.7031 0)">
		<stop  offset="0" style="stop-color:#F7F8F8"/>
		<stop  offset="1" style="stop-color:#DCDBDB"/>
	</linearGradient>
	<path fill="url(#SVGID_21_)" d="M47,13.3c0,0,5.6,2.8,6.2,9.2c0.6,6.4,0.5,9.7,0.5,9.7S51.8,16.7,47,13.3z"/>
	<g>
		<linearGradient id="SVGID_22_" gradientUnits="userSpaceOnUse" x1="52.1926" y1="35.4866" x2="55.4266" y2="41.7482">
			<stop  offset="0" style="stop-color:#373C3A"/>
			<stop  offset="1" style="stop-color:#1B1C1C"/>
		</linearGradient>
		<path fill="url(#SVGID_22_)" d="M52.5,35c0,0,1.5,0.3,1.5,1.5c0,1.2-1.5,3.8-1.5,2.2C52.5,37.1,52.4,35.5,52.5,35z"/>
		<linearGradient id="SVGID_23_" gradientUnits="userSpaceOnUse" x1="53.4657" y1="37.3709" x2="57.744" y2="37.3709">
			<stop  offset="0" style="stop-color:#FFFFFF"/>
			<stop  offset="1" style="stop-color:#D3D6D5"/>
		</linearGradient>
		<path fill="url(#SVGID_23_)" d="M57.6,37.7c-0.3-0.4-3.3-1.3-3.3-1.3c-0.6-0.2-0.8,0.3-0.8,0.8l4.2,1.3
			C57.8,38.2,57.8,38,57.6,37.7z"/>
		<linearGradient id="SVGID_24_" gradientUnits="userSpaceOnUse" x1="53.4662" y1="37.9122" x2="57.7442" y2="37.9122">
			<stop  offset="0" style="stop-color:#373C3A"/>
			<stop  offset="1" style="stop-color:#1B1C1C"/>
		</linearGradient>
		<path fill="url(#SVGID_24_)" d="M53.5,37.1c0,0.3,0,0.5,0,0.5l4.1,1c0,0,0.1-0.1,0.1-0.3L53.5,37.1z"/>
	</g>
	<g>
		<linearGradient id="SVGID_25_" gradientUnits="userSpaceOnUse" x1="19.758" y1="36.0409" x2="22.5791" y2="42.2334">
			<stop  offset="0" style="stop-color:#373C3A"/>
			<stop  offset="1" style="stop-color:#1B1C1C"/>
		</linearGradient>
		<path fill="url(#SVGID_25_)" d="M20.5,34.9c0,0-1.6,0.3-1.6,1.5c0,1.2,1.6,3.8,1.6,2.2C20.6,37,20.7,35.4,20.5,34.9z"/>
		<linearGradient id="SVGID_26_" gradientUnits="userSpaceOnUse" x1="15.3107" y1="37.3133" x2="19.5887" y2="37.3133">
			<stop  offset="0" style="stop-color:#D3D6D5"/>
			<stop  offset="1" style="stop-color:#FFFFFF"/>
		</linearGradient>
		<path fill="url(#SVGID_26_)" d="M18.7,36.3c0,0-2.9,0.9-3.3,1.3c-0.2,0.3-0.2,0.6-0.1,0.8l4.2-1.3C19.5,36.6,19.3,36.1,18.7,36.3z
			"/>
		<linearGradient id="SVGID_27_" gradientUnits="userSpaceOnUse" x1="15.3105" y1="37.8507" x2="19.5882" y2="37.8507">
			<stop  offset="0" style="stop-color:#373C3A"/>
			<stop  offset="1" style="stop-color:#1B1C1C"/>
		</linearGradient>
		<path fill="url(#SVGID_27_)" d="M15.4,38.4c0,0.1,0.1,0.2,0.1,0.2l4.1-1c0,0,0-0.2,0-0.5L15.4,38.4z"/>
	</g>
	<path fill="#5A5A5A" d="M18.8,51.4c-0.2,0-0.4,0.2-0.4,0.4V55c0,0.2,0.2,0.4,0.4,0.4V51.4z"/>
	<path fill="#5A5A5A" d="M18.6,67.5c-0.2,0-0.4,0.2-0.4,0.4v3.2c0,0.2,0.2,0.4,0.4,0.4V67.5z"/>
	<path fill="#5A5A5A" d="M54.3,51.4c0.2,0,0.4,0.2,0.4,0.4V55c0,0.2-0.2,0.4-0.4,0.4V51.4z"/>
	<path fill="#5A5A5A" d="M54.5,67.5c0.2,0,0.4,0.2,0.4,0.4v3.2c0,0.2-0.2,0.4-0.4,0.4V67.5z"/>
	<g>
		<g>
			<g>
				<path fill="#9E9E9E" d="M28.1,28.6c0.6,0,0.9-0.4,1.6-0.5c0.1,0,0.1,0,0.1-0.1c0-0.1,0-0.1-0.1-0.1c-0.6,0-0.9,0.4-1.6,0.5
					C28,28.4,28,28.4,28.1,28.6C28,28.5,28,28.6,28.1,28.6z"/>
				<path fill="#9E9E9E" d="M29.7,28.3c-0.6,0-0.9,0.4-1.6,0.5c-0.1,0-0.1,0-0.1,0.1c0,0.1,0,0.1,0.1,0.1c0.6,0,0.9-0.4,1.6-0.5
					C29.7,28.5,29.7,28.5,29.7,28.3C29.7,28.4,29.7,28.3,29.7,28.3z"/>
				<path fill="#9E9E9E" d="M29.7,28.7c-0.6,0-0.9,0.4-1.6,0.5c-0.1,0-0.1,0-0.1,0.1c0,0.1,0,0.1,0.1,0.1c0.6,0,0.9-0.4,1.6-0.5
					C29.7,28.9,29.7,28.8,29.7,28.7C29.7,28.7,29.7,28.7,29.7,28.7z"/>
			</g>
		</g>
		<g>
			<g>
				<path fill="#9E9E9E" d="M45,28.6c-0.6,0-0.9-0.4-1.6-0.5c-0.1,0-0.1,0-0.1-0.1c0-0.1,0-0.1,0.1-0.1c0.6,0,0.9,0.4,1.6,0.5
					C45,28.4,45.1,28.4,45,28.6C45.1,28.5,45,28.6,45,28.6z"/>
				<path fill="#9E9E9E" d="M43.4,28.3c0.6,0,0.9,0.4,1.6,0.5c0.1,0,0.1,0,0.1,0.1c0,0.1,0,0.1-0.1,0.1c-0.6,0-0.9-0.4-1.6-0.5
					C43.4,28.5,43.3,28.5,43.4,28.3C43.3,28.4,43.4,28.3,43.4,28.3z"/>
				<path fill="#9E9E9E" d="M43.4,28.7c0.6,0,0.9,0.4,1.6,0.5c0.1,0,0.1,0,0.1,0.1c0,0.1,0,0.1-0.1,0.1c-0.6,0-0.9-0.4-1.6-0.5
					C43.4,28.9,43.3,28.8,43.4,28.7C43.3,28.7,43.4,28.7,43.4,28.7z"/>
			</g>
		</g>
	</g>
	<linearGradient id="SVGID_28_" gradientUnits="userSpaceOnUse" x1="30.7755" y1="92.8248" x2="42.2792" y2="92.8248">
		<stop  offset="0" style="stop-color:#373C3A"/>
		<stop  offset="1" style="stop-color:#1B1C1C"/>
	</linearGradient>
	<path fill="url(#SVGID_28_)" d="M41.6,92.5H31.5c-0.3,0-0.6,0.1-0.7,0.4c3.2,0.3,5.8,0.2,5.8,0.2c0,0,2.6,0,5.7-0.2
		C42.1,92.7,41.9,92.5,41.6,92.5z"/>
	<linearGradient id="SVGID_29_" gradientUnits="userSpaceOnUse" x1="30.7626" y1="69.6437" x2="37.0033" y2="79.2134">
		<stop  offset="0" style="stop-color:#373C3A"/>
		<stop  offset="1" style="stop-color:#010101"/>
	</linearGradient>
	<path fill="url(#SVGID_29_)" d="M48,76.1c-2,0.6-5.8,1.3-11.5,1.3c-1.2,0-2.3,0-3.3-0.1c-3.3,1.5-5.3,6.1-5.7,7.3
		c0.9,0.3,1.9,0.6,3.1,0.8c2.6,0.5,9.2,0.5,11.9,0c3.4-0.7,5.8-1.8,5.8-1.8S48.6,80.1,48,76.1z"/>
</g>
</svg>
