<?xml version="1.0" encoding="utf-8"?>
<!-- Generator: Adobe Illustrator 18.0.0, SVG Export Plug-In . SVG Version: 6.00 Build 0)  -->
<!DOCTYPE svg PUBLIC "-//W3C//DTD SVG 1.1//EN" "http://www.w3.org/Graphics/SVG/1.1/DTD/svg11.dtd">
<svg version="1.1" id="Layer_1" xmlns="http://www.w3.org/2000/svg" xmlns:xlink="http://www.w3.org/1999/xlink" x="0px" y="0px"
	 viewBox="0 0 75 100" enable-background="new 0 0 75 100" xml:space="preserve">
<g>
	<path opacity="0.3" fill="#010101" d="M59.5,21c-0.7-6.5-2-7-5.2-10c-4.4-4.1-18.1-4.1-22.5,0c-3.2,3-4.6,3.5-5.2,10
		c-1,9.9-0.4,25.5-0.4,29.3c-0.2,20.5,0.7,32.9,1.9,37.3c1.4,5,15,4.7,15,4.7c0,0,13.6,0.3,15-4.7c1.2-4.3,2.1-16.8,1.9-37.3
		C59.9,46.5,60.5,30.9,59.5,21z"/>
	<radialGradient id="SVGID_1_" cx="37.1943" cy="53.1285" r="31.1525" gradientUnits="userSpaceOnUse">
		<stop  offset="0" style="stop-color:#FDBA12"/>
		<stop  offset="1" style="stop-color:#F9A11B"/>
	</radialGradient>
	<path fill="url(#SVGID_1_)" d="M54.7,24.5c-0.4-3.6-1-5.5-2.2-7c-0.5,0.1-1,0-1.4-0.3L47,14.5c-0.4-0.3-0.7-0.8-0.8-1.4
		C46,13.1,45.8,13,45.6,13v3.5H28.8V13c-0.2,0.1-0.4,0.1-0.6,0.2c-0.1,0.5-0.3,1-0.8,1.4l-4.1,2.6c-0.4,0.3-0.9,0.4-1.4,0.3
		c-1.1,1.5-1.8,3.4-2.2,7c-1.1,9.6-0.3,24.7-0.4,28.4C19.1,72.7,20,84.8,21.2,89c0.2,0.8,0.8,1.4,1.7,2c0.2-0.1,0.4-0.1,0.7-0.1
		c1.5,0,2.2,1,3.8,0.7c1.1-0.2,1.4,0.7,1.6,1.4c1,0.2,1.9,0.3,2.8,0.4c0.1-0.2,0.4-0.4,0.7-0.4h9.5c0.3,0,0.5,0.1,0.7,0.4
		c0.7-0.1,1.4-0.1,2.1-0.2c0.1-0.7,0.4-1.7,1.6-1.5c1.6,0.3,2.3-0.7,3.8-0.7c0.5,0,0.8,0.2,1,0.4c1-0.6,1.8-1.3,2-2.2
		c1.3-4.2,2.2-16.3,1.9-36.1C55,49.2,55.8,34.1,54.7,24.5z"/>
	<linearGradient id="SVGID_2_" gradientUnits="userSpaceOnUse" x1="28.7557" y1="14.0964" x2="45.6324" y2="14.0964">
		<stop  offset="0" style="stop-color:#535A57"/>
		<stop  offset="1" style="stop-color:#2D2E2E"/>
	</linearGradient>
	<path fill="url(#SVGID_2_)" d="M45.6,16.4V13c-4.8-1.6-12.1-1.6-16.9,0v3.5H45.6z"/>
	
		<radialGradient id="SVGID_3_" cx="37.1942" cy="-5907.416" r="17.5773" gradientTransform="matrix(1 0 0 4.0177 0 23786.4336)" gradientUnits="userSpaceOnUse">
		<stop  offset="0" style="stop-color:#FDE700"/>
		<stop  offset="1" style="stop-color:#FFC554"/>
	</radialGradient>
	<path fill="url(#SVGID_3_)" d="M53.6,25.1c-0.7-6-2-6.5-5.2-9.3c-4.4-3.8-18.1-3.8-22.5,0c-3.2,2.8-4.6,3.3-5.2,9.3
		c-1,9.2-0.4,23.8-0.4,27.4c-0.2,19.1,0.7,30.7,1.9,34.7c1.4,4.6,15,4.4,15,4.4c0,0,13.6,0.3,15-4.4c1.2-4,2.1-15.6,1.9-34.7
		C54,48.8,54.6,34.3,53.6,25.1z"/>
	<linearGradient id="SVGID_4_" gradientUnits="userSpaceOnUse" x1="24.8383" y1="46.2872" x2="49.5504" y2="46.2872">
		<stop  offset="0" style="stop-color:#010101"/>
		<stop  offset="1" style="stop-color:#1B1C1C"/>
	</linearGradient>
	<path fill="url(#SVGID_4_)" d="M30.5,45c-2.8,0.4-4.9,1.2-5.6,1.6l0.2,1.3c0,0,2.2-1.2,5.7-1.7c3-0.5,9.8-0.5,12.8,0
		c3.5,0.5,5.7,1.7,5.7,1.7l0.2-1.3c-0.8-0.3-2.8-1.2-5.6-1.6C40.8,44.5,33.6,44.5,30.5,45z"/>
	<linearGradient id="SVGID_5_" gradientUnits="userSpaceOnUse" x1="22.8867" y1="33.3181" x2="51.5019" y2="33.3181">
		<stop  offset="0" style="stop-color:#010101"/>
		<stop  offset="1" style="stop-color:#1B1C1C"/>
	</linearGradient>
	<path fill="url(#SVGID_5_)" d="M24,35.1c1.1-0.5,3-1.3,6-2c4.3-1,10.1-1,14.4,0c3,0.7,4.9,1.5,6,2c0.5,0.2,0.8,0.4,0.9,0.6l0,0
		c0,0,0.2-1,0.1-1.2c-0.1-0.2-0.4-0.4-1-0.7c-1.1-0.5-3-1.3-6-2c-4.3-1-10.1-1-14.4,0c-3,0.7-4.9,1.5-6,2c-0.6,0.3-0.9,0.5-1,0.7
		c-0.1,0.3,0.1,1.2,0.1,1.2l0,0C23.2,35.5,23.5,35.3,24,35.1z"/>
	<linearGradient id="SVGID_6_" gradientUnits="userSpaceOnUse" x1="23.011" y1="39.4591" x2="51.3785" y2="39.4591">
		<stop  offset="0" style="stop-color:#373C3A"/>
		<stop  offset="1" style="stop-color:#1B1C1C"/>
	</linearGradient>
	<path fill="url(#SVGID_6_)" d="M30.5,45c3.1-0.5,10.3-0.5,13.4,0c2.9,0.4,4.9,1.2,5.6,1.6l1.8-10.9c-0.2-0.2-0.5-0.4-0.9-0.6
		c-1.1-0.5-3-1.3-6-2c-4.3-1-10.1-1-14.4,0c-3,0.7-4.9,1.5-6,2c-0.5,0.2-0.8,0.4-0.9,0.6l1.8,10.9C25.6,46.3,27.6,45.4,30.5,45z"/>
	<linearGradient id="SVGID_7_" gradientUnits="userSpaceOnUse" x1="25.191" y1="81.3059" x2="49.1975" y2="81.3059">
		<stop  offset="0" style="stop-color:#010101"/>
		<stop  offset="1" style="stop-color:#1B1C1C"/>
	</linearGradient>
	<path fill="url(#SVGID_7_)" d="M48.6,76.6c-0.1-0.5-0.2-0.9-0.3-1.4c0,0-0.2,0.1-0.5,0.2c-1.2,0.5-4.6,1.7-10.6,1.7
		c-5.5,0-9.3-1.2-10.6-1.7c-0.3-0.1-0.5-0.2-0.5-0.2c-0.1,0.5-0.2,0.9-0.3,1.4c-0.9,4.5-0.5,8.8-0.5,8.8s2.4,1.1,5.9,1.8
		c2.7,0.5,9.4,0.5,12,0c3.5-0.7,5.9-1.8,5.9-1.8S49.5,81,48.6,76.6z M48.3,84.1c0,0-2.3,1.1-5.5,1.8c-2.5,0.5-8.7,0.5-11.2,0
		c-3.2-0.7-5.5-1.8-5.5-1.8s-0.3-3.5,0.2-7.5c2,0.6,5.8,1.4,10.8,1.4c5.4,0,9-0.7,10.9-1.3C48.6,80.7,48.3,84.1,48.3,84.1z"/>
	<linearGradient id="SVGID_8_" gradientUnits="userSpaceOnUse" x1="26.0306" y1="81.5067" x2="48.3581" y2="81.5067">
		<stop  offset="0" style="stop-color:#373C3A"/>
		<stop  offset="1" style="stop-color:#1B1C1C"/>
	</linearGradient>
	<path fill="url(#SVGID_8_)" d="M26.3,76.7c-0.5,4-0.2,7.5-0.2,7.5s2.3,1.1,5.5,1.8c2.5,0.5,8.7,0.5,11.2,0c3.2-0.7,5.5-1.8,5.5-1.8
		s0.3-3.5-0.2-7.4c-1.9,0.6-5.4,1.3-10.9,1.3C32.2,78,28.4,77.2,26.3,76.7z"/>
	<g>
		<linearGradient id="SVGID_9_" gradientUnits="userSpaceOnUse" x1="21.9151" y1="47.6262" x2="24.7111" y2="47.6262">
			<stop  offset="0" style="stop-color:#373C3A"/>
			<stop  offset="1" style="stop-color:#1B1C1C"/>
		</linearGradient>
		<path fill="url(#SVGID_9_)" d="M22.3,59.1l2.4,0.9l-0.4-11.3L22,35.3c0,0-0.2,3.4,0,8.3c0.1,3.1,0.5,7.4,0.5,10.2
			C22.5,56.4,22.4,58.2,22.3,59.1z"/>
		<linearGradient id="SVGID_10_" gradientUnits="userSpaceOnUse" x1="49.6769" y1="47.6262" x2="52.4736" y2="47.6262">
			<stop  offset="0" style="stop-color:#373C3A"/>
			<stop  offset="1" style="stop-color:#1B1C1C"/>
		</linearGradient>
		<path fill="url(#SVGID_10_)" d="M52.1,59.1L49.7,60l0.4-11.3l2.3-13.4c0,0,0.2,3.4,0,8.3c-0.1,3.1-0.5,7.4-0.5,10.2
			C51.9,56.4,52,58.2,52.1,59.1z"/>
	</g>
	<g>
		<linearGradient id="SVGID_11_" gradientUnits="userSpaceOnUse" x1="22.1139" y1="68.3783" x2="25.0056" y2="68.3783">
			<stop  offset="0" style="stop-color:#373C3A"/>
			<stop  offset="1" style="stop-color:#1B1C1C"/>
		</linearGradient>
		<path fill="url(#SVGID_11_)" d="M22.2,60.1l2.5,1.1l0.3,9.4c0,0-0.2,1.2-1.1,3.1c-1.1,2.2-1.6,2.8-1.6,2.8S22,63.7,22.2,60.1z"/>
		<linearGradient id="SVGID_12_" gradientUnits="userSpaceOnUse" x1="49.3832" y1="68.3783" x2="52.2739" y2="68.3783">
			<stop  offset="0" style="stop-color:#373C3A"/>
			<stop  offset="1" style="stop-color:#1B1C1C"/>
		</linearGradient>
		<path fill="url(#SVGID_12_)" d="M52.2,60.1l-2.5,1.1l-0.3,9.4c0,0,0.2,1.2,1.1,3.1c1.1,2.2,1.6,2.8,1.6,2.8S52.4,63.7,52.2,60.1z"
			/>
	</g>
	<g>
		
			<radialGradient id="SVGID_13_" cx="25.0163" cy="12.4462" r="2.6262" gradientTransform="matrix(1 0 0 1.0961 0 1.6884)" gradientUnits="userSpaceOnUse">
			<stop  offset="0" style="stop-color:#FFFFFF"/>
			<stop  offset="1" style="stop-color:#D3D6D5"/>
		</radialGradient>
		<path fill="url(#SVGID_13_)" d="M23.3,17.1l4.1-2.6c0.4-0.3,0.7-0.8,0.8-1.4c-1.2,0.4-2.2,1-2.9,1.6c-1.4,1.2-2.5,1.6-3.4,2.7
			C22.3,17.6,22.9,17.5,23.3,17.1z"/>
		
			<radialGradient id="SVGID_14_" cx="49.3724" cy="12.4462" r="2.6262" gradientTransform="matrix(1 0 0 1.0961 0 1.6884)" gradientUnits="userSpaceOnUse">
			<stop  offset="0" style="stop-color:#FFFFFF"/>
			<stop  offset="1" style="stop-color:#D3D6D5"/>
		</radialGradient>
		<path fill="url(#SVGID_14_)" d="M47,14.5l4.1,2.6c0.4,0.3,0.9,0.4,1.4,0.3c-0.8-1.1-1.9-1.5-3.4-2.7c-0.7-0.6-1.8-1.2-2.9-1.6
			C46.3,13.7,46.6,14.2,47,14.5z"/>
	</g>
	<path fill="#F15B2B" d="M27.4,91.6c-1.6,0.3-2.3-0.7-3.8-0.7c-0.3,0-0.5,0.1-0.7,0.1c1.5,1,3.7,1.6,6,2
		C28.8,92.3,28.4,91.4,27.4,91.6z"/>
	<path fill="#F15B2B" d="M46.3,91.6c-1.1-0.2-1.5,0.9-1.6,1.5c2.3-0.3,4.7-0.9,6.4-1.8c-0.2-0.2-0.5-0.4-1-0.4
		C48.6,90.8,47.9,91.8,46.3,91.6z"/>
	<linearGradient id="SVGID_15_" gradientUnits="userSpaceOnUse" x1="37.0434" y1="36.5826" x2="45.1301" y2="42.3328">
		<stop  offset="0" style="stop-color:#373C3A"/>
		<stop  offset="1" style="stop-color:#010101"/>
	</linearGradient>
	<path fill="url(#SVGID_15_)" d="M50.4,35.1c-1.1-0.5-3-1.3-6-2c-1.1-0.2-2.2-0.4-3.4-0.5c-3,3.4-6.6,9.6-8.1,12.3
		c3.5-0.2,8.5-0.1,11,0.2c2.9,0.4,4.9,1.2,5.6,1.6l1.8-10.9C51.2,35.5,50.9,35.3,50.4,35.1z"/>
	<linearGradient id="SVGID_16_" gradientUnits="userSpaceOnUse" x1="25.4258" y1="61.2737" x2="48.9629" y2="61.2737">
		<stop  offset="0" style="stop-color:#FAF06A"/>
		<stop  offset="1" style="stop-color:#FFC554"/>
	</linearGradient>
	<path fill="url(#SVGID_16_)" d="M37.2,47c-8.8-0.2-11.8,1.5-11.8,1.5s0.1,22.3,0.8,24.6c0.5,1.5,6,2.2,9.5,2.4h2.9
		c3.5-0.3,9.1-0.9,9.5-2.4c0.7-2.2,0.8-24.6,0.8-24.6S46,46.8,37.2,47z"/>
	<linearGradient id="SVGID_17_" gradientUnits="userSpaceOnUse" x1="33.0313" y1="81.1582" x2="47.8044" y2="105.4064">
		<stop  offset="0" style="stop-color:#FAF06A"/>
		<stop  offset="1" style="stop-color:#FFC554"/>
	</linearGradient>
	<path fill="url(#SVGID_17_)" d="M38.7,90.8c8.6-0.3,12.3-2.8,12.3-2.8l-1.7-2.1C44,89,37.2,88.3,37.2,88.3l0,0
		c0,0-6.8,0.6-12.2-2.5L23.3,88c0,0,3.8,2.5,12.3,2.8c0.4,0,1.5,0,1.5,0l0,0C37.8,90.8,38.3,90.8,38.7,90.8z"/>
	<path fill="#484848" d="M27.4,15.2c0,0-5.3,2.3-5.9,8.5c-0.6,6.4-0.5,9.6-0.5,9.6S22.8,18.6,27.4,15.2z"/>
	<path fill="#484848" d="M47,15.2c0,0,5.3,2.3,5.9,8.5c0.6,6.4,0.5,9.6,0.5,9.6S51.6,18.6,47,15.2z"/>
	<linearGradient id="SVGID_18_" gradientUnits="userSpaceOnUse" x1="51.9271" y1="36.6422" x2="55.1147" y2="42.814">
		<stop  offset="0" style="stop-color:#373C3A"/>
		<stop  offset="1" style="stop-color:#1B1C1C"/>
	</linearGradient>
	<path fill="url(#SVGID_18_)" d="M52.3,36.1c0,0,1.4,0.3,1.4,1.5c0,1.2-1.4,3.7-1.4,2.2C52.3,38.2,52.2,36.6,52.3,36.1z"/>
	<radialGradient id="SVGID_19_" cx="55.2017" cy="38.4902" r="1.591" gradientUnits="userSpaceOnUse">
		<stop  offset="0" style="stop-color:#FDBA12"/>
		<stop  offset="1" style="stop-color:#F9A11B"/>
	</radialGradient>
	<path fill="url(#SVGID_19_)" d="M57.1,38.8c-0.3-0.4-3.1-1.3-3.1-1.3c-0.5-0.2-0.7,0.3-0.8,0.8l4,1.3
		C57.2,39.3,57.2,39.1,57.1,38.8z"/>
	<linearGradient id="SVGID_20_" gradientUnits="userSpaceOnUse" x1="53.1686" y1="39.0247" x2="57.2038" y2="39.0247">
		<stop  offset="0" style="stop-color:#373C3A"/>
		<stop  offset="1" style="stop-color:#1B1C1C"/>
	</linearGradient>
	<path fill="url(#SVGID_20_)" d="M53.2,38.3c0,0.3,0,0.5,0,0.5l3.9,1c0,0,0.1-0.1,0.1-0.3L53.2,38.3z"/>
	<linearGradient id="SVGID_21_" gradientUnits="userSpaceOnUse" x1="21.3595" y1="37.175" x2="24.1399" y2="43.2782">
		<stop  offset="0" style="stop-color:#373C3A"/>
		<stop  offset="1" style="stop-color:#1B1C1C"/>
	</linearGradient>
	<path fill="url(#SVGID_21_)" d="M22.1,36c0,0-1.5,0.3-1.5,1.5c0,1.2,1.5,3.7,1.5,2.2C22.1,38.1,22.2,36.5,22.1,36z"/>
	<radialGradient id="SVGID_22_" cx="19.1777" cy="38.4335" r="1.6025" gradientUnits="userSpaceOnUse">
		<stop  offset="0" style="stop-color:#FDBA12"/>
		<stop  offset="1" style="stop-color:#F9A11B"/>
	</radialGradient>
	<path fill="url(#SVGID_22_)" d="M20.4,37.4c0,0-2.8,0.9-3.1,1.3c-0.2,0.3-0.1,0.5-0.1,0.7l4-1.3C21.1,37.8,20.9,37.2,20.4,37.4z"/>
	<linearGradient id="SVGID_23_" gradientUnits="userSpaceOnUse" x1="17.1721" y1="38.964" x2="21.2082" y2="38.964">
		<stop  offset="0" style="stop-color:#373C3A"/>
		<stop  offset="1" style="stop-color:#1B1C1C"/>
	</linearGradient>
	<path fill="url(#SVGID_23_)" d="M17.2,39.5c0,0.1,0.1,0.2,0.1,0.2l3.9-1c0,0,0-0.2,0-0.5L17.2,39.5z"/>
	<path fill="#5A5A5A" d="M19.4,52.3c-0.2,0-0.4,0.2-0.4,0.4v3.2c0,0.2,0.2,0.4,0.4,0.4V52.3z"/>
	<path fill="#5A5A5A" d="M19.5,68.2c-0.2,0-0.4,0.2-0.4,0.4v3.2c0,0.2,0.2,0.4,0.4,0.4V68.2z"/>
	<path fill="#5A5A5A" d="M55,52.3c0.2,0,0.4,0.2,0.4,0.4v3.2c0,0.2-0.2,0.4-0.4,0.4V52.3z"/>
	<path fill="#5A5A5A" d="M54.8,68.2c0.2,0,0.4,0.2,0.4,0.4v3.2c0,0.2-0.2,0.4-0.4,0.4V68.2z"/>
	<linearGradient id="SVGID_24_" gradientUnits="userSpaceOnUse" x1="31.762" y1="93.2429" x2="42.6149" y2="93.2429">
		<stop  offset="0" style="stop-color:#373C3A"/>
		<stop  offset="1" style="stop-color:#1B1C1C"/>
	</linearGradient>
	<path fill="url(#SVGID_24_)" d="M41.9,92.9h-9.5c-0.3,0-0.5,0.1-0.7,0.4c3,0.3,5.4,0.2,5.4,0.2c0,0,2.4,0,5.4-0.2
		C42.5,93.1,42.2,92.9,41.9,92.9z"/>
	<linearGradient id="SVGID_25_" gradientUnits="userSpaceOnUse" x1="31.6304" y1="70.6426" x2="37.6171" y2="79.8229">
		<stop  offset="0" style="stop-color:#373C3A"/>
		<stop  offset="1" style="stop-color:#010101"/>
	</linearGradient>
	<path fill="url(#SVGID_25_)" d="M48,76.7c-1.9,0.6-5.4,1.3-10.9,1.3c-1.1,0-2.1,0-3.1-0.1c-3.1,1.5-5,6-5.4,7.2
		c0.8,0.3,1.8,0.6,3,0.8c2.5,0.5,8.7,0.5,11.2,0c3.2-0.7,5.5-1.8,5.5-1.8S48.6,80.7,48,76.7z"/>
	<g>
		<g>
			<path fill="#3C2517" d="M42.5,56.3H31.9v-4h10.6V56.3z M32.4,55.7H42v-3h-9.6V55.7z"/>
		</g>
		<rect x="32.2" y="54.3" fill="#C87029" width="10" height="1.6"/>
		<rect x="32.2" y="52.5" fill="#FBB041" width="10" height="1.6"/>
		<g>
			<rect x="33.9" y="54.6" fill="#3C2517" width="1.3" height="0.6"/>
			<rect x="32.6" y="55.2" fill="#3C2517" width="1.3" height="0.6"/>
			<rect x="40.5" y="55.2" fill="#3C2517" width="1.3" height="0.6"/>
			<polygon fill="#3C2517" points="37.8,54.7 36.5,54.7 36.5,55.3 35.3,55.3 35.3,55.8 36.6,55.8 36.6,55.3 37.8,55.3 37.8,55.9 
				39.1,55.9 39.1,55.3 37.8,55.3 			"/>
			<rect x="39.2" y="54.7" fill="#3C2517" width="1.3" height="0.6"/>
		</g>
		<g>
			<rect x="33.9" y="53.2" fill="#3C2517" width="1.3" height="0.6"/>
			<rect x="32.6" y="52.6" fill="#3C2517" width="1.3" height="0.6"/>
			<rect x="40.5" y="52.6" fill="#3C2517" width="1.3" height="0.6"/>
			<polygon fill="#3C2517" points="37.8,53.8 36.5,53.8 36.5,53.2 35.3,53.2 35.3,52.6 36.6,52.6 36.6,53.2 37.8,53.2 37.8,52.6 
				39.1,52.6 39.1,53.2 37.8,53.2 			"/>
			<rect x="39.2" y="53.2" fill="#3C2517" width="1.3" height="0.6"/>
		</g>
		<rect x="31.9" y="54" fill="#674A3C" width="10.6" height="0.6"/>
	</g>
	
		<radialGradient id="SVGID_26_" cx="62.4719" cy="131.9254" r="3.5719" gradientTransform="matrix(2.312 0 0 0.6091 -107.2389 -27.2275)" gradientUnits="userSpaceOnUse">
		<stop  offset="0" style="stop-color:#FDE700"/>
		<stop  offset="4.330062e-002" style="stop-color:#D8C526"/>
		<stop  offset="0.158" style="stop-color:#908533"/>
		<stop  offset="0.2737" style="stop-color:#5F592E"/>
		<stop  offset="0.3883" style="stop-color:#3F3C25"/>
		<stop  offset="0.5014" style="stop-color:#28271B"/>
		<stop  offset="0.6127" style="stop-color:#15150F"/>
		<stop  offset="0.7213" style="stop-color:#060705"/>
		<stop  offset="0.8242" style="stop-color:#010101"/>
	</radialGradient>
	<ellipse fill="url(#SVGID_26_)" cx="37.2" cy="53.1" rx="8.3" ry="2.2"/>
	
		<radialGradient id="SVGID_27_" cx="62.4719" cy="180.6556" r="3.5809" gradientTransform="matrix(2.312 0 0 0.4905 -107.2389 -33.0714)" gradientUnits="userSpaceOnUse">
		<stop  offset="0" style="stop-color:#FFCA06"/>
		<stop  offset="4.330062e-002" style="stop-color:#D9AD22"/>
		<stop  offset="0.158" style="stop-color:#93772F"/>
		<stop  offset="0.2737" style="stop-color:#61522B"/>
		<stop  offset="0.3883" style="stop-color:#403823"/>
		<stop  offset="0.5014" style="stop-color:#29251A"/>
		<stop  offset="0.6127" style="stop-color:#16140F"/>
		<stop  offset="0.7213" style="stop-color:#070605"/>
		<stop  offset="0.8242" style="stop-color:#010101"/>
	</radialGradient>
	<ellipse fill="url(#SVGID_27_)" cx="37.2" cy="55.5" rx="8.3" ry="1.8"/>
</g>
</svg>
