<?xml version="1.0" encoding="utf-8"?>
<!-- Generator: Adobe Illustrator 18.0.0, SVG Export Plug-In . SVG Version: 6.00 Build 0)  -->
<!DOCTYPE svg PUBLIC "-//W3C//DTD SVG 1.1//EN" "http://www.w3.org/Graphics/SVG/1.1/DTD/svg11.dtd">
<svg version="1.1" id="Layer_1" xmlns="http://www.w3.org/2000/svg" xmlns:xlink="http://www.w3.org/1999/xlink" x="0px" y="0px"
	 viewBox="0 0 360 510" enable-background="new 0 0 360 510" xml:space="preserve">
<g>
	<g>
		<g>
			<rect x="14" y="465.8" fill="#455367" width="157.5" height="103.9"/>
			<rect x="155.6" y="465.8" fill="#FBFCFC" width="8" height="103.9"/>
			<rect x="90.1" y="478.7" fill="#FBFCFC" width="5.4" height="25.9"/>
			<rect x="21.9" y="465.8" fill="#FBFCFC" width="8" height="103.9"/>
		</g>
		<g>
			<rect x="14" y="361.9" fill="#455367" width="157.5" height="103.9"/>
			<rect x="155.6" y="361.9" fill="#FBFCFC" width="8" height="103.9"/>
			<rect x="90.1" y="426.8" fill="#FBFCFC" width="5.4" height="25.9"/>
			<rect x="90.1" y="374.9" fill="#FBFCFC" width="5.4" height="25.9"/>
			<rect x="21.9" y="361.9" fill="#FBFCFC" width="8" height="103.9"/>
		</g>
		<g>
			<rect x="14" y="258" fill="#455367" width="157.5" height="103.9"/>
			<rect x="155.6" y="258" fill="#FBFCFC" width="8" height="103.9"/>
			<rect x="90.1" y="322.9" fill="#FBFCFC" width="5.4" height="25.9"/>
			<rect x="90.1" y="271" fill="#FBFCFC" width="5.4" height="25.9"/>
			<rect x="21.9" y="258" fill="#FBFCFC" width="8" height="103.9"/>
		</g>
		<g>
			<rect x="14" y="154.2" fill="#455367" width="157.5" height="103.9"/>
			<rect x="155.6" y="154.2" fill="#FBFCFC" width="8" height="103.9"/>
			<rect x="90.1" y="219.1" fill="#FBFCFC" width="5.4" height="25.9"/>
			<rect x="90.1" y="167.1" fill="#FBFCFC" width="5.4" height="25.9"/>
			<rect x="21.9" y="154.2" fill="#FBFCFC" width="8" height="103.9"/>
		</g>
		<g>
			<rect x="14" y="50.3" fill="#455367" width="157.5" height="103.9"/>
			<rect x="155.6" y="50.3" fill="#FBFCFC" width="8" height="103.9"/>
			<rect x="90.1" y="115.3" fill="#FBFCFC" width="5.4" height="25.9"/>
			<rect x="90.1" y="63.4" fill="#FBFCFC" width="5.4" height="25.9"/>
			<rect x="21.9" y="50.3" fill="#FBFCFC" width="8" height="103.9"/>
		</g>
		<g>
			<rect x="14" y="-53.5" fill="#455367" width="157.5" height="103.9"/>
			<rect x="155.6" y="-53.5" fill="#FBFCFC" width="8" height="103.9"/>
			<rect x="90.1" y="11.4" fill="#FBFCFC" width="5.4" height="25.9"/>
			<rect x="21.9" y="-53.5" fill="#FBFCFC" width="8" height="103.9"/>
		</g>
	</g>
</g>
<g>
	<g>
		<g>
			<rect x="189.5" y="465.8" fill="#455367" width="157.5" height="103.9"/>
			<rect x="331" y="465.8" fill="#FBFCFC" width="8" height="103.9"/>
			<rect x="265.5" y="478.7" fill="#FBFCFC" width="5.4" height="25.9"/>
			<rect x="197.4" y="465.8" fill="#FBFCFC" width="8" height="103.9"/>
		</g>
		<g>
			<rect x="189.5" y="361.9" fill="#455367" width="157.5" height="103.9"/>
			<rect x="331" y="361.9" fill="#FBFCFC" width="8" height="103.9"/>
			<rect x="265.5" y="426.8" fill="#FBFCFC" width="5.4" height="25.9"/>
			<rect x="265.5" y="374.9" fill="#FBFCFC" width="5.4" height="25.9"/>
			<rect x="197.4" y="361.9" fill="#FBFCFC" width="8" height="103.9"/>
		</g>
		<g>
			<rect x="189.5" y="258" fill="#455367" width="157.5" height="103.9"/>
			<rect x="331" y="258" fill="#FBFCFC" width="8" height="103.9"/>
			<rect x="265.5" y="322.9" fill="#FBFCFC" width="5.4" height="25.9"/>
			<rect x="265.5" y="271" fill="#FBFCFC" width="5.4" height="25.9"/>
			<rect x="197.4" y="258" fill="#FBFCFC" width="8" height="103.9"/>
		</g>
		<g>
			<rect x="189.5" y="154.2" fill="#455367" width="157.5" height="103.9"/>
			<rect x="331" y="154.2" fill="#FBFCFC" width="8" height="103.9"/>
			<rect x="265.5" y="219.1" fill="#FBFCFC" width="5.4" height="25.9"/>
			<rect x="265.5" y="167.1" fill="#FBFCFC" width="5.4" height="25.9"/>
			<rect x="197.4" y="154.2" fill="#FBFCFC" width="8" height="103.9"/>
		</g>
		<g>
			<rect x="189.5" y="50.3" fill="#455367" width="157.5" height="103.9"/>
			<rect x="331" y="50.3" fill="#FBFCFC" width="8" height="103.9"/>
			<rect x="265.5" y="115.3" fill="#FBFCFC" width="5.4" height="25.9"/>
			<rect x="265.5" y="63.4" fill="#FBFCFC" width="5.4" height="25.9"/>
			<rect x="197.4" y="50.3" fill="#FBFCFC" width="8" height="103.9"/>
		</g>
		<g>
			<rect x="189.5" y="-53.5" fill="#455367" width="157.5" height="103.9"/>
			<rect x="331" y="-53.5" fill="#FBFCFC" width="8" height="103.9"/>
			<rect x="265.5" y="11.4" fill="#FBFCFC" width="5.4" height="25.9"/>
			<rect x="197.4" y="-53.5" fill="#FBFCFC" width="8" height="103.9"/>
		</g>
	</g>
</g>
<g>
	<g>
		<g>
			
				<radialGradient id="SVGID_1_" cx="59.1326" cy="429.3223" r="14.3107" gradientTransform="matrix(0.9941 0 0 1.0817 1.8288 -5.5172)" gradientUnits="userSpaceOnUse">
				<stop  offset="0" style="stop-color:#0B0D0E"/>
				<stop  offset="1" style="stop-color:#111315"/>
			</radialGradient>
			<path opacity="0.3" fill="url(#SVGID_1_)" d="M73.9,437.6c-0.4-3.5-1.6-5.7-4.3-7.8c-4.2-3.4-13.8-3.4-18,0
				c-2.6,2.1-3.9,4.3-4.3,7.8c-0.8,7.2,0.3,14.6,0.3,21.7c-0.1,8.4-2.3,20,0.4,27.5c1.3,3.7,9.2,3.6,12.6,3.5
				c3.5,0,11.3,0.1,12.6-3.6c2.7-7.5,0.4-19.1,0.4-27.5C73.6,452.2,74.6,444.8,73.9,437.6z"/>
			<path d="M71.2,463c-0.1-7.4,1.2-15,0.3-22.5c-0.4-2.9-0.9-4.4-1.8-5.5c-0.7-0.9-1.5-1.6-2.7-2.5c-0.6-0.5-1.4-0.9-2.3-1.3
				c-0.2-0.1-0.3-0.1-0.5-0.2c-4.3-1.3-9.2-1.3-13.5,0c-0.2,0.1-0.3,0.1-0.5,0.2c-0.9,0.3-1.7,0.8-2.3,1.3c-1.2,1-2,1.7-2.7,2.5
				c-0.9,1.2-1.5,2.7-1.8,5.5c-0.9,7.5,0.3,15.1,0.3,22.5c-0.1,8.7-2.1,20.1,0.4,28.6c0.2,0.6,0.7,1.2,1.4,1.6
				c0.2-0.1,0.3-0.1,0.6-0.1c1.2,0,1.8,0.8,3.2,0.6c0.9-0.1,1.2,0.6,1.3,1.1c0.8,0.1,1.6,0.2,2.4,0.3c0.1-0.2,0.3-0.3,0.6-0.3
				c2.7,0,5.4,0,8.1,0c0.2,0,0.4,0.1,0.6,0.3c0.6-0.1,1.2-0.1,1.8-0.2c0.1-0.5,0.4-1.4,1.3-1.2c1.4,0.2,2-0.6,3.2-0.6
				c0.4,0,0.7,0.1,0.8,0.3c0.9-0.5,1.5-1.1,1.7-1.8C73.4,483,71.3,471.7,71.2,463z"/>
			
				<radialGradient id="SVGID_2_" cx="55.9076" cy="432.3602" r="14.3107" gradientTransform="matrix(0.9941 0 0 1.0817 1.8288 -5.5172)" gradientUnits="userSpaceOnUse">
				<stop  offset="0" style="stop-color:#0B0D0E"/>
				<stop  offset="1" style="stop-color:#111315"/>
			</radialGradient>
			<path fill="url(#SVGID_2_)" d="M70.7,440.9c-0.4-3.5-1.6-5.7-4.3-7.8c-4.2-3.4-13.8-3.4-18,0c-2.6,2.1-3.9,4.3-4.3,7.8
				c-0.8,7.2,0.3,14.6,0.3,21.7c-0.1,8.4-2.3,20,0.4,27.5c1.3,3.7,9.2,3.6,12.6,3.5c3.5,0,11.3,0.1,12.6-3.6
				c2.7-7.5,0.4-19.1,0.4-27.5C70.3,455.5,71.4,448.1,70.7,440.9z"/>
			<linearGradient id="SVGID_3_" gradientUnits="userSpaceOnUse" x1="47.283" y1="457.7546" x2="67.529" y2="457.7546">
				<stop  offset="0" style="stop-color:#000000"/>
				<stop  offset="1" style="stop-color:#000000"/>
			</linearGradient>
			<path fill="url(#SVGID_3_)" d="M51.9,456.8c-2.3,0.3-4,1-4.6,1.2c0.1,0.4,0.1,0.6,0.2,1c0,0,1.9-1,4.7-1.3
				c3.4-0.5,7.1-0.5,10.5,0c2.8,0.4,4.7,1.3,4.7,1.3c0.1-0.4,0.1-0.6,0.2-1c-0.6-0.3-2.3-0.9-4.6-1.2
				C59.3,456.3,55.5,456.3,51.9,456.8z"/>
			<path d="M46.7,448.9c0.9-0.4,2.5-1,4.9-1.6c3.8-0.8,7.9-0.8,11.7,0c2.4,0.5,4,1.2,4.9,1.6c0.4,0.2,0.6,0.3,0.8,0.5c0,0,0,0,0,0
				c0,0,0.2-0.8,0-1c-0.1-0.2-0.4-0.3-0.8-0.5c-0.9-0.4-2.5-1-4.9-1.6c-3.8-0.8-7.9-0.8-11.7,0c-2.4,0.5-4,1.2-4.9,1.6
				c-0.5,0.2-0.7,0.4-0.8,0.5c-0.1,0.2,0,1,0,1c0,0,0,0,0,0C46,449.2,46.3,449.1,46.7,448.9z"/>
			<path fill="#404040" d="M51.9,456.8c3.6-0.5,7.4-0.5,11,0c2.3,0.3,4,1,4.6,1.2c0.5-2.9,0.9-5.8,1.4-8.7c-0.1-0.1-0.4-0.3-0.8-0.5
				c-0.9-0.4-2.5-1-4.9-1.6c-3.8-0.8-7.9-0.8-11.7,0c-2.4,0.5-4,1.2-4.9,1.6c-0.4,0.2-0.6,0.3-0.8,0.5c0.5,2.9,0.9,5.8,1.4,8.7
				C47.9,457.7,49.6,457.1,51.9,456.8z"/>
			<path d="M67,481.8c-0.1-0.4-0.2-0.7-0.3-1.1c0,0-0.1,0.1-0.4,0.2c-2.8,1.1-6,1.4-8.9,1.4c-2.9,0-6-0.4-8.9-1.4
				c-0.3-0.1-0.4-0.2-0.4-0.2c-0.1,0.4-0.2,0.7-0.3,1.1c-0.4,2.2-0.6,4.6-0.5,6.9c0,0,2.1,1,5,1.5c3.2,0.6,6.9,0.6,10.1,0
				c2.9-0.5,5-1.5,5-1.5C67.6,486.3,67.4,484,67,481.8z M66.7,487.8c0,0-1.9,1-4.6,1.5c-3,0.5-6.4,0.5-9.4,0
				c-2.7-0.5-4.6-1.5-4.6-1.5s-0.2-2.8,0.2-5.9c3,0.8,6.1,1.1,9.1,1.1c3,0,6.1-0.2,9.1-1.1C67,485,66.7,487.8,66.7,487.8z"/>
			<path fill="#404040" d="M48.3,481.9c-0.5,3.1-0.2,5.9-0.2,5.9s1.9,1,4.6,1.5c3,0.5,6.4,0.5,9.4,0c2.7-0.5,4.6-1.5,4.6-1.5
				s0.2-2.7-0.2-5.9c-3,0.8-6.1,1.1-9.1,1.1C54.4,483,51.3,482.7,48.3,481.9z"/>
			<g>
				<path fill="#404040" d="M45.1,467.9c0.8,0.3,1.2,0.4,2,0.7c-0.1-3-0.2-6-0.3-8.9c-0.6-3.5-1.2-7.1-1.8-10.6
					c-0.1,2.2-0.1,4.4-0.1,6.6c0.1,2.6,0.3,5.4,0.3,8C45.3,465.8,45.2,467.2,45.1,467.9z"/>
				<path fill="#404040" d="M69.7,467.9c-0.8,0.3-1.2,0.4-2,0.7c0.1-3,0.2-6,0.3-8.9c0.6-3.5,1.2-7.1,1.8-10.6
					c0.1,2.2,0.1,4.4,0.1,6.6c-0.1,2.7-0.3,5.4-0.3,8C69.5,465.8,69.6,467.2,69.7,467.9z"/>
			</g>
			<g>
				<path fill="#404040" d="M45,468.7c0.8,0.4,1.2,0.5,2.1,0.9c0.1,2.5,0.1,5,0.2,7.5c0,0-0.2,0.9-1,2.5c-0.9,1.7-1.4,2.2-1.4,2.2
					C44.8,477.4,44.7,473.1,45,468.7z"/>
				<path fill="#404040" d="M69.8,468.7c-0.8,0.4-1.2,0.5-2.1,0.9c-0.1,2.5-0.1,5-0.2,7.5c0,0,0.2,0.9,1,2.5
					c0.9,1.7,1.4,2.2,1.4,2.2C70,477.4,70.1,473.1,69.8,468.7z"/>
			</g>
			<path fill="#BE1E2D" d="M49.1,493.6c-1.4,0.2-2-0.6-3.2-0.6c-0.2,0-0.4,0-0.6,0.1c1.3,0.8,3.2,1.3,5.1,1.6
				C50.3,494.2,50,493.5,49.1,493.6z"/>
			<path fill="#BE1E2D" d="M65.1,493.7c-1-0.2-1.2,0.7-1.3,1.2c2-0.3,4-0.7,5.4-1.5c-0.2-0.2-0.4-0.3-0.8-0.3
				C67.1,493.1,66.5,493.9,65.1,493.7z"/>
			<linearGradient id="SVGID_4_" gradientUnits="userSpaceOnUse" x1="48.543" y1="444.2021" x2="51.8343" y2="433.8796">
				<stop  offset="0" style="stop-color:#080A0B"/>
				<stop  offset="1" style="stop-color:#060809"/>
			</linearGradient>
			<path fill="url(#SVGID_4_)" d="M48.1,445.6c0,0,2.1-3.8,2.6-5.8c0.3-1.1-0.1-4.9-0.1-4.9s-0.3,3.5-0.5,4.7
				C49.7,441.7,48.1,445.6,48.1,445.6z"/>
			<linearGradient id="SVGID_5_" gradientUnits="userSpaceOnUse" x1="66.0024" y1="444.8141" x2="63.3829" y2="434.4103">
				<stop  offset="0" style="stop-color:#080A0B"/>
				<stop  offset="1" style="stop-color:#060809"/>
			</linearGradient>
			<path fill="url(#SVGID_5_)" d="M66.7,445.6c0,0-2.1-3.8-2.6-5.8c-0.3-1.1,0.1-4.9,0.1-4.9s0.3,3.5,0.5,4.7
				C65.2,441.7,66.7,445.6,66.7,445.6z"/>
			<linearGradient id="SVGID_6_" gradientUnits="userSpaceOnUse" x1="57.3264" y1="450.0636" x2="63.8597" y2="454.7091">
				<stop  offset="0" style="stop-color:#363B39"/>
				<stop  offset="1" style="stop-color:#000000"/>
			</linearGradient>
			<path fill="url(#SVGID_6_)" d="M68.2,448.9c-0.9-0.4-2.5-1-4.9-1.6c-0.9-0.2-1.8-0.3-2.7-0.4c-2.6,2.9-4.6,6.3-6.6,9.7
				c3-0.2,6.1-0.2,9,0.2c2.3,0.3,4,1,4.6,1.2c0.5-2.9,0.9-5.8,1.4-8.7C68.8,449.2,68.6,449.1,68.2,448.9z"/>
			<path fill="#1D1D1D" d="M57.4,458.4c-3,0-6.3-0.1-9.2,1.1c0,6.4-1.4,15.2,0.5,19.5c0.7,1.7,5.5,1.8,7.6,2c0.9,0,1.4,0,2.3,0
				c2.1-0.2,6.8-0.3,7.6-2c1.8-4.3,0.5-13.1,0.5-19.5C63.7,458.3,60.4,458.4,57.4,458.4z"/>
			<path fill="#404040" d="M57.5,458.4c-3.1,0-6.4-0.1-9.3,1.1c0,6.4-1.4,15.2,0.5,19.5c0.7,1.7,5.6,1.8,7.7,2c0.9,0,1.4,0,2.4,0
				c2.1-0.2,7-0.3,7.7-2c1.8-4.3,0.5-13.1,0.5-19.5C63.9,458.3,60.6,458.4,57.5,458.4z"/>
			<path fill="#181818" d="M58.7,493.1c3.5-0.2,7.3-0.5,10.4-2.3c-0.6-0.7-0.9-1-1.4-1.7c-3.1,1.7-6.8,2.3-10.3,2l0,0
				c-3.5,0.2-7.2-0.3-10.3-2c-0.6,0.7-0.9,1-1.4,1.7c3.2,1.8,7,2.1,10.4,2.3c0.4,0,1.3,0,1.3,0l0,0
				C57.9,493.1,58.3,493.1,58.7,493.1z"/>
			<g>
				<path fill="#060606" d="M49.6,432.8c0,0-4.5,4.1-4.8,7.1c-0.3,2.5-0.5,7.6-0.5,7.6C44.3,447.5,49.6,432.8,49.6,432.8z"/>
			</g>
			<g>
				<path fill="#060606" d="M65.3,432.8c0,0,4.5,4.1,4.8,7.1c0.3,2.5,0.5,7.6,0.5,7.6C70.5,447.5,65.3,432.8,65.3,432.8z"/>
			</g>
			<g>
				<linearGradient id="SVGID_7_" gradientUnits="userSpaceOnUse" x1="69.4233" y1="450.0891" x2="71.9625" y2="455.0054">
					<stop  offset="0" style="stop-color:#010202"/>
					<stop  offset="1" style="stop-color:#000101"/>
				</linearGradient>
				<path fill="url(#SVGID_7_)" d="M69.7,449.7c0,0,1.1,0.2,1.2,1.2c0,1-1.1,3-1.1,1.7C69.7,451.4,69.6,450.1,69.7,449.7z"/>
				<linearGradient id="SVGID_8_" gradientUnits="userSpaceOnUse" x1="70.4126" y1="451.532" x2="73.7109" y2="451.532">
					<stop  offset="0" style="stop-color:#0B0D0E"/>
					<stop  offset="1" style="stop-color:#080A0B"/>
				</linearGradient>
				<path fill="url(#SVGID_8_)" d="M73.6,451.8c-0.3-0.3-2.5-1-2.5-1c-0.4-0.1-0.6,0.3-0.6,0.6c1.3,0.4,1.9,0.6,3.2,1
					C73.7,452.2,73.7,452,73.6,451.8z"/>
				<linearGradient id="SVGID_9_" gradientUnits="userSpaceOnUse" x1="70.4167" y1="451.9591" x2="73.7135" y2="451.9591">
					<stop  offset="0" style="stop-color:#010202"/>
					<stop  offset="1" style="stop-color:#000101"/>
				</linearGradient>
				<path fill="url(#SVGID_9_)" d="M70.4,451.4c0,0.2,0,0.4,0,0.4c1.3,0.3,1.9,0.5,3.2,0.8c0,0,0-0.1,0.1-0.2
					C72.4,451.9,71.7,451.8,70.4,451.4z"/>
			</g>
			<g>
				<linearGradient id="SVGID_10_" gradientUnits="userSpaceOnUse" x1="44.5254" y1="450.5247" x2="46.7214" y2="455.3451">
					<stop  offset="0" style="stop-color:#010202"/>
					<stop  offset="1" style="stop-color:#000101"/>
				</linearGradient>
				<path fill="url(#SVGID_10_)" d="M45.1,449.6c0,0-1.2,0.2-1.2,1.2c0,1,1.2,3,1.2,1.7C45.1,451.3,45.2,450,45.1,449.6z"/>
				<linearGradient id="SVGID_11_" gradientUnits="userSpaceOnUse" x1="41.0926" y1="451.4872" x2="44.3903" y2="451.4872">
					<stop  offset="0" style="stop-color:#080A0B"/>
					<stop  offset="1" style="stop-color:#0B0D0E"/>
				</linearGradient>
				<path fill="url(#SVGID_11_)" d="M43.7,450.7c0,0-2.3,0.7-2.5,1c-0.2,0.2-0.1,0.4-0.1,0.6c1.3-0.4,1.9-0.6,3.2-1
					C44.3,451,44.2,450.6,43.7,450.7z"/>
				<linearGradient id="SVGID_12_" gradientUnits="userSpaceOnUse" x1="41.0889" y1="451.911" x2="44.3858" y2="451.911">
					<stop  offset="0" style="stop-color:#010202"/>
					<stop  offset="1" style="stop-color:#000101"/>
				</linearGradient>
				<path fill="url(#SVGID_12_)" d="M41.1,452.3c0,0.1,0.1,0.2,0.1,0.2c1.3-0.3,1.9-0.5,3.2-0.8c0,0,0-0.2,0-0.4
					C43.1,451.7,42.4,451.9,41.1,452.3z"/>
			</g>
			<path fill="#020303" d="M43.6,462.5c-0.2,0-0.3,0.1-0.3,0.3c0,1,0,1.5,0,2.5c0,0.2,0.1,0.3,0.3,0.3
				C43.6,464.4,43.6,463.8,43.6,462.5z"/>
			<path fill="#020303" d="M42.9,475.1c-0.2,0-0.3,0.1-0.3,0.3c0,1,0,1.5,0,2.5c0,0.2,0.1,0.3,0.3,0.3
				C42.9,477,42.9,476.3,42.9,475.1z"/>
			<path fill="#020303" d="M71.2,462.5c0.2,0,0.3,0.1,0.3,0.3c0,1,0,1.5,0,2.5c0,0.2-0.1,0.3-0.3,0.3
				C71.2,464.4,71.2,463.8,71.2,462.5z"/>
			<path fill="#020303" d="M71.9,475.1c0.2,0,0.3,0.1,0.3,0.3c0,1,0,1.5,0,2.5c0,0.2-0.1,0.3-0.3,0.3C72,477,71.9,476.3,71.9,475.1z
				"/>
			<g>
				<g>
					<path fill="#050607" d="M51,444.7c0.5,0,0.7-0.3,1.2-0.3c0,0,0.1,0,0.1-0.1c0,0,0-0.1-0.1-0.1c-0.5,0-0.7,0.3-1.2,0.3
						C50.9,444.6,50.9,444.6,51,444.7C50.9,444.7,50.9,444.8,51,444.7z"/>
					<path fill="#050607" d="M52.2,444.5c-0.5,0-0.7,0.3-1.2,0.3c0,0-0.1,0-0.1,0.1c0,0,0,0.1,0.1,0.1c0.5,0,0.7-0.3,1.2-0.3
						C52.2,444.7,52.2,444.7,52.2,444.5C52.2,444.6,52.2,444.5,52.2,444.5z"/>
					<path fill="#050607" d="M52.2,444.8c-0.5,0-0.7,0.3-1.2,0.3c0,0-0.1,0-0.1,0.1c0,0,0,0.1,0.1,0.1c0.5,0,0.7-0.3,1.2-0.3
						C52.2,445,52.2,444.9,52.2,444.8C52.2,444.9,52.2,444.8,52.2,444.8z"/>
				</g>
				<g>
					<path fill="#050607" d="M63.8,444.7c-0.5,0-0.7-0.3-1.2-0.3c0,0-0.1,0-0.1-0.1c0,0,0-0.1,0.1-0.1c0.5,0,0.7,0.3,1.2,0.3
						C63.9,444.6,63.9,444.6,63.8,444.7C63.9,444.7,63.9,444.8,63.8,444.7z"/>
					<path fill="#050607" d="M62.6,444.5c0.5,0,0.7,0.3,1.2,0.3c0,0,0.1,0,0.1,0.1c0,0,0,0.1-0.1,0.1c-0.5,0-0.7-0.3-1.2-0.3
						C62.6,444.7,62.6,444.7,62.6,444.5C62.6,444.6,62.6,444.5,62.6,444.5z"/>
					<path fill="#050607" d="M62.7,444.8c0.5,0,0.7,0.3,1.2,0.3c0,0,0.1,0,0.1,0.1c0,0,0,0.1-0.1,0.1c-0.5,0-0.7-0.3-1.2-0.3
						C62.6,445,62.6,444.9,62.7,444.8C62.6,444.9,62.6,444.8,62.7,444.8z"/>
				</g>
			</g>
			<path d="M61.4,494.8c-2.7,0-5.4,0-8.1,0c-0.2,0-0.4,0.1-0.6,0.3c2.5,0.2,4.6,0.2,4.6,0.2c0,0,2.1,0,4.6-0.2
				C61.9,494.9,61.7,494.8,61.4,494.8z"/>
			<linearGradient id="SVGID_13_" gradientUnits="userSpaceOnUse" x1="52.8815" y1="476.8585" x2="57.7842" y2="484.3765">
				<stop  offset="0" style="stop-color:#363B39"/>
				<stop  offset="1" style="stop-color:#000000"/>
			</linearGradient>
			<path fill="url(#SVGID_13_)" d="M66.5,481.9c-3,0.8-6.1,1-9.1,1.1c-0.9,0-1.8,0-2.6-0.1c-2.2,1.1-3.7,3.4-4.6,5.7
				c0.7,0.2,1.6,0.5,2.5,0.6c3,0.5,6.4,0.5,9.4,0c2.7-0.5,4.6-1.5,4.6-1.5S67,485,66.5,481.9z"/>
			<g>
				<linearGradient id="SVGID_14_" gradientUnits="userSpaceOnUse" x1="48.776" y1="464.0721" x2="53.8277" y2="464.0721">
					<stop  offset="0" style="stop-color:#030303"/>
					<stop  offset="1" style="stop-color:#000000"/>
				</linearGradient>
				<ellipse fill="url(#SVGID_14_)" cx="51.3" cy="464.1" rx="2.5" ry="2.3"/>
				<linearGradient id="SVGID_15_" gradientUnits="userSpaceOnUse" x1="48.9782" y1="464.0721" x2="53.6265" y2="464.0721">
					<stop  offset="0" style="stop-color:#000000"/>
					<stop  offset="1" style="stop-color:#030303"/>
				</linearGradient>
				<ellipse fill="url(#SVGID_15_)" cx="51.3" cy="464.1" rx="2.3" ry="2.1"/>
				
					<radialGradient id="SVGID_16_" cx="70.6708" cy="462.5208" r="1.9888" gradientTransform="matrix(1.075 0 0 0.9637 -24.6687 18.3405)" gradientUnits="userSpaceOnUse">
					<stop  offset="0" style="stop-color:#13ADEE"/>
					<stop  offset="0.3491" style="stop-color:#0091E6"/>
					<stop  offset="1" style="stop-color:#0034CA"/>
				</radialGradient>
				<ellipse fill="url(#SVGID_16_)" cx="51.3" cy="464.1" rx="2.1" ry="1.9"/>
				
					<radialGradient id="SVGID_17_" cx="70.6708" cy="462.5208" r="1.2592" gradientTransform="matrix(1.075 0 0 0.9637 -24.6687 18.3405)" gradientUnits="userSpaceOnUse">
					<stop  offset="0" style="stop-color:#13ADEE"/>
					<stop  offset="0.3491" style="stop-color:#0091E6"/>
					<stop  offset="1" style="stop-color:#0034CA"/>
				</radialGradient>
				<ellipse fill="url(#SVGID_17_)" cx="51.3" cy="464.1" rx="1.4" ry="1.2"/>
				
					<radialGradient id="SVGID_18_" cx="69.6889" cy="462.7018" r="2.3688" gradientTransform="matrix(1.0702 0 0 0.9455 -24.5453 25.5303)" gradientUnits="userSpaceOnUse">
					<stop  offset="0" style="stop-color:#00D4FF"/>
					<stop  offset="4.087531e-002" style="stop-color:#00B9DE"/>
					<stop  offset="0.1208" style="stop-color:#0088A4"/>
					<stop  offset="0.2006" style="stop-color:#005F72"/>
					<stop  offset="0.2787" style="stop-color:#003D49"/>
					<stop  offset="0.3546" style="stop-color:#002229"/>
					<stop  offset="0.4277" style="stop-color:#000F12"/>
					<stop  offset="0.4967" style="stop-color:#000405"/>
					<stop  offset="0.5576" style="stop-color:#000000"/>
				</radialGradient>
				<ellipse fill="url(#SVGID_18_)" cx="50" cy="463" rx="1.9" ry="1.7"/>
				
					<radialGradient id="SVGID_19_" cx="72.2942" cy="464.8234" r="2.3687" gradientTransform="matrix(1.0702 0 0 0.9455 -24.5453 25.5303)" gradientUnits="userSpaceOnUse">
					<stop  offset="0" style="stop-color:#00D4FF"/>
					<stop  offset="4.087531e-002" style="stop-color:#00B9DE"/>
					<stop  offset="0.1208" style="stop-color:#0088A4"/>
					<stop  offset="0.2006" style="stop-color:#005F72"/>
					<stop  offset="0.2787" style="stop-color:#003D49"/>
					<stop  offset="0.3546" style="stop-color:#002229"/>
					<stop  offset="0.4277" style="stop-color:#000F12"/>
					<stop  offset="0.4967" style="stop-color:#000405"/>
					<stop  offset="0.5576" style="stop-color:#000000"/>
				</radialGradient>
				<ellipse fill="url(#SVGID_19_)" cx="52.8" cy="465" rx="1.9" ry="1.7"/>
			</g>
		</g>
		<g>
			
				<radialGradient id="SVGID_20_" cx="135.7095" cy="269.3842" r="1.2876" gradientTransform="matrix(0.7806 -0.6626 0.7391 0.6998 -257.6962 335.9662)" gradientUnits="userSpaceOnUse">
				<stop  offset="0" style="stop-color:#FFFFFF"/>
				<stop  offset="1" style="stop-color:#D2D6D5"/>
			</radialGradient>
			<path fill="url(#SVGID_20_)" d="M48.7,433.4c-0.3-0.3-1.1,0-1.8,0.7c-0.7,0.6-1.1,1.3-0.8,1.6c0.3,0.3,1.1,0,1.8-0.7
				C48.6,434.4,48.9,433.7,48.7,433.4z"/>
			
				<radialGradient id="SVGID_21_" cx="77.921" cy="278.7262" r="0.8294" gradientTransform="matrix(0.6404 -0.4904 0.6982 0.7327 -194.9488 266.7604)" gradientUnits="userSpaceOnUse">
				<stop  offset="0" style="stop-color:#FFFFFF"/>
				<stop  offset="1" style="stop-color:#D2D6D5"/>
			</radialGradient>
			<path fill="url(#SVGID_21_)" d="M50.3,432.2c-0.2-0.2-0.6-0.1-1,0.2c-0.4,0.3-0.6,0.7-0.4,0.9c0.2,0.2,0.6,0.1,1-0.2
				C50.2,432.8,50.4,432.4,50.3,432.2z"/>
		</g>
		<g>
			
				<radialGradient id="SVGID_22_" cx="534.2438" cy="646.733" r="1.2876" gradientTransform="matrix(-0.7806 -0.6626 -0.7391 0.6998 962.6449 335.9662)" gradientUnits="userSpaceOnUse">
				<stop  offset="0" style="stop-color:#FFFFFF"/>
				<stop  offset="1" style="stop-color:#D2D6D5"/>
			</radialGradient>
			<path fill="url(#SVGID_22_)" d="M66.3,433.4c0.3-0.3,1.1,0,1.8,0.7c0.7,0.6,1.1,1.3,0.8,1.6c-0.3,0.3-1.1,0-1.8-0.7
				C66.4,434.4,66,433.7,66.3,433.4z"/>
			
				<radialGradient id="SVGID_23_" cx="610.544" cy="635.2138" r="0.8295" gradientTransform="matrix(-0.6404 -0.4904 -0.6982 0.7327 899.8944 266.7604)" gradientUnits="userSpaceOnUse">
				<stop  offset="0" style="stop-color:#FFFFFF"/>
				<stop  offset="1" style="stop-color:#D2D6D5"/>
			</radialGradient>
			<path fill="url(#SVGID_23_)" d="M64.7,432.2c0.2-0.2,0.6-0.1,1,0.2c0.4,0.3,0.6,0.7,0.4,0.9c-0.2,0.2-0.6,0.1-1-0.2
				C64.7,432.8,64.5,432.4,64.7,432.2z"/>
		</g>
	</g>
	<g>
		<path opacity="0.3" d="M147.5,438.3c-0.6-4.9-1.7-5.7-4.4-8c-3.7-3.1-15.4-3.1-19.2,0c-2.8,2.3-3.9,3.1-4.4,8
			c-0.9,7.5,0.6,19.4,0.6,22.3c-0.2,15.5-0.3,25,0.7,28.3c1.2,3.8,12.8,3.6,12.8,3.6c0,0,11.6,0.2,12.8-3.6c1-3.3,0.9-12.7,0.7-28.3
			C146.9,457.7,148.3,445.8,147.5,438.3z"/>
		
			<radialGradient id="SVGID_24_" cx="128.8164" cy="-3717.8042" r="18.7898" gradientTransform="matrix(1 0 0 2.0828 0 8207.6318)" gradientUnits="userSpaceOnUse">
			<stop  offset="0" style="stop-color:#F7F7F7"/>
			<stop  offset="1" style="stop-color:#A8ABAA"/>
		</radialGradient>
		<path fill="url(#SVGID_24_)" d="M143.7,440.9c-0.3-3-0.9-4.5-1.9-5.7c-0.4,0.1-0.8,0-1.2-0.3l-3.5-2.6c-0.4-0.3-0.6-0.7-0.6-1.1
			c-0.2-0.1-0.3-0.1-0.5-0.2v3.3h-14.4v-3.3c-0.2,0.1-0.3,0.1-0.5,0.2c-0.1,0.4-0.3,0.8-0.6,1.1L117,435c-0.4,0.3-0.8,0.3-1.2,0.3
			c-1,1.2-1.5,2.8-1.9,5.7c-0.9,7.8,0.6,20.1,0.6,23.1c-0.2,16.2-0.3,26,0.7,29.4c0.2,0.6,0.7,1.2,1.4,1.6c0.1-0.1,0.3-0.1,0.6-0.1
			c1.3,0,1.9,0.8,3.2,0.6c0.9-0.2,1.2,0.6,1.3,1.1c0.8,0.1,1.6,0.2,2.4,0.3c0.1-0.2,0.3-0.3,0.6-0.3h8.1c0.2,0,0.4,0.1,0.6,0.3
			c0.6-0.1,1.2-0.1,1.8-0.2c0.1-0.5,0.4-1.4,1.3-1.2c1.4,0.2,2-0.6,3.2-0.6c0.4,0,0.7,0.1,0.8,0.3c0.9-0.5,1.5-1.1,1.7-1.8
			c1.1-3.4,0.9-13.2,0.7-29.4C143.1,461.1,144.6,448.8,143.7,440.9z"/>
		<linearGradient id="SVGID_25_" gradientUnits="userSpaceOnUse" x1="121.6237" y1="432.266" x2="136.0089" y2="432.266">
			<stop  offset="0" style="stop-color:#525956"/>
			<stop  offset="1" style="stop-color:#2C2E2E"/>
		</linearGradient>
		<path fill="url(#SVGID_25_)" d="M136,434.4v-3.3c-4.1-1.3-10.3-1.3-14.4,0v3.3H136z"/>
		
			<radialGradient id="SVGID_26_" cx="128.8164" cy="-5648.0376" r="15.0247" gradientTransform="matrix(1 0 0 3.8388 0 22145.1621)" gradientUnits="userSpaceOnUse">
			<stop  offset="0" style="stop-color:#FFFFFF"/>
			<stop  offset="1" style="stop-color:#D2D6D5"/>
		</radialGradient>
		<path fill="url(#SVGID_26_)" d="M142.8,441.4c-0.6-4.9-1.7-5.7-4.4-8c-3.7-3.1-15.4-3.1-19.2,0c-2.8,2.3-3.9,3.1-4.4,8
			c-0.9,7.5,0.6,19.4,0.6,22.3c-0.2,15.5-0.3,25,0.7,28.3c1.2,3.8,12.8,3.6,12.8,3.6c0,0,11.6,0.2,12.8-3.6c1-3.3,0.9-12.7,0.7-28.3
			C142.2,460.8,143.7,449,142.8,441.4z"/>
		<linearGradient id="SVGID_27_" gradientUnits="userSpaceOnUse" x1="118.284" y1="458.699" x2="139.3485" y2="458.699">
			<stop  offset="0" style="stop-color:#000000"/>
			<stop  offset="1" style="stop-color:#1B1C1C"/>
		</linearGradient>
		<path fill="url(#SVGID_27_)" d="M123.1,457.7c-2.4,0.3-4.2,1-4.8,1.3l0.2,1.1c0,0,1.9-1,4.9-1.4c2.6-0.4,8.4-0.4,10.9,0
			c3,0.4,4.9,1.4,4.9,1.4l0.2-1.1c-0.6-0.3-2.4-0.9-4.8-1.3C131.9,457.3,125.8,457.3,123.1,457.7z"/>
		<linearGradient id="SVGID_28_" gradientUnits="userSpaceOnUse" x1="116.6206" y1="448.1367" x2="141.0121" y2="448.1367">
			<stop  offset="0" style="stop-color:#000000"/>
			<stop  offset="1" style="stop-color:#1B1C1C"/>
		</linearGradient>
		<path fill="url(#SVGID_28_)" d="M117.5,449.6c0.9-0.4,2.6-1.1,5.2-1.6c3.7-0.8,8.6-0.8,12.3,0c2.6,0.6,4.2,1.2,5.2,1.6
			c0.4,0.2,0.7,0.3,0.8,0.5l0,0c0,0,0.2-0.8,0.1-1c-0.1-0.2-0.4-0.4-0.9-0.6c-0.9-0.4-2.6-1.1-5.2-1.6c-3.7-0.8-8.6-0.8-12.3,0
			c-2.6,0.6-4.2,1.2-5.2,1.6c-0.5,0.2-0.8,0.4-0.9,0.6c-0.1,0.2,0.1,1,0.1,1l0,0C116.9,449.9,117.1,449.8,117.5,449.6z"/>
		<linearGradient id="SVGID_29_" gradientUnits="userSpaceOnUse" x1="116.7264" y1="453.1381" x2="140.9065" y2="453.1381">
			<stop  offset="0" style="stop-color:#363B39"/>
			<stop  offset="1" style="stop-color:#1B1C1C"/>
		</linearGradient>
		<path fill="url(#SVGID_29_)" d="M123.1,457.7c2.7-0.4,8.8-0.4,11.4,0c2.4,0.3,4.2,1,4.8,1.3l1.6-8.9c-0.1-0.1-0.4-0.3-0.8-0.5
			c-0.9-0.4-2.6-1.1-5.2-1.6c-3.7-0.8-8.6-0.8-12.3,0c-2.6,0.6-4.2,1.2-5.2,1.6c-0.4,0.2-0.7,0.3-0.8,0.5l1.6,8.9
			C118.9,458.7,120.7,458,123.1,457.7z"/>
		<linearGradient id="SVGID_30_" gradientUnits="userSpaceOnUse" x1="118.5849" y1="487.2197" x2="139.0479" y2="487.2197">
			<stop  offset="0" style="stop-color:#000000"/>
			<stop  offset="1" style="stop-color:#1B1C1C"/>
		</linearGradient>
		<path fill="url(#SVGID_30_)" d="M138.6,483.4c-0.1-0.4-0.2-0.8-0.3-1.2c0,0-0.1,0.1-0.4,0.2c-1,0.4-3.9,1.4-9.1,1.4
			c-4.7,0-8-1-9.1-1.4c-0.3-0.1-0.4-0.2-0.4-0.2c-0.1,0.4-0.2,0.7-0.3,1.1c-0.8,3.7-0.4,7.1-0.4,7.1s2.1,0.9,5,1.5
			c2.3,0.4,8,0.4,10.3,0c3-0.5,5-1.5,5-1.5S139.3,487,138.6,483.4z M138.2,489.5c0,0-1.9,0.9-4.7,1.5c-2.1,0.4-7.4,0.4-9.5,0
			c-2.7-0.5-4.7-1.5-4.7-1.5s-0.3-2.8,0.2-6.1c1.7,0.5,5,1.1,9.2,1.1c4.6,0,7.6-0.6,9.3-1.1C138.5,486.7,138.2,489.5,138.2,489.5z"
			/>
		<linearGradient id="SVGID_31_" gradientUnits="userSpaceOnUse" x1="119.3008" y1="487.383" x2="138.3325" y2="487.383">
			<stop  offset="0" style="stop-color:#363B39"/>
			<stop  offset="1" style="stop-color:#1B1C1C"/>
		</linearGradient>
		<path fill="url(#SVGID_31_)" d="M119.6,483.5c-0.5,3.2-0.2,6.1-0.2,6.1s1.9,0.9,4.7,1.5c2.1,0.4,7.4,0.4,9.5,0
			c2.7-0.5,4.7-1.5,4.7-1.5s0.3-2.8-0.2-6c-1.6,0.5-4.6,1.1-9.3,1.1C124.5,484.6,121.3,483.9,119.6,483.5z"/>
		<g>
			<linearGradient id="SVGID_32_" gradientUnits="userSpaceOnUse" x1="115.7928" y1="459.7896" x2="118.1762" y2="459.7896">
				<stop  offset="0" style="stop-color:#363B39"/>
				<stop  offset="1" style="stop-color:#1B1C1C"/>
			</linearGradient>
			<path fill="url(#SVGID_32_)" d="M116.1,469.1l2,0.7l-0.4-9.2l-2-10.9c0,0-0.2,2.8,0,6.8c0.1,2.5,0.4,6,0.4,8.3
				C116.3,466.9,116.2,468.4,116.1,469.1z"/>
			<linearGradient id="SVGID_33_" gradientUnits="userSpaceOnUse" x1="139.4563" y1="459.7896" x2="141.8401" y2="459.7896">
				<stop  offset="0" style="stop-color:#363B39"/>
				<stop  offset="1" style="stop-color:#1B1C1C"/>
			</linearGradient>
			<path fill="url(#SVGID_33_)" d="M141.5,469.1l-2.1,0.7l0.4-9.2l2-10.9c0,0,0.2,2.8,0,6.8c-0.1,2.5-0.4,6-0.4,8.3
				C141.4,466.9,141.4,468.4,141.5,469.1z"/>
		</g>
		<g>
			<linearGradient id="SVGID_34_" gradientUnits="userSpaceOnUse" x1="115.9624" y1="476.691" x2="118.4269" y2="476.691">
				<stop  offset="0" style="stop-color:#363B39"/>
				<stop  offset="1" style="stop-color:#1B1C1C"/>
			</linearGradient>
			<path fill="url(#SVGID_34_)" d="M116.1,470l2.1,0.9l0.2,7.7c0,0-0.2,1-1,2.5c-0.9,1.8-1.4,2.3-1.4,2.3S115.8,472.9,116.1,470z"/>
			<linearGradient id="SVGID_35_" gradientUnits="userSpaceOnUse" x1="139.2063" y1="476.691" x2="141.6703" y2="476.691">
				<stop  offset="0" style="stop-color:#363B39"/>
				<stop  offset="1" style="stop-color:#1B1C1C"/>
			</linearGradient>
			<path fill="url(#SVGID_35_)" d="M141.6,470l-2.1,0.9l-0.2,7.7c0,0,0.2,1,1,2.5c0.9,1.8,1.4,2.3,1.4,2.3S141.8,472.9,141.6,470z"
				/>
		</g>
		<g>
			
				<radialGradient id="SVGID_36_" cx="118.4357" cy="424.4074" r="2.3195" gradientTransform="matrix(1 0 0 1.0473 0 -11.2106)" gradientUnits="userSpaceOnUse">
				<stop  offset="0" style="stop-color:#FFFFFF"/>
				<stop  offset="1" style="stop-color:#D2D6D5"/>
			</radialGradient>
			<path fill="url(#SVGID_36_)" d="M117,435l3.5-2.6c0.4-0.3,0.6-0.7,0.6-1.1c-1,0.4-1.9,0.8-2.5,1.3c-1.2,1-2.2,1.7-2.9,2.6
				C116.2,435.3,116.6,435.2,117,435z"/>
			
				<radialGradient id="SVGID_37_" cx="139.197" cy="424.4074" r="2.3194" gradientTransform="matrix(1 0 0 1.0473 0 -11.2106)" gradientUnits="userSpaceOnUse">
				<stop  offset="0" style="stop-color:#FFFFFF"/>
				<stop  offset="1" style="stop-color:#D2D6D5"/>
			</radialGradient>
			<path fill="url(#SVGID_37_)" d="M137.2,432.4l3.5,2.6c0.4,0.3,0.8,0.3,1.2,0.3c-0.7-0.9-1.6-1.6-2.9-2.6c-0.6-0.5-1.5-1-2.5-1.3
				C136.6,431.7,136.8,432.1,137.2,432.4z"/>
		</g>
		<path fill="#93091A" d="M120.4,495.6c-1.4,0.2-2-0.6-3.2-0.6c-0.2,0-0.4,0-0.6,0.1c1.3,0.8,3.2,1.3,5.1,1.6
			C121.7,496.2,121.3,495.4,120.4,495.6z"/>
		<path fill="#93091A" d="M136.6,495.6c-1-0.2-1.3,0.7-1.3,1.2c2-0.3,4-0.7,5.4-1.5c-0.2-0.2-0.4-0.3-0.8-0.3
			C138.6,495,138,495.8,136.6,495.6z"/>
		<linearGradient id="SVGID_38_" gradientUnits="userSpaceOnUse" x1="119.4825" y1="444.7423" x2="122.871" y2="434.115">
			<stop  offset="0" style="stop-color:#D2DBDA"/>
			<stop  offset="1" style="stop-color:#B5B5B5"/>
		</linearGradient>
		<path fill="url(#SVGID_38_)" d="M119.1,446.2c0,0,2.4-4.3,2.7-5.9c0.2-1.2-0.1-5-0.1-5s-0.3,3.6-0.5,4.8
			C120.8,441.6,119.1,446.2,119.1,446.2z"/>
		<linearGradient id="SVGID_39_" gradientUnits="userSpaceOnUse" x1="137.8772" y1="445.3721" x2="135.1801" y2="434.6606">
			<stop  offset="0" style="stop-color:#D2DBDA"/>
			<stop  offset="1" style="stop-color:#B5B5B5"/>
		</linearGradient>
		<path fill="url(#SVGID_39_)" d="M138.6,446.2c0,0-2.4-4.3-2.7-5.9c-0.2-1.2,0.1-5,0.1-5s0.3,3.6,0.5,4.8
			C136.9,441.6,138.6,446.2,138.6,446.2z"/>
		<linearGradient id="SVGID_40_" gradientUnits="userSpaceOnUse" x1="128.769" y1="450.718" x2="135.5399" y2="455.5325">
			<stop  offset="0" style="stop-color:#363B39"/>
			<stop  offset="1" style="stop-color:#000000"/>
		</linearGradient>
		<path fill="url(#SVGID_40_)" d="M140.1,449.6c-0.9-0.4-2.6-1.1-5.2-1.6c-0.9-0.2-1.9-0.3-2.9-0.4c-2.6,2.8-5.7,7.8-6.9,10
			c3-0.2,7.3-0.1,9.4,0.2c2.4,0.3,4.2,1,4.8,1.3l1.6-8.9C140.8,449.9,140.5,449.8,140.1,449.6z"/>
		<linearGradient id="SVGID_41_" gradientUnits="userSpaceOnUse" x1="122.0411" y1="458.8647" x2="148.3295" y2="502.0139">
			<stop  offset="0" style="stop-color:#F7F7F7"/>
			<stop  offset="1" style="stop-color:#DBDBDB"/>
		</linearGradient>
		<path fill="url(#SVGID_41_)" d="M128.8,459.3c-7.5-0.2-10,1.2-10,1.2s0.1,18.2,0.7,20c0.4,1.2,5.1,1.8,8.1,2h2.5
			c3-0.2,7.7-0.8,8.1-2c0.6-1.8,0.7-20,0.7-20S136.3,459.1,128.8,459.3z"/>
		<linearGradient id="SVGID_42_" gradientUnits="userSpaceOnUse" x1="125.3034" y1="486.8987" x2="137.8282" y2="507.4567">
			<stop  offset="0" style="stop-color:#F7F7F7"/>
			<stop  offset="1" style="stop-color:#DBDBDB"/>
		</linearGradient>
		<path fill="url(#SVGID_42_)" d="M130.1,495c7.3-0.2,10.5-2.3,10.5-2.3l-1.4-1.7c-4.6,2.5-10.4,2-10.4,2l0,0c0,0-5.8,0.5-10.4-2
			l-1.4,1.7c0,0,3.2,2.1,10.5,2.3c0.4,0,1.3,0,1.3,0h0C129.3,495,129.7,495,130.1,495z"/>
		<linearGradient id="SVGID_43_" gradientUnits="userSpaceOnUse" x1="112.9848" y1="426.8472" x2="119.4408" y2="445.4376">
			<stop  offset="0" style="stop-color:#F7F7F7"/>
			<stop  offset="1" style="stop-color:#DBDBDB"/>
		</linearGradient>
		<path fill="url(#SVGID_43_)" d="M120.5,433c0,0-4.5,2.3-5,7.4c-0.5,5.2-0.4,7.8-0.4,7.8S116.6,435.7,120.5,433z"/>
		
			<linearGradient id="SVGID_44_" gradientUnits="userSpaceOnUse" x1="243.0296" y1="426.8473" x2="249.4855" y2="445.4376" gradientTransform="matrix(-1 0 0 1 387.7031 0)">
			<stop  offset="0" style="stop-color:#F7F7F7"/>
			<stop  offset="1" style="stop-color:#DBDBDB"/>
		</linearGradient>
		<path fill="url(#SVGID_44_)" d="M137.2,433c0,0,4.5,2.3,5,7.4c0.5,5.2,0.4,7.8,0.4,7.8S141.1,435.7,137.2,433z"/>
		<g>
			<linearGradient id="SVGID_45_" gradientUnits="userSpaceOnUse" x1="141.4082" y1="450.8338" x2="144.0088" y2="455.869">
				<stop  offset="0" style="stop-color:#363B39"/>
				<stop  offset="1" style="stop-color:#1B1C1C"/>
			</linearGradient>
			<path fill="url(#SVGID_45_)" d="M141.7,450.4c0,0,1.2,0.2,1.2,1.2c0,1-1.2,3-1.2,1.8C141.7,452.1,141.6,450.8,141.7,450.4z"/>
			<linearGradient id="SVGID_46_" gradientUnits="userSpaceOnUse" x1="142.432" y1="452.349" x2="145.8723" y2="452.349">
				<stop  offset="0" style="stop-color:#FFFFFF"/>
				<stop  offset="1" style="stop-color:#D2D6D5"/>
			</linearGradient>
			<path fill="url(#SVGID_46_)" d="M145.8,452.6c-0.3-0.3-2.6-1.1-2.6-1.1c-0.5-0.2-0.6,0.3-0.7,0.6l3.4,1
				C145.9,453,145.9,452.8,145.8,452.6z"/>
			<linearGradient id="SVGID_47_" gradientUnits="userSpaceOnUse" x1="142.4324" y1="452.7843" x2="145.8725" y2="452.7843">
				<stop  offset="0" style="stop-color:#363B39"/>
				<stop  offset="1" style="stop-color:#1B1C1C"/>
			</linearGradient>
			<path fill="url(#SVGID_47_)" d="M142.5,452.2c0,0.2,0,0.4,0,0.4l3.3,0.8c0,0,0.1-0.1,0.1-0.2L142.5,452.2z"/>
		</g>
		<g>
			<linearGradient id="SVGID_48_" gradientUnits="userSpaceOnUse" x1="115.3265" y1="451.2795" x2="117.595" y2="456.2592">
				<stop  offset="0" style="stop-color:#363B39"/>
				<stop  offset="1" style="stop-color:#1B1C1C"/>
			</linearGradient>
			<path fill="url(#SVGID_48_)" d="M115.9,450.4c0,0-1.2,0.2-1.3,1.2c0,1,1.2,3,1.3,1.8C116,452.1,116.1,450.7,115.9,450.4z"/>
			<linearGradient id="SVGID_49_" gradientUnits="userSpaceOnUse" x1="111.7502" y1="452.3027" x2="115.1903" y2="452.3027">
				<stop  offset="0" style="stop-color:#D2D6D5"/>
				<stop  offset="1" style="stop-color:#FFFFFF"/>
			</linearGradient>
			<path fill="url(#SVGID_49_)" d="M114.5,451.5c0,0-2.4,0.7-2.6,1.1c-0.2,0.2-0.1,0.4-0.1,0.6l3.4-1
				C115.1,451.8,115,451.3,114.5,451.5z"/>
			<linearGradient id="SVGID_50_" gradientUnits="userSpaceOnUse" x1="111.75" y1="452.7348" x2="115.1899" y2="452.7348">
				<stop  offset="0" style="stop-color:#363B39"/>
				<stop  offset="1" style="stop-color:#1B1C1C"/>
			</linearGradient>
			<path fill="url(#SVGID_50_)" d="M111.8,453.2c0,0.1,0.1,0.2,0.1,0.2l3.3-0.8c0,0,0-0.2,0-0.4L111.8,453.2z"/>
		</g>
		<path fill="#595959" d="M114.5,463.6c-0.2,0-0.3,0.1-0.3,0.3v2.6c0,0.2,0.1,0.3,0.3,0.3V463.6z"/>
		<path fill="#595959" d="M114.4,476.6c-0.2,0-0.3,0.1-0.3,0.3v2.6c0,0.2,0.1,0.3,0.3,0.3V476.6z"/>
		<path fill="#595959" d="M143.1,463.6c0.2,0,0.3,0.1,0.3,0.3v2.6c0,0.2-0.1,0.3-0.3,0.3V463.6z"/>
		<path fill="#595959" d="M143.3,476.6c0.2,0,0.3,0.1,0.3,0.3v2.6c0,0.2-0.1,0.3-0.3,0.3V476.6z"/>
		<g>
			<g>
				<g>
					<path fill="#9E9E9E" d="M122,445.3c0.5,0,0.8-0.3,1.3-0.4c0,0,0.1,0,0.1-0.1c0,0,0-0.1-0.1-0.1c-0.5,0-0.8,0.3-1.3,0.4
						C122,445.1,122,445.2,122,445.3C122,445.3,122,445.3,122,445.3z"/>
					<path fill="#9E9E9E" d="M123.3,445.1c-0.5,0-0.8,0.3-1.3,0.4c0,0-0.1,0-0.1,0.1c0,0,0,0.1,0.1,0.1c0.5,0,0.8-0.3,1.3-0.4
						C123.3,445.2,123.4,445.2,123.3,445.1C123.4,445.1,123.3,445.1,123.3,445.1z"/>
					<path fill="#9E9E9E" d="M123.3,445.4c-0.5,0-0.8,0.3-1.3,0.4c0,0-0.1,0-0.1,0.1s0,0.1,0.1,0.1c0.5,0,0.8-0.3,1.3-0.4
						C123.3,445.5,123.4,445.5,123.3,445.4C123.4,445.4,123.3,445.4,123.3,445.4z"/>
				</g>
			</g>
			<g>
				<g>
					<path fill="#9E9E9E" d="M135.6,445.3c-0.5,0-0.8-0.3-1.3-0.4c0,0-0.1,0-0.1-0.1c0,0,0-0.1,0.1-0.1c0.5,0,0.8,0.3,1.3,0.4
						C135.6,445.1,135.7,445.2,135.6,445.3C135.7,445.3,135.6,445.3,135.6,445.3z"/>
					<path fill="#9E9E9E" d="M134.3,445.1c0.5,0,0.8,0.3,1.3,0.4c0,0,0.1,0,0.1,0.1c0,0,0,0.1-0.1,0.1c-0.5,0-0.8-0.3-1.3-0.4
						C134.3,445.2,134.3,445.2,134.3,445.1C134.3,445.1,134.3,445.1,134.3,445.1z"/>
					<path fill="#9E9E9E" d="M134.3,445.4c0.5,0,0.8,0.3,1.3,0.4c0,0,0.1,0,0.1,0.1s0,0.1-0.1,0.1c-0.5,0-0.8-0.3-1.3-0.4
						C134.3,445.5,134.3,445.5,134.3,445.4C134.3,445.4,134.3,445.4,134.3,445.4z"/>
				</g>
			</g>
		</g>
		<linearGradient id="SVGID_51_" gradientUnits="userSpaceOnUse" x1="124.186" y1="496.9414" x2="133.4365" y2="496.9414">
			<stop  offset="0" style="stop-color:#363B39"/>
			<stop  offset="1" style="stop-color:#1B1C1C"/>
		</linearGradient>
		<path fill="url(#SVGID_51_)" d="M132.9,496.7h-8.1c-0.2,0-0.4,0.1-0.6,0.3c2.5,0.2,4.6,0.2,4.6,0.2c0,0,2.1,0,4.6-0.2
			C133.3,496.8,133.1,496.7,132.9,496.7z"/>
		<linearGradient id="SVGID_52_" gradientUnits="userSpaceOnUse" x1="124.1756" y1="478.3007" x2="129.194" y2="485.996">
			<stop  offset="0" style="stop-color:#363B39"/>
			<stop  offset="1" style="stop-color:#000000"/>
		</linearGradient>
		<path fill="url(#SVGID_52_)" d="M138.1,483.5c-1.6,0.5-4.6,1.1-9.3,1.1c-0.9,0-1.8,0-2.7-0.1c-2.6,1.2-4.2,4.9-4.6,5.9
			c0.7,0.2,1.6,0.5,2.5,0.6c2.1,0.4,7.4,0.4,9.5,0c2.7-0.5,4.7-1.5,4.7-1.5S138.5,486.7,138.1,483.5z"/>
	</g>
	<g>
		<path opacity="0.3" d="M250.2,437.1c-0.5-5.2-1.6-5.6-4.2-8c-3.5-3.3-14.6-3.3-18.1,0c-2.6,2.4-3.7,2.9-4.2,8
			c-0.8,8-0.3,20.5-0.3,23.6c-0.2,16.5,0.6,26.5,1.5,30c1.1,4,12.1,3.8,12.1,3.8c0,0,11,0.2,12.1-3.8c1-3.5,1.7-13.5,1.5-30
			C250.5,457.6,251,445.1,250.2,437.1z"/>
		<radialGradient id="SVGID_53_" cx="232.2437" cy="462.9147" r="25.0508" gradientUnits="userSpaceOnUse">
			<stop  offset="0" style="stop-color:#FFBA00"/>
			<stop  offset="1" style="stop-color:#FFA100"/>
		</radialGradient>
		<path fill="url(#SVGID_53_)" d="M246.3,439.9c-0.3-2.9-0.8-4.4-1.8-5.6c-0.4,0.1-0.8,0-1.1-0.3l-3.3-2.1c-0.3-0.3-0.6-0.7-0.6-1.1
			c-0.2-0.1-0.3-0.1-0.5-0.2v2.8h-13.6v-2.8c-0.2,0.1-0.3,0.1-0.5,0.2c-0.1,0.4-0.3,0.8-0.6,1.1l-3.3,2.1c-0.3,0.3-0.8,0.3-1.1,0.3
			c-0.9,1.2-1.4,2.7-1.8,5.6c-0.9,7.7-0.3,19.9-0.3,22.9c-0.2,15.9,0.5,25.7,1.5,29c0.2,0.6,0.7,1.2,1.3,1.6
			c0.1-0.1,0.3-0.1,0.5-0.1c1.2,0,1.8,0.8,3.1,0.6c0.9-0.2,1.2,0.6,1.3,1.1c0.8,0.1,1.5,0.2,2.3,0.3c0.1-0.2,0.3-0.3,0.5-0.3h7.6
			c0.2,0,0.4,0.1,0.5,0.3c0.5-0.1,1.1-0.1,1.7-0.2c0.1-0.5,0.4-1.4,1.3-1.2c1.3,0.2,1.9-0.6,3.1-0.6c0.4,0,0.6,0.1,0.8,0.3
			c0.8-0.5,1.4-1.1,1.6-1.8c1-3.4,1.7-13.1,1.5-29C246.6,459.7,247.2,447.6,246.3,439.9z"/>
		<linearGradient id="SVGID_54_" gradientUnits="userSpaceOnUse" x1="225.4579" y1="431.5277" x2="239.029" y2="431.5277">
			<stop  offset="0" style="stop-color:#525956"/>
			<stop  offset="1" style="stop-color:#2C2E2E"/>
		</linearGradient>
		<path fill="url(#SVGID_54_)" d="M239,433.4v-2.8c-3.9-1.3-9.7-1.3-13.6,0v2.8H239z"/>
		
			<radialGradient id="SVGID_55_" cx="232.2436" cy="-5652.1514" r="14.1345" gradientTransform="matrix(1 0 0 4.0177 0 23170.8223)" gradientUnits="userSpaceOnUse">
			<stop  offset="0" style="stop-color:#FFE800"/>
			<stop  offset="1" style="stop-color:#FFC552"/>
		</radialGradient>
		<path fill="url(#SVGID_55_)" d="M245.5,440.4c-0.5-4.8-1.6-5.2-4.2-7.5c-3.5-3.1-14.6-3.1-18.1,0c-2.6,2.3-3.7,2.7-4.2,7.5
			c-0.8,7.4-0.3,19.1-0.3,22c-0.2,15.4,0.6,24.7,1.5,27.9c1.1,3.7,12.1,3.5,12.1,3.5c0,0,11,0.2,12.1-3.5c1-3.2,1.7-12.6,1.5-27.9
			C245.8,459.5,246.3,447.8,245.5,440.4z"/>
		<linearGradient id="SVGID_56_" gradientUnits="userSpaceOnUse" x1="222.3078" y1="457.4134" x2="242.1796" y2="457.4134">
			<stop  offset="0" style="stop-color:#000000"/>
			<stop  offset="1" style="stop-color:#1B1C1C"/>
		</linearGradient>
		<path fill="url(#SVGID_56_)" d="M226.8,456.4c-2.3,0.3-3.9,1-4.5,1.3l0.2,1.1c0,0,1.8-1,4.6-1.4c2.4-0.4,7.9-0.4,10.3,0
			c2.8,0.4,4.6,1.4,4.6,1.4l0.2-1.1c-0.6-0.3-2.2-0.9-4.5-1.3C235.1,456,229.4,456,226.8,456.4z"/>
		<linearGradient id="SVGID_57_" gradientUnits="userSpaceOnUse" x1="220.7384" y1="446.9845" x2="243.7489" y2="446.9845">
			<stop  offset="0" style="stop-color:#000000"/>
			<stop  offset="1" style="stop-color:#1B1C1C"/>
		</linearGradient>
		<path fill="url(#SVGID_57_)" d="M221.6,448.4c0.9-0.4,2.4-1.1,4.9-1.6c3.5-0.8,8.1-0.8,11.6,0c2.4,0.6,4,1.2,4.9,1.6
			c0.4,0.2,0.6,0.3,0.8,0.5l0,0c0,0,0.2-0.8,0.1-1c-0.1-0.2-0.4-0.3-0.8-0.6c-0.9-0.4-2.4-1.1-4.9-1.6c-3.5-0.8-8.1-0.8-11.6,0
			c-2.4,0.6-4,1.2-4.9,1.6c-0.5,0.2-0.7,0.4-0.8,0.6c-0.1,0.2,0.1,1,0.1,1l0,0C221,448.7,221.2,448.6,221.6,448.4z"/>
		<linearGradient id="SVGID_58_" gradientUnits="userSpaceOnUse" x1="220.8383" y1="451.9227" x2="243.6496" y2="451.9227">
			<stop  offset="0" style="stop-color:#363B39"/>
			<stop  offset="1" style="stop-color:#1B1C1C"/>
		</linearGradient>
		<path fill="url(#SVGID_58_)" d="M226.8,456.4c2.5-0.4,8.3-0.4,10.8,0c2.3,0.3,3.9,1,4.5,1.3l1.5-8.8c-0.1-0.1-0.4-0.3-0.8-0.5
			c-0.9-0.4-2.4-1.1-4.9-1.6c-3.5-0.8-8.1-0.8-11.6,0c-2.4,0.6-4,1.2-4.9,1.6c-0.4,0.2-0.6,0.3-0.8,0.5l1.5,8.8
			C222.9,457.4,224.6,456.7,226.8,456.4z"/>
		<linearGradient id="SVGID_59_" gradientUnits="userSpaceOnUse" x1="222.5914" y1="485.5732" x2="241.8958" y2="485.5732">
			<stop  offset="0" style="stop-color:#000000"/>
			<stop  offset="1" style="stop-color:#1B1C1C"/>
		</linearGradient>
		<path fill="url(#SVGID_59_)" d="M241.4,481.8c-0.1-0.4-0.2-0.8-0.3-1.1c0,0-0.1,0.1-0.4,0.2c-1,0.4-3.7,1.3-8.6,1.3
			c-4.4,0-7.5-1-8.5-1.4c-0.3-0.1-0.4-0.2-0.4-0.2c-0.1,0.4-0.2,0.7-0.3,1.1c-0.7,3.6-0.4,7.1-0.4,7.1s1.9,0.9,4.7,1.4
			c2.1,0.4,7.5,0.4,9.7,0c2.8-0.5,4.7-1.4,4.7-1.4S242.2,485.4,241.4,481.8z M241.1,487.9c0,0-1.8,0.9-4.4,1.4c-2,0.4-7,0.4-9,0
			c-2.6-0.5-4.4-1.4-4.4-1.4s-0.3-2.8,0.2-6c1.6,0.4,4.7,1.1,8.7,1.1c4.3,0,7.2-0.6,8.7-1C241.4,485.1,241.1,487.9,241.1,487.9z"/>
		<linearGradient id="SVGID_60_" gradientUnits="userSpaceOnUse" x1="223.2666" y1="485.7346" x2="241.2208" y2="485.7346">
			<stop  offset="0" style="stop-color:#363B39"/>
			<stop  offset="1" style="stop-color:#1B1C1C"/>
		</linearGradient>
		<path fill="url(#SVGID_60_)" d="M223.5,481.9c-0.4,3.2-0.2,6-0.2,6s1.8,0.9,4.4,1.4c2,0.4,7,0.4,9,0c2.6-0.5,4.4-1.4,4.4-1.4
			s0.3-2.8-0.2-6c-1.5,0.4-4.4,1-8.7,1C228.2,482.9,225.2,482.3,223.5,481.9z"/>
		<g>
			<linearGradient id="SVGID_61_" gradientUnits="userSpaceOnUse" x1="219.9572" y1="458.4901" x2="222.2055" y2="458.4901">
				<stop  offset="0" style="stop-color:#363B39"/>
				<stop  offset="1" style="stop-color:#1B1C1C"/>
			</linearGradient>
			<path fill="url(#SVGID_61_)" d="M220.3,467.7l1.9,0.7l-0.3-9.1l-1.8-10.8c0,0-0.2,2.8,0,6.7c0.1,2.5,0.4,5.9,0.4,8.2
				C220.4,465.6,220.3,467,220.3,467.7z"/>
			<linearGradient id="SVGID_62_" gradientUnits="userSpaceOnUse" x1="242.2813" y1="458.4901" x2="244.5303" y2="458.4901">
				<stop  offset="0" style="stop-color:#363B39"/>
				<stop  offset="1" style="stop-color:#1B1C1C"/>
			</linearGradient>
			<path fill="url(#SVGID_62_)" d="M244.2,467.7l-1.9,0.7l0.3-9.1l1.8-10.8c0,0,0.2,2.8,0,6.7c-0.1,2.5-0.4,5.9-0.4,8.2
				C244.1,465.6,244.1,467,244.2,467.7z"/>
		</g>
		<g>
			<linearGradient id="SVGID_63_" gradientUnits="userSpaceOnUse" x1="220.117" y1="475.1776" x2="222.4423" y2="475.1776">
				<stop  offset="0" style="stop-color:#363B39"/>
				<stop  offset="1" style="stop-color:#1B1C1C"/>
			</linearGradient>
			<path fill="url(#SVGID_63_)" d="M220.2,468.6l2,0.9l0.2,7.6c0,0-0.2,0.9-0.9,2.5c-0.9,1.8-1.3,2.3-1.3,2.3S220,471.4,220.2,468.6
				z"/>
			<linearGradient id="SVGID_64_" gradientUnits="userSpaceOnUse" x1="242.0452" y1="475.1776" x2="244.3697" y2="475.1776">
				<stop  offset="0" style="stop-color:#363B39"/>
				<stop  offset="1" style="stop-color:#1B1C1C"/>
			</linearGradient>
			<path fill="url(#SVGID_64_)" d="M244.3,468.6l-2,0.9L242,477c0,0,0.2,0.9,0.9,2.5c0.9,1.8,1.3,2.3,1.3,2.3
				S244.5,471.4,244.3,468.6z"/>
		</g>
		<g>
			
				<radialGradient id="SVGID_65_" cx="222.4509" cy="410.9444" r="2.1118" gradientTransform="matrix(1 0 0 1.0961 0 -17.916)" gradientUnits="userSpaceOnUse">
				<stop  offset="0" style="stop-color:#FFFFFF"/>
				<stop  offset="1" style="stop-color:#D2D6D5"/>
			</radialGradient>
			<path fill="url(#SVGID_65_)" d="M221.1,434l3.3-2.1c0.3-0.3,0.6-0.7,0.6-1.1c-0.9,0.3-1.8,0.8-2.4,1.3c-1.2,1-2,1.3-2.7,2.2
				C220.3,434.3,220.7,434.2,221.1,434z"/>
			
				<radialGradient id="SVGID_66_" cx="242.0365" cy="410.9444" r="2.1118" gradientTransform="matrix(1 0 0 1.0961 0 -17.916)" gradientUnits="userSpaceOnUse">
				<stop  offset="0" style="stop-color:#FFFFFF"/>
				<stop  offset="1" style="stop-color:#D2D6D5"/>
			</radialGradient>
			<path fill="url(#SVGID_66_)" d="M240.1,431.9l3.3,2.1c0.3,0.3,0.8,0.3,1.1,0.3c-0.7-0.9-1.5-1.2-2.7-2.2
				c-0.6-0.5-1.4-0.9-2.4-1.3C239.6,431.2,239.8,431.6,240.1,431.9z"/>
		</g>
		<path fill="#F15A29" d="M224.3,493.8c-1.3,0.2-1.9-0.6-3.1-0.6c-0.2,0-0.4,0-0.5,0.1c1.2,0.8,3,1.3,4.8,1.6
			C225.5,494.4,225.2,493.7,224.3,493.8z"/>
		<path fill="#F15A29" d="M239.6,493.8c-0.9-0.2-1.2,0.7-1.3,1.2c1.9-0.3,3.8-0.7,5.1-1.5c-0.2-0.2-0.4-0.3-0.8-0.3
			C241.4,493.2,240.9,494,239.6,493.8z"/>
		<linearGradient id="SVGID_67_" gradientUnits="userSpaceOnUse" x1="232.1223" y1="449.6096" x2="238.6251" y2="454.2335">
			<stop  offset="0" style="stop-color:#363B39"/>
			<stop  offset="1" style="stop-color:#000000"/>
		</linearGradient>
		<path fill="url(#SVGID_67_)" d="M242.9,448.4c-0.9-0.4-2.4-1.1-4.9-1.6c-0.8-0.2-1.8-0.3-2.7-0.4c-2.4,2.8-5.3,7.7-6.5,9.9
			c2.8-0.2,6.8-0.1,8.8,0.2c2.3,0.3,3.9,1,4.5,1.3l1.5-8.8C243.5,448.7,243.3,448.6,242.9,448.4z"/>
		<linearGradient id="SVGID_68_" gradientUnits="userSpaceOnUse" x1="222.7802" y1="469.4646" x2="241.7072" y2="469.4646">
			<stop  offset="0" style="stop-color:#FFFA61"/>
			<stop  offset="1" style="stop-color:#FFC552"/>
		</linearGradient>
		<path fill="url(#SVGID_68_)" d="M232.2,458c-7.1-0.2-9.5,1.2-9.5,1.2s0.1,18,0.6,19.8c0.4,1.2,4.8,1.7,7.7,2h2.3
			c2.8-0.2,7.3-0.8,7.7-2c0.5-1.8,0.6-19.8,0.6-19.8S239.3,457.9,232.2,458z"/>
		<linearGradient id="SVGID_69_" gradientUnits="userSpaceOnUse" x1="228.896" y1="485.4544" x2="240.7756" y2="504.9532">
			<stop  offset="0" style="stop-color:#FFFA61"/>
			<stop  offset="1" style="stop-color:#FFC552"/>
		</linearGradient>
		<path fill="url(#SVGID_69_)" d="M233.5,493.2c6.9-0.2,9.9-2.3,9.9-2.3l-1.4-1.7c-4.3,2.5-9.8,2-9.8,2l0,0c0,0-5.5,0.5-9.8-2
			l-1.4,1.7c0,0,3,2,9.9,2.3c0.4,0,1.2,0,1.2,0l0,0C232.7,493.2,233.1,493.2,233.5,493.2z"/>
		<path fill="#474747" d="M224.4,432.4c0,0-4.3,1.8-4.7,6.8c-0.5,5.1-0.4,7.7-0.4,7.7S220.7,435.2,224.4,432.4z"/>
		<path fill="#474747" d="M240.2,432.4c0,0,4.3,1.8,4.7,6.8c0.5,5.1,0.4,7.7,0.4,7.7S243.8,435.2,240.2,432.4z"/>
		<linearGradient id="SVGID_70_" gradientUnits="userSpaceOnUse" x1="244.0908" y1="449.6575" x2="246.6541" y2="454.6205">
			<stop  offset="0" style="stop-color:#363B39"/>
			<stop  offset="1" style="stop-color:#1B1C1C"/>
		</linearGradient>
		<path fill="url(#SVGID_70_)" d="M244.4,449.2c0,0,1.1,0.2,1.1,1.2c0,1-1.1,3-1.1,1.7C244.4,450.9,244.3,449.6,244.4,449.2z"/>
		<radialGradient id="SVGID_71_" cx="246.724" cy="451.1436" r="1.2794" gradientUnits="userSpaceOnUse">
			<stop  offset="0" style="stop-color:#FFBA00"/>
			<stop  offset="1" style="stop-color:#FFA100"/>
		</radialGradient>
		<path fill="url(#SVGID_71_)" d="M248.2,451.4c-0.2-0.3-2.5-1.1-2.5-1.1c-0.4-0.2-0.6,0.3-0.6,0.6l3.2,1
			C248.3,451.8,248.4,451.6,248.2,451.4z"/>
		<linearGradient id="SVGID_72_" gradientUnits="userSpaceOnUse" x1="245.0891" y1="451.5734" x2="248.334" y2="451.5734">
			<stop  offset="0" style="stop-color:#363B39"/>
			<stop  offset="1" style="stop-color:#1B1C1C"/>
		</linearGradient>
		<path fill="url(#SVGID_72_)" d="M245.1,451c0,0.2,0,0.4,0,0.4l3.1,0.8c0,0,0.1-0.1,0.1-0.2L245.1,451z"/>
		<linearGradient id="SVGID_73_" gradientUnits="userSpaceOnUse" x1="219.5104" y1="450.086" x2="221.7462" y2="454.9937">
			<stop  offset="0" style="stop-color:#363B39"/>
			<stop  offset="1" style="stop-color:#1B1C1C"/>
		</linearGradient>
		<path fill="url(#SVGID_73_)" d="M220.1,449.2c0,0-1.2,0.2-1.2,1.2c0,1,1.2,3,1.2,1.7C220.1,450.9,220.2,449.6,220.1,449.2z"/>
		<radialGradient id="SVGID_74_" cx="217.7559" cy="451.0979" r="1.2886" gradientUnits="userSpaceOnUse">
			<stop  offset="0" style="stop-color:#FFBA00"/>
			<stop  offset="1" style="stop-color:#FFA100"/>
		</radialGradient>
		<path fill="url(#SVGID_74_)" d="M218.7,450.3c0,0-2.2,0.7-2.5,1.1c-0.1,0.2-0.1,0.4-0.1,0.6l3.2-1
			C219.3,450.6,219.2,450.1,218.7,450.3z"/>
		<linearGradient id="SVGID_75_" gradientUnits="userSpaceOnUse" x1="216.1431" y1="451.5246" x2="219.3887" y2="451.5246">
			<stop  offset="0" style="stop-color:#363B39"/>
			<stop  offset="1" style="stop-color:#1B1C1C"/>
		</linearGradient>
		<path fill="url(#SVGID_75_)" d="M216.2,451.9c0,0.1,0.1,0.2,0.1,0.2l3.1-0.8c0,0,0-0.2,0-0.4L216.2,451.9z"/>
		<path fill="#595959" d="M217.9,462.3c-0.2,0-0.3,0.1-0.3,0.3v2.6c0,0.2,0.1,0.3,0.3,0.3V462.3z"/>
		<path fill="#595959" d="M218.1,475c-0.2,0-0.3,0.1-0.3,0.3v2.6c0,0.2,0.1,0.3,0.3,0.3V475z"/>
		<path fill="#595959" d="M246.6,462.3c0.2,0,0.3,0.1,0.3,0.3v2.6c0,0.2-0.1,0.3-0.3,0.3V462.3z"/>
		<path fill="#595959" d="M246.4,475c0.2,0,0.3,0.1,0.3,0.3v2.6c0,0.2-0.1,0.3-0.3,0.3V475z"/>
		<linearGradient id="SVGID_76_" gradientUnits="userSpaceOnUse" x1="227.8754" y1="495.1721" x2="236.6026" y2="495.1721">
			<stop  offset="0" style="stop-color:#363B39"/>
			<stop  offset="1" style="stop-color:#1B1C1C"/>
		</linearGradient>
		<path fill="url(#SVGID_76_)" d="M236.1,494.9h-7.6c-0.2,0-0.4,0.1-0.5,0.3c2.4,0.2,4.4,0.2,4.4,0.2c0,0,2,0,4.4-0.2
			C236.5,495,236.3,494.9,236.1,494.9z"/>
		<linearGradient id="SVGID_77_" gradientUnits="userSpaceOnUse" x1="227.7695" y1="476.9984" x2="232.5836" y2="484.3806">
			<stop  offset="0" style="stop-color:#363B39"/>
			<stop  offset="1" style="stop-color:#000000"/>
		</linearGradient>
		<path fill="url(#SVGID_77_)" d="M241,481.9c-1.5,0.4-4.4,1-8.7,1c-0.9,0-1.7,0-2.5-0.1c-2.5,1.2-4,4.9-4.4,5.8
			c0.7,0.2,1.5,0.5,2.4,0.6c2,0.4,7,0.4,9,0c2.6-0.5,4.4-1.4,4.4-1.4S241.4,485.1,241,481.9z"/>
		<g>
			<g>
				<path fill="#3C2415" d="M236.5,465.4H228v-3.2h8.5V465.4z M228.4,465h7.7v-2.4h-7.7V465z"/>
			</g>
			<rect x="228.2" y="463.9" fill="#C96E00" width="8" height="1.3"/>
			<rect x="228.2" y="462.4" fill="#FBB040" width="8" height="1.3"/>
			<g>
				<rect x="229.6" y="464.1" fill="#3C2415" width="1.1" height="0.5"/>
				<rect x="228.5" y="464.6" fill="#3C2415" width="1.1" height="0.5"/>
				<rect x="234.9" y="464.6" fill="#3C2415" width="1.1" height="0.5"/>
				<polygon fill="#3C2415" points="232.8,464.2 231.7,464.2 231.7,464.6 230.7,464.6 230.7,465.1 231.7,465.1 231.7,464.6 
					232.7,464.6 232.7,465.1 233.8,465.1 233.8,464.6 232.8,464.6 				"/>
				<rect x="233.8" y="464.1" fill="#3C2415" width="1.1" height="0.5"/>
			</g>
			<g>
				<rect x="229.6" y="463" fill="#3C2415" width="1.1" height="0.5"/>
				<rect x="228.5" y="462.5" fill="#3C2415" width="1.1" height="0.5"/>
				<rect x="234.9" y="462.5" fill="#3C2415" width="1.1" height="0.5"/>
				<polygon fill="#3C2415" points="232.8,463.5 231.7,463.5 231.7,463 230.7,463 230.7,462.5 231.7,462.5 231.7,463 232.7,463 
					232.7,462.5 233.8,462.5 233.8,463 232.8,463 				"/>
				<rect x="233.8" y="463" fill="#3C2415" width="1.1" height="0.5"/>
			</g>
			<rect x="228" y="463.6" fill="#66493A" width="8.5" height="0.5"/>
		</g>
		
			<radialGradient id="SVGID_78_" cx="227.1332" cy="673.7784" r="2.8723" gradientTransform="matrix(2.312 0 0 0.6091 -292.8869 52.5161)" gradientUnits="userSpaceOnUse">
			<stop  offset="0" style="stop-color:#FFE800"/>
			<stop  offset="8.564332e-002" style="stop-color:#CFBC00"/>
			<stop  offset="0.194" style="stop-color:#998B00"/>
			<stop  offset="0.3035" style="stop-color:#6A6000"/>
			<stop  offset="0.4119" style="stop-color:#443E00"/>
			<stop  offset="0.5189" style="stop-color:#262300"/>
			<stop  offset="0.6242" style="stop-color:#110F00"/>
			<stop  offset="0.7269" style="stop-color:#040400"/>
			<stop  offset="0.8242" style="stop-color:#000000"/>
		</radialGradient>
		<ellipse fill="url(#SVGID_78_)" cx="232.2" cy="462.9" rx="6.6" ry="1.7"/>
		
			<radialGradient id="SVGID_79_" cx="227.1332" cy="803.2363" r="2.8795" gradientTransform="matrix(2.312 0 0 0.4905 -292.8869 70.8666)" gradientUnits="userSpaceOnUse">
			<stop  offset="0" style="stop-color:#FFC900"/>
			<stop  offset="8.564332e-002" style="stop-color:#CFA300"/>
			<stop  offset="0.194" style="stop-color:#997800"/>
			<stop  offset="0.3035" style="stop-color:#6A5300"/>
			<stop  offset="0.4119" style="stop-color:#443500"/>
			<stop  offset="0.5189" style="stop-color:#261E00"/>
			<stop  offset="0.6242" style="stop-color:#110D00"/>
			<stop  offset="0.7269" style="stop-color:#040300"/>
			<stop  offset="0.8242" style="stop-color:#000000"/>
		</radialGradient>
		<ellipse fill="url(#SVGID_79_)" cx="232.2" cy="464.9" rx="6.7" ry="1.4"/>
	</g>
	<g>
		<path opacity="0.3" d="M317.3,438.2c-0.5-4.9-1.6-5.3-4.2-7.6c-3.5-3.1-14.6-3.1-18.1,0c-2.6,2.3-3.7,2.7-4.2,7.6
			c-0.8,7.6-0.3,19.4-0.3,22.3c-0.2,15.6,0.6,25.1,1.5,28.4c1.1,3.8,12.1,3.6,12.1,3.6c0,0,11,0.2,12.1-3.6c1-3.3,1.7-12.8,1.5-28.4
			C317.6,457.6,318.1,445.8,317.3,438.2z"/>
		<linearGradient id="SVGID_80_" gradientUnits="userSpaceOnUse" x1="293.897" y1="432.1762" x2="307.0324" y2="432.1762">
			<stop  offset="0" style="stop-color:#525956"/>
			<stop  offset="1" style="stop-color:#2C2E2E"/>
		</linearGradient>
		<path fill="url(#SVGID_80_)" d="M307,434.3V431c-3.7-1.3-9.4-1.3-13.1,0v3.3H307z"/>
		
			<radialGradient id="SVGID_81_" cx="305.7831" cy="-3733.9526" r="18.8324" gradientTransform="matrix(0.9955 0 0 2.2823 -0.1649 8986.1465)" gradientUnits="userSpaceOnUse">
			<stop  offset="0" style="stop-color:#F7F7F7"/>
			<stop  offset="1" style="stop-color:#A8ABAA"/>
		</radialGradient>
		<path fill="url(#SVGID_81_)" d="M287.8,463.8c0-2-0.6-8-0.5-14h-0.8c-0.1,6.2,0.6,12.4,0.6,14.4c-0.1,9.4,0.1,16.6,0.5,21.7h0.9
			C287.9,480.9,287.6,473.5,287.8,463.8z"/>
		
			<radialGradient id="SVGID_82_" cx="298.1958" cy="-3733.9526" r="19.0705" gradientTransform="matrix(0.9955 0 0 2.2823 -0.1649 8986.1465)" gradientUnits="userSpaceOnUse">
			<stop  offset="0" style="stop-color:#F7F7F7"/>
			<stop  offset="1" style="stop-color:#A8ABAA"/>
		</radialGradient>
		<path fill="url(#SVGID_82_)" d="M314,464.2c0-2,0.6-8.2,0.6-14.4h-0.8c0.1,6-0.5,12.1-0.5,14c0.1,9.8-0.1,17.1-0.5,22.1h0.9
			C313.9,480.8,314.1,473.5,314,464.2z"/>
		
			<linearGradient id="SVGID_83_" gradientUnits="userSpaceOnUse" x1="276.6969" y1="445.5917" x2="301.765" y2="445.5917" gradientTransform="matrix(1.041 0 0 1.1476 -0.6243 -19.8082)">
			<stop  offset="0" style="stop-color:#363B39"/>
			<stop  offset="1" style="stop-color:#1B1C1C"/>
		</linearGradient>
		<path fill="url(#SVGID_83_)" d="M312.6,485.9c-0.3,3-0.2,5.1-0.5,6.3c-0.2,0.6-0.6,1.1-1.2,1.5l-1.2-5.6h-18.5l-1.5,5.4
			c-0.4-0.4-0.8-0.8-0.9-1.3c-0.3-1.2-0.3-3.3-0.5-6.3h-0.9c0.3,3.8,0.2,6.4,0.6,7.8c0.2,0.6,0.6,1.2,1.3,1.6
			c0.1-0.1,0.3-0.1,0.5-0.1c1.1,0,1.7,0.8,3,0.6c0.8-0.2,1.1,0.6,1.2,1.1c0.7,0.1,1.5,0.2,2.2,0.3c0.1-0.2,0.3-0.3,0.5-0.3h7.4
			c0.2,0,0.4,0.1,0.5,0.3c0.5-0.1,1.1-0.1,1.6-0.2c0.1-0.5,0.3-1.4,1.2-1.2c1.3,0.2,1.8-0.6,3-0.6c0.4,0,0.6,0.1,0.8,0.3
			c0.8-0.5,1.4-1.1,1.6-1.8c0.4-1.4,0.4-4.1,0.6-7.8H312.6z"/>
		
			<linearGradient id="SVGID_84_" gradientUnits="userSpaceOnUse" x1="295.5396" y1="401.0029" x2="302.7324" y2="401.0029" gradientTransform="matrix(1.041 0 0 1.1476 -0.6243 -19.8082)">
			<stop  offset="0" style="stop-color:#1B1C1C"/>
			<stop  offset="1" style="stop-color:#363B39"/>
		</linearGradient>
		<path fill="url(#SVGID_84_)" d="M313.3,441.4c0.3,2.5,0.4,5.4,0.4,8.4h0.8c0-3.1-0.2-6.2-0.4-8.9c-0.3-3-0.8-4.5-1.7-5.7
			c-0.4,0.1-0.8,0-1.1-0.3l-3.2-2.6c-0.3-0.3-0.5-0.7-0.6-1.1c-0.2-0.1-0.3-0.1-0.5-0.2v1c0.9,0.3,1.6,0.8,2.2,1.3
			C311.7,435.6,312.8,436.4,313.3,441.4z"/>
		
			<linearGradient id="SVGID_85_" gradientUnits="userSpaceOnUse" x1="275.7295" y1="401.0029" x2="282.9215" y2="401.0029" gradientTransform="matrix(1.041 0 0 1.1476 -0.6243 -19.8082)">
			<stop  offset="0" style="stop-color:#1B1C1C"/>
			<stop  offset="1" style="stop-color:#363B39"/>
		</linearGradient>
		<path fill="url(#SVGID_85_)" d="M287.7,441.4c0.5-4.9,1.5-5.8,4.1-8.1c0.6-0.5,1.3-0.9,2.2-1.3v-1c-0.2,0.1-0.3,0.1-0.5,0.2
			c-0.1,0.4-0.3,0.8-0.6,1.1l-3.2,2.6c-0.3,0.3-0.7,0.3-1.1,0.3c-0.9,1.2-1.4,2.8-1.7,5.7c-0.3,2.6-0.4,5.7-0.4,8.9h0.8
			C287.3,446.8,287.4,443.9,287.7,441.4z"/>
		
			<radialGradient id="SVGID_86_" cx="301.9886" cy="-3733.9529" r="17.2747" gradientTransform="matrix(0.9955 0 0 2.2823 -0.1649 8986.1465)" gradientUnits="userSpaceOnUse">
			<stop  offset="0" style="stop-color:#F7F7F7"/>
			<stop  offset="1" style="stop-color:#A8ABAA"/>
		</radialGradient>
		<path fill="url(#SVGID_86_)" d="M287.8,463.8c-0.2,15.6,0.1,25.1,1,28.4c0.1,0.5,0.5,1,0.9,1.3l1.5-5.4h18.5l1.2,5.6
			c0.6-0.4,1-0.9,1.2-1.5c0.9-3.3,1.2-12.8,1-28.4c0-2,0.6-8,0.5-14h-26.4C287.1,455.8,287.8,461.8,287.8,463.8z"/>
		
			<radialGradient id="SVGID_87_" cx="301.9886" cy="-5656.7793" r="13.8144" gradientTransform="matrix(0.9955 0 0 4.2065 -0.1649 24258.4434)" gradientUnits="userSpaceOnUse">
			<stop  offset="0" style="stop-color:#FFFFFF"/>
			<stop  offset="1" style="stop-color:#D2D6D5"/>
		</radialGradient>
		<path fill="url(#SVGID_87_)" d="M287.8,463.8c-0.2,15.6,0.1,25.1,1,28.4c0.1,0.5,0.5,1,0.9,1.3l1.5-5.4h18.5l1.2,5.6
			c0.6-0.4,1-0.9,1.2-1.5c0.9-3.3,1.2-12.8,1-28.4c0-2,0.6-8,0.5-14h-26.4C287.1,455.8,287.8,461.8,287.8,463.8z"/>
		
			<radialGradient id="SVGID_88_" cx="301.9886" cy="-3733.9529" r="17.2786" gradientTransform="matrix(0.9955 0 0 2.2823 -0.1649 8986.1465)" gradientUnits="userSpaceOnUse">
			<stop  offset="0" style="stop-color:#F7F7F7"/>
			<stop  offset="1" style="stop-color:#A8ABAA"/>
		</radialGradient>
		<path fill="url(#SVGID_88_)" d="M287.7,441.4c-0.3,2.5-0.4,5.4-0.4,8.4h26.4c0-2.9-0.2-5.9-0.4-8.4c-0.5-4.9-1.5-5.8-4.1-8.1
			c-0.6-0.5-1.3-0.9-2.2-1.3v2.3h-13.1V432c-0.9,0.3-1.6,0.8-2.2,1.3C289.2,435.6,288.2,436.4,287.7,441.4z"/>
		<linearGradient id="SVGID_89_" gradientUnits="userSpaceOnUse" x1="287.2418" y1="440.3481" x2="313.6877" y2="440.3481">
			<stop  offset="0" style="stop-color:#363B39"/>
			<stop  offset="1" style="stop-color:#1B1C1C"/>
		</linearGradient>
		<path fill="url(#SVGID_89_)" d="M313.3,441.4c-0.5-4.9-1.5-5.8-4.1-8.1c-0.6-0.5-1.3-0.9-2.2-1.3c-3.6-1.4-9.5-1.4-13.1,0
			c-0.9,0.3-1.6,0.8-2.2,1.3c-2.5,2.3-3.5,3.1-4.1,8.1c-0.3,2.5-0.4,5.4-0.4,8.4h26.4C313.6,446.8,313.5,443.9,313.3,441.4z"/>
		<path fill="#ED1C24" d="M295.7,430.4c0.1,0.2-0.1,0.5-0.3,0.6l-0.7,0.2c-0.2,0.1-0.5-0.1-0.6-0.3l0,0c-0.1-0.2,0.1-0.5,0.3-0.6
			l0.7-0.2C295.4,430,295.7,430.1,295.7,430.4L295.7,430.4z"/>
		<path fill="#008AE8" d="M305.2,430.4c-0.1,0.2,0.1,0.5,0.3,0.6l0.7,0.2c0.2,0.1,0.5-0.1,0.6-0.3l0,0c0.1-0.2-0.1-0.5-0.3-0.6
			l-0.7-0.2C305.5,430,305.3,430.1,305.2,430.4L305.2,430.4z"/>
		<linearGradient id="SVGID_90_" gradientUnits="userSpaceOnUse" x1="289.3289" y1="448.1258" x2="311.6009" y2="448.1258">
			<stop  offset="0" style="stop-color:#000000"/>
			<stop  offset="1" style="stop-color:#1B1C1C"/>
		</linearGradient>
		<path fill="url(#SVGID_90_)" d="M290.2,449.6c0.9-0.4,2.4-1.1,4.7-1.7c3.4-0.8,7.8-0.8,11.2,0c2.3,0.6,3.8,1.2,4.7,1.7
			c0.4,0.2,0.6,0.3,0.7,0.5l0,0c0,0,0.2-0.8,0.1-1c-0.1-0.2-0.3-0.4-0.8-0.6c-0.9-0.4-2.4-1.1-4.7-1.7c-3.4-0.8-7.8-0.8-11.2,0
			c-2.3,0.6-3.8,1.2-4.7,1.7c-0.5,0.2-0.7,0.4-0.8,0.6c-0.1,0.2,0.1,1,0.1,1l0,0C289.5,449.9,289.8,449.8,290.2,449.6z"/>
		<linearGradient id="SVGID_91_" gradientUnits="userSpaceOnUse" x1="289.4253" y1="453.1521" x2="311.505" y2="453.1521">
			<stop  offset="0" style="stop-color:#363B39"/>
			<stop  offset="1" style="stop-color:#1B1C1C"/>
		</linearGradient>
		<path fill="url(#SVGID_91_)" d="M295.2,457.7c2.4-0.4,8-0.4,10.4,0c2.2,0.3,3.8,1,4.4,1.3l1.4-8.9c-0.1-0.1-0.4-0.3-0.7-0.5
			c-0.9-0.4-2.4-1.1-4.7-1.7c-3.4-0.8-7.8-0.8-11.2,0c-2.3,0.6-3.8,1.2-4.7,1.7c-0.4,0.2-0.6,0.3-0.7,0.5l1.4,8.9
			C291.4,458.7,293,458,295.2,457.7z"/>
		<linearGradient id="SVGID_92_" gradientUnits="userSpaceOnUse" x1="300.3365" y1="495.4337" x2="300.3365" y2="490.4038">
			<stop  offset="0" style="stop-color:#363B39"/>
			<stop  offset="1" style="stop-color:#1B1C1C"/>
		</linearGradient>
		<path fill="url(#SVGID_92_)" d="M291.2,488.2l-1.5,5.4c2.8,2.4,10.8,2.3,10.8,2.3c0,0,7.5,0.1,10.5-2.1l-1.2-5.6H291.2z"/>
		<linearGradient id="SVGID_93_" gradientUnits="userSpaceOnUse" x1="291.7762" y1="485.9957" x2="309.1544" y2="485.9957">
			<stop  offset="0" style="stop-color:#363B39"/>
			<stop  offset="1" style="stop-color:#1B1C1C"/>
		</linearGradient>
		<path fill="url(#SVGID_93_)" d="M292,483.2c-0.4,2.3-0.2,4.3-0.2,4.3s1.8,0.7,4.3,1c1.9,0.3,6.8,0.3,8.7,0c2.5-0.4,4.3-1,4.3-1
			s0.3-2-0.2-4.2c-1.5,0.3-4.2,0.7-8.4,0.7C296.5,484,293.6,483.6,292,483.2z"/>
		<g>
			<linearGradient id="SVGID_94_" gradientUnits="userSpaceOnUse" x1="288.1989" y1="459.8367" x2="290.7489" y2="459.8367">
				<stop  offset="0" style="stop-color:#363B39"/>
				<stop  offset="1" style="stop-color:#1B1C1C"/>
			</linearGradient>
			<path fill="url(#SVGID_94_)" d="M288.5,469.2l2.3,0.7l-0.3-9.2l-1.8-10.9c0,0-0.6,2.8-0.4,6.8c0.1,2.5,0.4,6,0.4,8.3
				C288.6,467,288.5,468.5,288.5,469.2z"/>
			<linearGradient id="SVGID_95_" gradientUnits="userSpaceOnUse" x1="310.1805" y1="459.8367" x2="312.7312" y2="459.8367">
				<stop  offset="0" style="stop-color:#363B39"/>
				<stop  offset="1" style="stop-color:#1B1C1C"/>
			</linearGradient>
			<path fill="url(#SVGID_95_)" d="M312.5,469.2l-2.3,0.7l0.3-9.2l1.8-10.9c0,0,0.6,2.8,0.4,6.8c-0.1,2.5-0.4,6-0.4,8.3
				C312.3,467,312.4,468.5,312.5,469.2z"/>
		</g>
		<g>
			<linearGradient id="SVGID_96_" gradientUnits="userSpaceOnUse" x1="288.3116" y1="476.8222" x2="290.9779" y2="476.8222">
				<stop  offset="0" style="stop-color:#363B39"/>
				<stop  offset="1" style="stop-color:#1B1C1C"/>
			</linearGradient>
			<path fill="url(#SVGID_96_)" d="M288.4,470.1l2.4,0.9l0.2,7.7c0,0-0.2,1-0.9,2.5c-0.8,1.8-1.7,2.3-1.7,2.3S288.2,473,288.4,470.1
				z"/>
			<linearGradient id="SVGID_97_" gradientUnits="userSpaceOnUse" x1="309.9516" y1="476.8222" x2="312.6177" y2="476.8222">
				<stop  offset="0" style="stop-color:#363B39"/>
				<stop  offset="1" style="stop-color:#1B1C1C"/>
			</linearGradient>
			<path fill="url(#SVGID_97_)" d="M312.5,470.1l-2.4,0.9l-0.2,7.7c0,0,0.2,1,0.9,2.5c0.8,1.8,1.7,2.3,1.7,2.3
				S312.7,473,312.5,470.1z"/>
		</g>
		<g>
			
				<radialGradient id="SVGID_98_" cx="292.4668" cy="394.7325" r="2.1273" gradientTransform="matrix(0.9955 0 0 1.1476 -0.1644 -19.8086)" gradientUnits="userSpaceOnUse">
				<stop  offset="0" style="stop-color:#FFFFFF"/>
				<stop  offset="1" style="stop-color:#D2D6D5"/>
			</radialGradient>
			<path fill="url(#SVGID_98_)" d="M289.6,434.9l3.2-2.6c0.3-0.3,0.5-0.7,0.6-1.1c-0.9,0.4-1.7,0.8-2.3,1.3c-1.1,1-2,1.7-2.6,2.6
				C288.9,435.2,289.3,435.2,289.6,434.9z"/>
			
				<radialGradient id="SVGID_99_" cx="311.51" cy="394.7325" r="2.1274" gradientTransform="matrix(0.9955 0 0 1.1476 -0.1644 -19.8086)" gradientUnits="userSpaceOnUse">
				<stop  offset="0" style="stop-color:#FFFFFF"/>
				<stop  offset="1" style="stop-color:#D2D6D5"/>
			</radialGradient>
			<path fill="url(#SVGID_99_)" d="M308.1,432.3l3.2,2.6c0.3,0.3,0.7,0.3,1.1,0.3c-0.6-0.9-1.5-1.6-2.6-2.6c-0.6-0.5-1.4-1-2.3-1.3
				C307.6,431.6,307.8,432,308.1,432.3z"/>
		</g>
		<linearGradient id="SVGID_100_" gradientUnits="userSpaceOnUse" x1="289.3448" y1="496.0663" x2="294.0257" y2="496.0663">
			<stop  offset="0" style="stop-color:#F37E5F"/>
			<stop  offset="0.5" style="stop-color:#EC1C24"/>
			<stop  offset="1" style="stop-color:#CF232A"/>
		</linearGradient>
		<path fill="url(#SVGID_100_)" d="M292.8,495.8c-1.3,0.2-1.8-0.6-3-0.6c-0.2,0-0.4,0-0.5,0.1c1.2,0.8,2.9,1.3,4.7,1.6
			C293.9,496.4,293.6,495.6,292.8,495.8z"/>
		<linearGradient id="SVGID_101_" gradientUnits="userSpaceOnUse" x1="306.3278" y1="496.1133" x2="311.2833" y2="496.1133">
			<stop  offset="0" style="stop-color:#F37E5F"/>
			<stop  offset="0.5" style="stop-color:#EC1C24"/>
			<stop  offset="1" style="stop-color:#CF232A"/>
		</linearGradient>
		<path fill="url(#SVGID_101_)" d="M307.6,495.8c-0.9-0.2-1.1,0.7-1.2,1.2c1.8-0.3,3.7-0.7,5-1.5c-0.2-0.2-0.4-0.3-0.8-0.3
			C309.4,495.2,308.8,496,307.6,495.8z"/>
		<linearGradient id="SVGID_102_" gradientUnits="userSpaceOnUse" x1="300.241" y1="450.8642" x2="306.6774" y2="455.4408">
			<stop  offset="0" style="stop-color:#363B39"/>
			<stop  offset="1" style="stop-color:#000000"/>
		</linearGradient>
		<path fill="url(#SVGID_102_)" d="M310.8,449.6c-0.9-0.4-2.4-1.1-4.7-1.7c-0.8-0.2-1.7-0.3-2.6-0.4c-2.4,2.8-5.2,7.9-6.3,10
			c2.7-0.2,6.6-0.1,8.6,0.2c2.2,0.3,3.8,1,4.4,1.3l1.4-8.9C311.4,449.9,311.1,449.8,310.8,449.6z"/>
		<linearGradient id="SVGID_103_" gradientUnits="userSpaceOnUse" x1="293.8754" y1="459.324" x2="319.4305" y2="501.2696">
			<stop  offset="0" style="stop-color:#F7F7F7"/>
			<stop  offset="1" style="stop-color:#DBDBDB"/>
		</linearGradient>
		<path fill="url(#SVGID_103_)" d="M300.5,459.4c-6.9-0.2-9.2,1.2-9.2,1.2s0.1,18.3,0.6,20.1c0.4,1.2,4.7,1.8,7.4,2h2.3
			c2.7-0.2,7.1-0.8,7.4-2c0.5-1.8,0.6-20.1,0.6-20.1S307.3,459.2,300.5,459.4z"/>
		<path fill="#111111" d="M292.8,432.9c0,0-4.1,2.3-4.6,7.4c-0.4,5.2-0.4,7.8-0.4,7.8S289.3,435.7,292.8,432.9z"/>
		<path fill="#111111" d="M308.1,432.9c0,0,4.1,2.3,4.6,7.4c0.4,5.2,0.4,7.8,0.4,7.8S311.7,435.7,308.1,432.9z"/>
		<g>
			<linearGradient id="SVGID_104_" gradientUnits="userSpaceOnUse" x1="311.8965" y1="450.8566" x2="314.5015" y2="455.9003">
				<stop  offset="0" style="stop-color:#363B39"/>
				<stop  offset="1" style="stop-color:#1B1C1C"/>
			</linearGradient>
			<path fill="url(#SVGID_104_)" d="M312.2,450.4c0,0,1.1,0.2,1.1,1.2c0,1-1.1,3.1-1.1,1.8C312.2,452.1,312.1,450.8,312.2,450.4z"/>
			<linearGradient id="SVGID_105_" gradientUnits="userSpaceOnUse" x1="312.8979" y1="452.3591" x2="316.0388" y2="452.3591">
				<stop  offset="0" style="stop-color:#FFFFFF"/>
				<stop  offset="1" style="stop-color:#D2D6D5"/>
			</linearGradient>
			<path fill="url(#SVGID_105_)" d="M315.9,452.6c-0.2-0.3-2.4-1.1-2.4-1.1c-0.4-0.2-0.6,0.3-0.6,0.6l3.1,1
				C316,453,316.1,452.8,315.9,452.6z"/>
			<linearGradient id="SVGID_106_" gradientUnits="userSpaceOnUse" x1="312.8982" y1="452.7967" x2="316.0391" y2="452.7967">
				<stop  offset="0" style="stop-color:#363B39"/>
				<stop  offset="1" style="stop-color:#1B1C1C"/>
			</linearGradient>
			<path fill="url(#SVGID_106_)" d="M312.9,452.2c0,0.2,0,0.4,0,0.4l3,0.8c0,0,0-0.1,0.1-0.2L312.9,452.2z"/>
		</g>
		<g>
			<linearGradient id="SVGID_107_" gradientUnits="userSpaceOnUse" x1="288.132" y1="451.2805" x2="290.4035" y2="456.2667">
				<stop  offset="0" style="stop-color:#363B39"/>
				<stop  offset="1" style="stop-color:#1B1C1C"/>
			</linearGradient>
			<path fill="url(#SVGID_107_)" d="M288.7,450.4c0,0-1.1,0.2-1.2,1.2c0,1,1.1,3.1,1.2,1.8C288.7,452.1,288.8,450.7,288.7,450.4z"/>
			<linearGradient id="SVGID_108_" gradientUnits="userSpaceOnUse" x1="284.8813" y1="452.3126" x2="288.0229" y2="452.3126">
				<stop  offset="0" style="stop-color:#D2D6D5"/>
				<stop  offset="1" style="stop-color:#FFFFFF"/>
			</linearGradient>
			<path fill="url(#SVGID_108_)" d="M287.4,451.5c0,0-2.2,0.7-2.4,1.1c-0.1,0.2-0.1,0.4-0.1,0.6l3.1-1
				C288,451.8,287.8,451.3,287.4,451.5z"/>
			<linearGradient id="SVGID_109_" gradientUnits="userSpaceOnUse" x1="284.8809" y1="452.7467" x2="288.0224" y2="452.7467">
				<stop  offset="0" style="stop-color:#363B39"/>
				<stop  offset="1" style="stop-color:#1B1C1C"/>
			</linearGradient>
			<path fill="url(#SVGID_109_)" d="M284.9,453.2c0,0.1,0.1,0.2,0.1,0.2l3-0.8c0,0,0-0.2,0-0.4L284.9,453.2z"/>
		</g>
		<path fill="#595959" d="M287,463.7c-0.2,0-0.3,0.1-0.3,0.3v2.6c0,0.2,0.1,0.3,0.3,0.3V463.7z"/>
		<path fill="#595959" d="M287.1,476.7c-0.2,0-0.3,0.1-0.3,0.3v2.6c0,0.2,0.1,0.3,0.3,0.3V476.7z"/>
		<linearGradient id="SVGID_110_" gradientUnits="userSpaceOnUse" x1="291.1225" y1="485.8809" x2="309.8076" y2="485.8809">
			<stop  offset="0" style="stop-color:#000000"/>
			<stop  offset="1" style="stop-color:#1B1C1C"/>
		</linearGradient>
		<path fill="url(#SVGID_110_)" d="M309.4,483.2c-0.1-0.3-0.2-0.5-0.3-0.8c0,0-0.1,0-0.4,0.1c-0.9,0.3-3.6,1-8.3,1
			c-4.3,0-7.3-0.7-8.3-1c-0.3-0.1-0.4-0.1-0.4-0.1c-0.1,0.3-0.2,0.5-0.2,0.8c-0.7,2.6-0.4,5-0.4,5s1.9,0.7,4.6,1
			c2.1,0.3,7.3,0.3,9.4,0c2.7-0.4,4.6-1,4.6-1S310.1,485.7,309.4,483.2z M309.1,487.5c0,0-1.8,0.7-4.3,1c-1.9,0.3-6.8,0.3-8.7,0
			c-2.5-0.4-4.3-1-4.3-1s-0.3-2,0.2-4.3c1.6,0.3,4.5,0.8,8.4,0.8c4.2,0,7-0.4,8.4-0.7C309.3,485.5,309.1,487.5,309.1,487.5z"/>
		<path fill="#595959" d="M313.9,463.7c0.2,0,0.3,0.1,0.3,0.3v2.6c0,0.2-0.1,0.3-0.3,0.3V463.7z"/>
		<linearGradient id="SVGID_111_" gradientUnits="userSpaceOnUse" x1="290.8479" y1="458.741" x2="310.0821" y2="458.741">
			<stop  offset="0" style="stop-color:#000000"/>
			<stop  offset="1" style="stop-color:#1B1C1C"/>
		</linearGradient>
		<path fill="url(#SVGID_111_)" d="M295.2,457.7c-2.2,0.3-3.8,1-4.4,1.3l0.2,1.1c0,0,1.7-1,4.4-1.4c2.3-0.4,7.7-0.4,10,0
			c2.7,0.4,4.4,1.4,4.4,1.4l0.2-1.1c-0.6-0.3-2.2-1-4.4-1.3C303.2,457.3,297.7,457.3,295.2,457.7z"/>
		<path fill="#595959" d="M313.8,476.7c0.2,0,0.3,0.1,0.3,0.3v2.6c0,0.2-0.1,0.3-0.3,0.3V476.7z"/>
		<g>
			<g>
				<g>
					<path fill="#9E9E9E" d="M294.3,445.3c0.5,0,0.7-0.3,1.1-0.4c0,0,0.1,0,0.1-0.1s0-0.1-0.1-0.1c-0.5,0-0.7,0.3-1.1,0.4
						C294.2,445.1,294.2,445.1,294.3,445.3C294.2,445.2,294.2,445.3,294.3,445.3z"/>
					<path fill="#9E9E9E" d="M295.4,445c-0.5,0-0.7,0.3-1.1,0.4c0,0-0.1,0-0.1,0.1c0,0,0,0.1,0.1,0.1c0.5,0,0.7-0.3,1.1-0.4
						C295.4,445.2,295.5,445.2,295.4,445C295.5,445.1,295.4,445,295.4,445z"/>
					<path fill="#9E9E9E" d="M295.4,445.3c-0.5,0-0.7,0.3-1.1,0.4c0,0-0.1,0-0.1,0.1c0,0,0,0.1,0.1,0.1c0.5,0,0.7-0.3,1.1-0.4
						C295.4,445.5,295.5,445.4,295.4,445.3C295.5,445.4,295.4,445.3,295.4,445.3z"/>
				</g>
			</g>
			<g>
				<g>
					<path fill="#9E9E9E" d="M306.7,445.3c-0.5,0-0.7-0.3-1.1-0.4c0,0-0.1,0-0.1-0.1s0-0.1,0.1-0.1c0.5,0,0.7,0.3,1.1,0.4
						C306.7,445.1,306.7,445.1,306.7,445.3C306.7,445.2,306.7,445.3,306.7,445.3z"/>
					<path fill="#9E9E9E" d="M305.5,445c0.5,0,0.7,0.3,1.1,0.4c0,0,0.1,0,0.1,0.1c0,0,0,0.1-0.1,0.1c-0.5,0-0.7-0.3-1.1-0.4
						C305.5,445.2,305.4,445.2,305.5,445C305.4,445.1,305.5,445,305.5,445z"/>
					<path fill="#9E9E9E" d="M305.5,445.3c0.5,0,0.7,0.3,1.1,0.4c0,0,0.1,0,0.1,0.1c0,0,0,0.1-0.1,0.1c-0.5,0-0.7-0.3-1.1-0.4
						C305.5,445.5,305.4,445.4,305.5,445.3C305.4,445.4,305.5,445.3,305.5,445.3z"/>
				</g>
			</g>
		</g>
		<linearGradient id="SVGID_112_" gradientUnits="userSpaceOnUse" x1="296.2369" y1="497.1736" x2="304.6841" y2="497.1736">
			<stop  offset="0" style="stop-color:#363B39"/>
			<stop  offset="1" style="stop-color:#1B1C1C"/>
		</linearGradient>
		<path fill="url(#SVGID_112_)" d="M304.2,496.9h-7.4c-0.2,0-0.4,0.1-0.5,0.3c2.3,0.2,4.2,0.2,4.2,0.2c0,0,1.9,0,4.2-0.2
			C304.6,497,304.4,496.9,304.2,496.9z"/>
		<linearGradient id="SVGID_113_" gradientUnits="userSpaceOnUse" x1="296.6548" y1="478.4532" x2="300.8723" y2="484.9205">
			<stop  offset="0" style="stop-color:#363B39"/>
			<stop  offset="1" style="stop-color:#000000"/>
		</linearGradient>
		<path fill="url(#SVGID_113_)" d="M308.9,483.3c-1.5,0.3-4.2,0.7-8.4,0.7c-0.9,0-1.7,0-2.4-0.1c-2.4,0.8-3.9,3.5-4.2,4.1
			c0.6,0.2,1.4,0.3,2.3,0.5c1.9,0.3,6.8,0.3,8.7,0c2.5-0.4,4.3-1,4.3-1S309.3,485.5,308.9,483.3z"/>
		
			<radialGradient id="SVGID_114_" cx="296.1964" cy="468.941" r="2.3145" gradientTransform="matrix(0.9955 0 0 0.9811 -0.1644 7.3493)" gradientUnits="userSpaceOnUse">
			<stop  offset="0" style="stop-color:#F37E5F"/>
			<stop  offset="0.3927" style="stop-color:#EC1C24"/>
			<stop  offset="1" style="stop-color:#B30000"/>
		</radialGradient>
		<path fill="url(#SVGID_114_)" d="M293.2,465.7c-0.2,0-0.4,0.2-0.4,0.4v2.6c0,0.2,0.2,0.4,0.4,0.4h3.3v-3.4H293.2z"/>
		<linearGradient id="SVGID_115_" gradientUnits="userSpaceOnUse" x1="300.442" y1="465.528" x2="300.442" y2="469.2382">
			<stop  offset="0" style="stop-color:#363B39"/>
			<stop  offset="0.1587" style="stop-color:#383D3A"/>
			<stop  offset="0.3993" style="stop-color:#000000"/>
			<stop  offset="0.7357" style="stop-color:#5C6161"/>
			<stop  offset="1" style="stop-color:#1B1C1C"/>
		</linearGradient>
		<rect x="296.6" y="465.7" fill="url(#SVGID_115_)" width="7.8" height="3.4"/>
		
			<radialGradient id="SVGID_116_" cx="307.7684" cy="468.941" r="2.3868" gradientTransform="matrix(0.9955 0 0 0.9811 -0.1644 7.3493)" gradientUnits="userSpaceOnUse">
			<stop  offset="0" style="stop-color:#2BC4F3"/>
			<stop  offset="0.3491" style="stop-color:#00AEEE"/>
			<stop  offset="1" style="stop-color:#0057DA"/>
		</radialGradient>
		<path fill="url(#SVGID_116_)" d="M307.7,465.7h-3.4v3.4h3.4c0.2,0,0.4-0.2,0.4-0.4v-2.6C308.1,465.9,307.9,465.7,307.7,465.7z"/>
		
			<radialGradient id="SVGID_117_" cx="426.6038" cy="413.2158" r="0.7217" gradientTransform="matrix(1.2823 0.5501 -0.3974 0.8995 -76.8762 -175.6306)" gradientUnits="userSpaceOnUse">
			<stop  offset="0" style="stop-color:#CA92F3"/>
			<stop  offset="2.692359e-002" style="stop-color:#B986DE"/>
			<stop  offset="0.109" style="stop-color:#8863A4"/>
			<stop  offset="0.191" style="stop-color:#5F4472"/>
			<stop  offset="0.2712" style="stop-color:#3D2C49"/>
			<stop  offset="0.3491" style="stop-color:#221929"/>
			<stop  offset="0.4242" style="stop-color:#0F0B12"/>
			<stop  offset="0.4951" style="stop-color:#040305"/>
			<stop  offset="0.5576" style="stop-color:#000000"/>
		</radialGradient>
		<path fill="url(#SVGID_117_)" d="M306.7,431c-0.1,0.3-0.5,0.4-0.9,0.2c-0.4-0.2-0.6-0.5-0.5-0.8c0.1-0.3,0.5-0.4,0.9-0.2
			C306.6,430.4,306.8,430.8,306.7,431z"/>
		
			<radialGradient id="SVGID_118_" cx="268.5272" cy="338.6522" r="0.4524" gradientTransform="matrix(2.188 -0.504 0.2892 1.2193 -390.5267 153.0175)" gradientUnits="userSpaceOnUse">
			<stop  offset="0" style="stop-color:#FFFFFF"/>
			<stop  offset="4.087531e-002" style="stop-color:#DEDEDE"/>
			<stop  offset="0.1208" style="stop-color:#A4A4A4"/>
			<stop  offset="0.2006" style="stop-color:#727272"/>
			<stop  offset="0.2787" style="stop-color:#494949"/>
			<stop  offset="0.3546" style="stop-color:#292929"/>
			<stop  offset="0.4277" style="stop-color:#121212"/>
			<stop  offset="0.4967" style="stop-color:#050505"/>
			<stop  offset="0.5576" style="stop-color:#000000"/>
		</radialGradient>
		<path fill="url(#SVGID_118_)" d="M295.7,430.4c0.1,0.2-0.2,0.5-0.7,0.6c-0.4,0.1-0.8,0-0.9-0.2c-0.1-0.2,0.2-0.5,0.7-0.6
			C295.3,430.1,295.7,430.2,295.7,430.4z"/>
		<g>
			<path fill="#AFAFAF" d="M306,438.4v-2h0.5v5.5h-0.8c-0.2,0-0.3,0-0.4-0.1c-0.1-0.1-0.2-0.2-0.3-0.4c-0.1-0.2-0.1-0.3-0.2-0.6
				c0-0.2-0.1-0.5-0.1-0.7c0-0.3,0-0.5,0.1-0.7c0-0.2,0.1-0.4,0.2-0.6c0.1-0.2,0.2-0.3,0.3-0.4c0.1-0.1,0.3-0.1,0.4-0.1H306z
				 M306,439.2h-0.4c-0.1,0-0.2,0-0.2,0.1c-0.1,0-0.1,0.1-0.2,0.2c0,0.1-0.1,0.2-0.1,0.3c0,0.1,0,0.3,0,0.4c0,0.1,0,0.3,0,0.4
				c0,0.1,0.1,0.2,0.1,0.3c0,0.1,0.1,0.1,0.2,0.2c0.1,0,0.1,0.1,0.2,0.1h0.4V439.2z"/>
			<path fill="#AFAFAF" d="M301.8,439.2c0-0.4,0-0.8,0.1-1.1c0.1-0.3,0.2-0.6,0.3-0.9c0.1-0.3,0.3-0.5,0.4-0.6
				c0.2-0.1,0.3-0.2,0.5-0.2c0.2,0,0.4,0.1,0.5,0.2c0.2,0.1,0.3,0.3,0.4,0.6c0.1,0.3,0.2,0.6,0.3,0.9c0.1,0.3,0.1,0.7,0.1,1.1
				c0,0.4,0,0.8-0.1,1.1c-0.1,0.3-0.2,0.6-0.3,0.9c-0.1,0.3-0.3,0.5-0.4,0.6c-0.2,0.1-0.3,0.2-0.5,0.2c-0.2,0-0.4-0.1-0.5-0.2
				c-0.2-0.1-0.3-0.3-0.4-0.6c-0.1-0.3-0.2-0.6-0.3-0.9C301.8,440,301.8,439.6,301.8,439.2z M302.3,439.2c0,0.3,0,0.6,0.1,0.8
				c0,0.2,0.1,0.4,0.2,0.6c0.1,0.2,0.2,0.3,0.3,0.4c0.1,0.1,0.2,0.1,0.3,0.1c0.1,0,0.2,0,0.3-0.1c0.1-0.1,0.2-0.2,0.3-0.4
				c0.1-0.2,0.1-0.4,0.2-0.6c0-0.2,0.1-0.5,0.1-0.8c0-0.3,0-0.6-0.1-0.8c0-0.2-0.1-0.4-0.2-0.6c-0.1-0.2-0.2-0.3-0.3-0.4
				c-0.1-0.1-0.2-0.1-0.3-0.1c-0.1,0-0.2,0-0.3,0.1c-0.1,0.1-0.2,0.2-0.3,0.4c-0.1,0.2-0.1,0.4-0.2,0.6
				C302.3,438.6,302.3,438.9,302.3,439.2z"/>
			<path fill="#AFAFAF" d="M301,437.3h-1v-0.9h1.5v5.5H301V437.3z"/>
			<path fill="#AFAFAF" d="M299.1,436.4h0.5v5.5h-0.5V436.4z"/>
			<path fill="#AFAFAF" d="M296.8,437.7C296.8,437.7,296.7,437.7,296.8,437.7l-0.3-0.5c0.1-0.3,0.2-0.5,0.4-0.6
				c0.2-0.1,0.3-0.2,0.6-0.2c0.2,0,0.4,0.1,0.5,0.2c0.2,0.1,0.3,0.3,0.4,0.6c0.1,0.3,0.2,0.5,0.2,0.9c0.1,0.3,0.1,0.7,0.1,1.1
				c0,0.4,0,0.8-0.1,1.1c-0.1,0.3-0.2,0.6-0.3,0.9c-0.1,0.3-0.3,0.4-0.4,0.6c-0.2,0.1-0.3,0.2-0.5,0.2c-0.2,0-0.4-0.1-0.5-0.2
				c-0.1-0.1-0.3-0.3-0.4-0.5l0.2-0.5c0,0,0-0.1,0-0.1c0,0,0,0,0.1,0c0,0,0.1,0,0.1,0.1c0,0,0.1,0.1,0.1,0.1c0,0.1,0.1,0.1,0.2,0.1
				c0.1,0,0.2,0.1,0.3,0.1c0.1,0,0.2,0,0.3-0.1c0.1-0.1,0.2-0.2,0.3-0.4c0.1-0.2,0.1-0.4,0.2-0.6c0-0.2,0.1-0.5,0.1-0.8
				c0-0.3,0-0.6-0.1-0.8c0-0.2-0.1-0.4-0.2-0.6c-0.1-0.2-0.2-0.3-0.2-0.4c-0.1-0.1-0.2-0.1-0.3-0.1c-0.1,0-0.1,0-0.2,0
				c-0.1,0-0.1,0-0.1,0.1c0,0-0.1,0.1-0.1,0.1C297,437.5,296.9,437.6,296.8,437.7C296.9,437.7,296.8,437.7,296.8,437.7
				C296.8,437.7,296.8,437.7,296.8,437.7z"/>
			<path fill="#AFAFAF" d="M294.6,442v-0.8h1.1v-1.5h-0.9v-0.8h0.9v-1.6h-1.1v-0.8h1.6v5.5H294.6z"/>
		</g>
		
			<radialGradient id="SVGID_119_" cx="307.0331" cy="468.2096" r="2.5742" gradientTransform="matrix(0.9955 0 0 0.9811 -0.1644 7.3493)" gradientUnits="userSpaceOnUse">
			<stop  offset="0" style="stop-color:#CA92F3"/>
			<stop  offset="2.692359e-002" style="stop-color:#B986DE"/>
			<stop  offset="0.109" style="stop-color:#8863A4"/>
			<stop  offset="0.191" style="stop-color:#5F4472"/>
			<stop  offset="0.2712" style="stop-color:#3D2C49"/>
			<stop  offset="0.3491" style="stop-color:#221929"/>
			<stop  offset="0.4242" style="stop-color:#0F0B12"/>
			<stop  offset="0.4951" style="stop-color:#040305"/>
			<stop  offset="0.5576" style="stop-color:#000000"/>
		</radialGradient>
		<ellipse fill="url(#SVGID_119_)" cx="305.5" cy="466.7" rx="2" ry="1.9"/>
		
			<radialGradient id="SVGID_120_" cx="308.3677" cy="469.5138" r="2.5739" gradientTransform="matrix(0.9955 0 0 0.9811 -0.1644 7.3493)" gradientUnits="userSpaceOnUse">
			<stop  offset="0" style="stop-color:#CA92F3"/>
			<stop  offset="2.692359e-002" style="stop-color:#B986DE"/>
			<stop  offset="0.109" style="stop-color:#8863A4"/>
			<stop  offset="0.191" style="stop-color:#5F4472"/>
			<stop  offset="0.2712" style="stop-color:#3D2C49"/>
			<stop  offset="0.3491" style="stop-color:#221929"/>
			<stop  offset="0.4242" style="stop-color:#0F0B12"/>
			<stop  offset="0.4951" style="stop-color:#040305"/>
			<stop  offset="0.5576" style="stop-color:#000000"/>
		</radialGradient>
		<ellipse fill="url(#SVGID_120_)" cx="306.8" cy="468" rx="2" ry="1.9"/>
		
			<radialGradient id="SVGID_121_" cx="296.0425" cy="469.5138" r="2.5739" gradientTransform="matrix(0.9955 0 0 0.9811 -0.1644 7.3493)" gradientUnits="userSpaceOnUse">
			<stop  offset="0" style="stop-color:#FFFFFF"/>
			<stop  offset="4.087531e-002" style="stop-color:#DEDEDE"/>
			<stop  offset="0.1208" style="stop-color:#A4A4A4"/>
			<stop  offset="0.2006" style="stop-color:#727272"/>
			<stop  offset="0.2787" style="stop-color:#494949"/>
			<stop  offset="0.3546" style="stop-color:#292929"/>
			<stop  offset="0.4277" style="stop-color:#121212"/>
			<stop  offset="0.4967" style="stop-color:#050505"/>
			<stop  offset="0.5576" style="stop-color:#000000"/>
		</radialGradient>
		<ellipse fill="url(#SVGID_121_)" cx="294.5" cy="468" rx="2" ry="1.9"/>
		
			<radialGradient id="SVGID_122_" cx="297.2339" cy="468.4128" r="2.5737" gradientTransform="matrix(0.9955 0 0 0.9811 -0.1644 7.3493)" gradientUnits="userSpaceOnUse">
			<stop  offset="0" style="stop-color:#FFFFFF"/>
			<stop  offset="4.087531e-002" style="stop-color:#DEDEDE"/>
			<stop  offset="0.1208" style="stop-color:#A4A4A4"/>
			<stop  offset="0.2006" style="stop-color:#727272"/>
			<stop  offset="0.2787" style="stop-color:#494949"/>
			<stop  offset="0.3546" style="stop-color:#292929"/>
			<stop  offset="0.4277" style="stop-color:#121212"/>
			<stop  offset="0.4967" style="stop-color:#050505"/>
			<stop  offset="0.5576" style="stop-color:#000000"/>
		</radialGradient>
		<ellipse fill="url(#SVGID_122_)" cx="295.7" cy="466.9" rx="2" ry="1.9"/>
		<g>
			<path fill="#9E9E9E" d="M295.4,492.8v1.2H295v-3.5h0.8c0.2,0,0.3,0,0.4,0.1c0.1,0.1,0.2,0.1,0.3,0.2c0.1,0.1,0.1,0.2,0.2,0.3
				c0,0.1,0.1,0.3,0.1,0.4c0,0.2,0,0.3-0.1,0.5c0,0.1-0.1,0.3-0.2,0.4c-0.1,0.1-0.2,0.2-0.3,0.2c-0.1,0.1-0.3,0.1-0.4,0.1H295.4z
				 M295.4,492.3h0.3c0.1,0,0.2,0,0.2,0c0.1,0,0.1-0.1,0.2-0.1c0-0.1,0.1-0.1,0.1-0.2c0-0.1,0-0.2,0-0.3c0-0.1,0-0.2,0-0.3
				c0-0.1-0.1-0.1-0.1-0.2c0-0.1-0.1-0.1-0.2-0.1c-0.1,0-0.1,0-0.2,0h-0.3V492.3z"/>
			<path fill="#9E9E9E" d="M299.4,492.3c0,0.3,0,0.5-0.1,0.7c-0.1,0.2-0.1,0.4-0.3,0.6c-0.1,0.2-0.2,0.3-0.4,0.4
				c-0.2,0.1-0.3,0.1-0.5,0.1c-0.2,0-0.4,0-0.5-0.1c-0.2-0.1-0.3-0.2-0.4-0.4c-0.1-0.2-0.2-0.3-0.3-0.6c-0.1-0.2-0.1-0.5-0.1-0.7
				c0-0.3,0-0.5,0.1-0.7c0.1-0.2,0.1-0.4,0.3-0.6c0.1-0.2,0.2-0.3,0.4-0.4c0.2-0.1,0.3-0.1,0.5-0.1c0.2,0,0.4,0,0.5,0.1
				c0.2,0.1,0.3,0.2,0.4,0.4c0.1,0.2,0.2,0.3,0.3,0.6C299.3,491.8,299.4,492,299.4,492.3z M298.9,492.3c0-0.2,0-0.4-0.1-0.5
				c0-0.2-0.1-0.3-0.2-0.4c-0.1-0.1-0.1-0.2-0.2-0.2c-0.1-0.1-0.2-0.1-0.3-0.1s-0.2,0-0.3,0.1c-0.1,0.1-0.2,0.1-0.2,0.2
				c-0.1,0.1-0.1,0.2-0.2,0.4c0,0.2-0.1,0.3-0.1,0.5c0,0.2,0,0.4,0.1,0.5c0,0.2,0.1,0.3,0.2,0.4c0.1,0.1,0.1,0.2,0.2,0.2
				c0.1,0.1,0.2,0.1,0.3,0.1s0.2,0,0.3-0.1c0.1-0.1,0.2-0.1,0.2-0.2c0.1-0.1,0.1-0.2,0.2-0.4C298.9,492.6,298.9,492.5,298.9,492.3z"
				/>
			<path fill="#9E9E9E" d="M300.1,493.5h1v0.5h-1.4v-3.5h0.5V493.5z"/>
			<path fill="#9E9E9E" d="M301.8,494h-0.5v-3.5h0.5V494z"/>
			<path fill="#9E9E9E" d="M304,493.2C304,493.2,304.1,493.2,304,493.2l0.2,0.3c-0.1,0.2-0.2,0.3-0.4,0.4c-0.1,0.1-0.3,0.1-0.5,0.1
				c-0.2,0-0.3,0-0.5-0.1c-0.1-0.1-0.3-0.2-0.4-0.4c-0.1-0.2-0.2-0.3-0.2-0.6c-0.1-0.2-0.1-0.5-0.1-0.7c0-0.3,0-0.5,0.1-0.7
				c0.1-0.2,0.1-0.4,0.3-0.6c0.1-0.2,0.2-0.3,0.4-0.4c0.2-0.1,0.3-0.1,0.5-0.1c0.2,0,0.3,0,0.5,0.1c0.1,0.1,0.3,0.2,0.4,0.3
				l-0.2,0.3c0,0,0,0,0,0.1c0,0,0,0-0.1,0c0,0-0.1,0-0.1,0c0,0-0.1-0.1-0.1-0.1c0,0-0.1-0.1-0.2-0.1c-0.1,0-0.1,0-0.2,0
				c-0.1,0-0.2,0-0.3,0.1c-0.1,0.1-0.2,0.1-0.3,0.2c-0.1,0.1-0.1,0.2-0.2,0.4c0,0.2-0.1,0.3-0.1,0.5c0,0.2,0,0.4,0.1,0.5
				c0,0.2,0.1,0.3,0.2,0.4c0.1,0.1,0.1,0.2,0.2,0.2c0.1,0.1,0.2,0.1,0.3,0.1c0.1,0,0.1,0,0.2,0c0.1,0,0.1,0,0.1,0c0,0,0.1,0,0.1-0.1
				C303.9,493.3,303.9,493.3,304,493.2C304,493.2,304,493.2,304,493.2C304,493.2,304,493.2,304,493.2z"/>
			<path fill="#9E9E9E" d="M306.1,490.5v0.5H305v1h0.9v0.5H305v1h1.1v0.5h-1.6v-3.5H306.1z"/>
		</g>
	</g>
</g>
</svg>
