<?xml version="1.0" encoding="utf-8"?>
<!-- Generator: Adobe Illustrator 18.0.0, SVG Export Plug-In . SVG Version: 6.00 Build 0)  -->
<!DOCTYPE svg PUBLIC "-//W3C//DTD SVG 1.1//EN" "http://www.w3.org/Graphics/SVG/1.1/DTD/svg11.dtd">
<svg version="1.1" id="Layer_1" xmlns="http://www.w3.org/2000/svg" xmlns:xlink="http://www.w3.org/1999/xlink" x="0px" y="0px"
	 viewBox="0 0 360 510" enable-background="new 0 0 360 510" xml:space="preserve">
<g>
	<g>
		<g>
			<rect x="14" y="465.8" fill="#455367" width="157.5" height="103.9"/>
			<rect x="155.6" y="465.8" fill="#FBFCFC" width="8" height="103.9"/>
			<rect x="90.1" y="478.7" fill="#FBFCFC" width="5.4" height="25.9"/>
			<rect x="21.9" y="465.8" fill="#FBFCFC" width="8" height="103.9"/>
		</g>
		<g>
			<rect x="14" y="361.9" fill="#455367" width="157.5" height="103.9"/>
			<rect x="155.6" y="361.9" fill="#FBFCFC" width="8" height="103.9"/>
			<rect x="90.1" y="426.8" fill="#FBFCFC" width="5.4" height="25.9"/>
			<rect x="90.1" y="374.9" fill="#FBFCFC" width="5.4" height="25.9"/>
			<rect x="21.9" y="361.9" fill="#FBFCFC" width="8" height="103.9"/>
		</g>
		<g>
			<rect x="14" y="258" fill="#455367" width="157.5" height="103.9"/>
			<rect x="155.6" y="258" fill="#FBFCFC" width="8" height="103.9"/>
			<rect x="90.1" y="322.9" fill="#FBFCFC" width="5.4" height="25.9"/>
			<rect x="90.1" y="271" fill="#FBFCFC" width="5.4" height="25.9"/>
			<rect x="21.9" y="258" fill="#FBFCFC" width="8" height="103.9"/>
		</g>
		<g>
			<rect x="14" y="154.2" fill="#455367" width="157.5" height="103.9"/>
			<rect x="155.6" y="154.2" fill="#FBFCFC" width="8" height="103.9"/>
			<rect x="90.1" y="219.1" fill="#FBFCFC" width="5.4" height="25.9"/>
			<rect x="90.1" y="167.1" fill="#FBFCFC" width="5.4" height="25.9"/>
			<rect x="21.9" y="154.2" fill="#FBFCFC" width="8" height="103.9"/>
		</g>
		<g>
			<rect x="14" y="50.3" fill="#455367" width="157.5" height="103.9"/>
			<rect x="155.6" y="50.3" fill="#FBFCFC" width="8" height="103.9"/>
			<rect x="90.1" y="115.3" fill="#FBFCFC" width="5.4" height="25.9"/>
			<rect x="90.1" y="63.4" fill="#FBFCFC" width="5.4" height="25.9"/>
			<rect x="21.9" y="50.3" fill="#FBFCFC" width="8" height="103.9"/>
		</g>
		<g>
			<rect x="14" y="-53.5" fill="#455367" width="157.5" height="103.9"/>
			<rect x="155.6" y="-53.5" fill="#FBFCFC" width="8" height="103.9"/>
			<rect x="90.1" y="11.4" fill="#FBFCFC" width="5.4" height="25.9"/>
			<rect x="21.9" y="-53.5" fill="#FBFCFC" width="8" height="103.9"/>
		</g>
	</g>
</g>
<g>
	<g>
		<g>
			<rect x="189.5" y="465.8" fill="#455367" width="157.5" height="103.9"/>
			<rect x="331" y="465.8" fill="#FBFCFC" width="8" height="103.9"/>
			<rect x="265.5" y="478.7" fill="#FBFCFC" width="5.4" height="25.9"/>
			<rect x="197.4" y="465.8" fill="#FBFCFC" width="8" height="103.9"/>
		</g>
		<g>
			<rect x="189.5" y="361.9" fill="#455367" width="157.5" height="103.9"/>
			<rect x="331" y="361.9" fill="#FBFCFC" width="8" height="103.9"/>
			<rect x="265.5" y="426.8" fill="#FBFCFC" width="5.4" height="25.9"/>
			<rect x="265.5" y="374.9" fill="#FBFCFC" width="5.4" height="25.9"/>
			<rect x="197.4" y="361.9" fill="#FBFCFC" width="8" height="103.9"/>
		</g>
		<g>
			<rect x="189.5" y="258" fill="#455367" width="157.5" height="103.9"/>
			<rect x="331" y="258" fill="#FBFCFC" width="8" height="103.9"/>
			<rect x="265.5" y="322.9" fill="#FBFCFC" width="5.4" height="25.9"/>
			<rect x="265.5" y="271" fill="#FBFCFC" width="5.4" height="25.9"/>
			<rect x="197.4" y="258" fill="#FBFCFC" width="8" height="103.9"/>
		</g>
		<g>
			<rect x="189.5" y="154.2" fill="#455367" width="157.5" height="103.9"/>
			<rect x="331" y="154.2" fill="#FBFCFC" width="8" height="103.9"/>
			<rect x="265.5" y="219.1" fill="#FBFCFC" width="5.4" height="25.9"/>
			<rect x="265.5" y="167.1" fill="#FBFCFC" width="5.4" height="25.9"/>
			<rect x="197.4" y="154.2" fill="#FBFCFC" width="8" height="103.9"/>
		</g>
		<g>
			<rect x="189.5" y="50.3" fill="#455367" width="157.5" height="103.9"/>
			<rect x="331" y="50.3" fill="#FBFCFC" width="8" height="103.9"/>
			<rect x="265.5" y="115.3" fill="#FBFCFC" width="5.4" height="25.9"/>
			<rect x="265.5" y="63.4" fill="#FBFCFC" width="5.4" height="25.9"/>
			<rect x="197.4" y="50.3" fill="#FBFCFC" width="8" height="103.9"/>
		</g>
		<g>
			<rect x="189.5" y="-53.5" fill="#455367" width="157.5" height="103.9"/>
			<rect x="331" y="-53.5" fill="#FBFCFC" width="8" height="103.9"/>
			<rect x="265.5" y="11.4" fill="#FBFCFC" width="5.4" height="25.9"/>
			<rect x="197.4" y="-53.5" fill="#FBFCFC" width="8" height="103.9"/>
		</g>
	</g>
</g>
</svg>
